<?xml version="1.0" encoding="utf-8"?>
<!-- Generator: Adobe Illustrator 25.4.8, SVG Export Plug-In . SVG Version: 6.00 Build 0)  -->
<svg version="1.1"
	 id="Layer_2_00000152242665993410840900000005406844565633120398_" xmlns:cc="http://creativecommons.org/ns#" xmlns:dc="http://purl.org/dc/elements/1.1/" xmlns:rdf="http://www.w3.org/1999/02/22-rdf-syntax-ns#"
	 xmlns="http://www.w3.org/2000/svg" xmlns:xlink="http://www.w3.org/1999/xlink" x="0px" y="0px" viewBox="0 0 302 83"
	 style="enable-background:new 0 0 302 83;" xml:space="preserve">
<style type="text/css">
	.st0{fill:#0F0087;}
	.st1{fill:#FB9A0C;}
</style>
<g id="g5">
	<g id="g7">
		<path id="path9" class="st0" d="M0.2,15.8h15.3l5,20.6h0.1l5-20.6H41v35H30.8V28.3h-0.1l-6.1,22.4h-8l-6.1-22.4h-0.1v22.4H0.2
			C0.2,50.7,0.2,15.8,0.2,15.8z"/>
		<path id="path11" class="st0" d="M69.2,45.1c0,1.9,0.1,4.1,1.2,5.7h-9.9c-0.2-0.7-0.4-1.7-0.3-2.4H60c-2.1,2.4-5,3-8.2,3
			c-4.9,0-9-2.4-9-7.7c0-8,9.4-7.7,14.4-8.7c1.3-0.2,2.6-0.6,2.6-2.3c0-1.7-1.6-2.4-3.2-2.4c-3,0-3.6,1.5-3.6,2.6h-9
			c0.3-7.2,7.1-8.3,13.1-8.3c12.2,0,12.1,5,12.1,9.9V45.1z M59.9,39.3c-1.2,0.6-2.5,0.9-3.8,1.2c-2.2,0.5-3.3,1-3.3,2.7
			c0,1.2,1.3,2.4,3,2.4c2.2,0,3.9-1.3,4.1-4C59.9,41.6,59.9,39.3,59.9,39.3z"/>
		<path id="path13" class="st0" d="M72.6,15.8h9.7v35h-9.7C72.6,50.8,72.6,15.8,72.6,15.8z"/>
		<path id="path15" class="st0" d="M110.6,45.1c0,1.9,0.1,4.1,1.2,5.7h-9.9c-0.2-0.7-0.4-1.7-0.3-2.4h-0.1c-2.1,2.4-5,3-8.2,3
			c-4.9,0-9-2.4-9-7.7c0-8,9.4-7.7,14.4-8.7c1.3-0.2,2.6-0.6,2.6-2.3c0-1.7-1.6-2.4-3.2-2.4c-3,0-3.6,1.5-3.6,2.6h-9
			c0.3-7.2,7.1-8.3,13.1-8.3c12.2,0,12.1,5,12.1,9.9L110.6,45.1L110.6,45.1z M101.3,39.3c-1.2,0.6-2.5,0.9-3.8,1.2
			c-2.2,0.5-3.3,1-3.3,2.7c0,1.2,1.3,2.4,3,2.4c2.2,0,3.9-1.3,4.1-4C101.3,41.6,101.3,39.3,101.3,39.3z"/>
		<path id="path17" class="st0" d="M113.5,25.3h9.3v4.1h0.1c1.6-3,3.6-4.7,7.2-4.7c1,0,1.9,0.1,2.8,0.4v8.6c-1-0.3-1.9-0.6-3.8-0.6
			c-3.8,0-5.9,2.3-5.9,7.7v10h-9.7L113.5,25.3L113.5,25.3z"/>
		<path id="path19" class="st0" d="M143.5,22.6h-9.7v-6.8h9.7V22.6z M133.8,25.3h9.7v25.4h-9.7V25.3z"/>
		<path id="path21" class="st0" d="M171.9,45.1c0,1.9,0.1,4.1,1.2,5.7h-9.9c-0.2-0.7-0.4-1.7-0.3-2.4h-0.1c-2.1,2.4-5,3-8.2,3
			c-4.9,0-9-2.4-9-7.7c0-8,9.4-7.7,14.4-8.7c1.3-0.2,2.6-0.6,2.6-2.3c0-1.7-1.6-2.4-3.2-2.4c-3,0-3.6,1.5-3.6,2.6h-9
			c0.3-7.2,7.1-8.3,13.1-8.3c12.2,0,12.1,5,12.1,9.9v10.6H171.9z M162.6,39.3c-1.2,0.6-2.5,0.9-3.8,1.2c-2.2,0.5-3.3,1-3.3,2.7
			c0,1.2,1.3,2.4,3,2.4c2.2,0,3.9-1.3,4.1-4C162.6,41.6,162.6,39.3,162.6,39.3z"/>
		<path id="path23" class="st1" d="M200.8,47.2c-2.4,3.1-6.1,4.4-9.9,4.4c-10.3,0-16.7-8-16.7-18c0-13.3,9.4-18.7,17.2-18.7
			c8.9,0,14.6,4.9,16.1,13.1h-10.3c-0.4-2.5-2.5-4.4-5.1-4.4c-7.4,0-7.2,7.8-7.2,10.2c0,3.3,1.3,9,7.9,9c2.5,0,5-1.3,5.6-3.9h-4.8
			v-7.5H208v19.3h-6.8L200.8,47.2z"/>
		<path id="path25" class="st1" d="M211.4,15.8h29v9h-18.2v4.4h16.5v8.3h-16.5v4.4h18.7v9h-29.5C211.4,50.9,211.4,15.8,211.4,15.8z"
			/>
		<path id="path27" class="st1" d="M244,15.8h11l10.2,18.7h0.1V15.8h10.2v35H265l-10.7-19.1h-0.1v19.1H244
			C244,50.8,244,15.8,244,15.8z"/>
	</g>
	<g id="g29">
		<path id="path31" class="st0" d="M10,67.8H8.8l-0.3-1.3c-1,1.2-2,1.6-3.3,1.6c-3.3,0-5.3-2.6-5.3-5.8c0-3.1,2-5.8,5.3-5.8
			c2.4,0,4.4,1.3,4.7,3.8H8c-0.2-1.4-1.4-2.2-2.8-2.2c-2.4,0-3.3,2.1-3.3,4.2c0,2.1,1,4.2,3.3,4.2c2,0,3-1.2,3.1-3H5.4V62H10
			C10,62,10,67.8,10,67.8z"/>
		<path id="path33" class="st0" d="M12.1,56.8H20v1.7h-6v2.9h5.5V63H14v3.2h6.1v1.7h-8C12.1,67.9,12.1,56.8,12.1,56.8z"/>
		<path id="path35" class="st0" d="M21.7,56.8h2l5,8.1v-8.1h1.8v11h-2l-5-8.1v8.1h-1.8C21.7,67.8,21.7,56.8,21.7,56.8z"/>
		<path id="path37" class="st0" d="M42.9,62.3c0,3.1-2,5.8-5.3,5.8s-5.3-2.6-5.3-5.8c0-3.1,2-5.8,5.3-5.8S42.9,59.2,42.9,62.3z
			 M34.3,62.3c0,2.1,1,4.2,3.3,4.2s3.3-2.1,3.3-4.2c0-2.1-1-4.2-3.3-4.2S34.3,60.2,34.3,62.3z"/>
		<path id="path39" class="st0" d="M44.6,56.8h2.7l3,8.6l3-8.6H56v11h-1.8v-8.5l-3,8.5h-1.6l-3-8.5v8.5h-1.8v-11L44.6,56.8z"/>
		<path id="path41" class="st0" d="M58.3,56.8h1.9v11h-1.9C58.3,67.8,58.3,56.8,58.3,56.8z"/>
		<path id="path43" class="st0" d="M70,60.3c-0.3-1.3-1.1-2.2-2.7-2.2c-2.4,0-3.3,2.1-3.3,4.2c0,2.1,1,4.2,3.3,4.2
			c1.7,0,2.6-1.3,2.8-2.9H72c-0.2,2.6-2,4.4-4.7,4.4C64,68,62,65.4,62,62.2c0-3.1,2-5.8,5.3-5.8c2.5,0,4.4,1.4,4.7,3.8L70,60.3
			L70,60.3z"/>
		<path id="path45" class="st0" d="M78,56.8h7.9v1.7h-6v2.9h5.5V63h-5.5v3.2H86v1.7h-8C78,67.9,78,56.8,78,56.8z"/>
		<path id="path47" class="st0" d="M87.7,56.8h4.9c3.1,0,3.7,2,3.7,3.4s-0.6,3.4-3.7,3.4h-2.9v4.2h-1.9L87.7,56.8L87.7,56.8z
			 M89.6,62h2.8c0.9,0,1.9-0.4,1.9-1.8s-0.9-1.8-1.9-1.8h-2.8V62z"/>
		<path id="path49" class="st0" d="M98,56.8h1.9v11H98C98,67.8,98,56.8,98,56.8z"/>
		<path id="path51" class="st0" d="M102.3,56.8h4.6c3.4,0,4.8,2.5,4.8,5.5c0,3-1.5,5.5-4.8,5.5h-4.6
			C102.3,67.8,102.3,56.8,102.3,56.8z M104.2,66.2h1.9c3,0,3.7-1.7,3.7-3.9c0-2.2-0.6-3.9-3.7-3.9h-1.9V66.2z"/>
		<path id="path53" class="st0" d="M113.4,56.8h7.9v1.7h-6v2.9h5.5V63h-5.5v3.2h6.1v1.7h-8C113.4,67.9,113.4,56.8,113.4,56.8z"/>
		<path id="path55" class="st0" d="M123,56.8h2.7l3,8.6l3-8.6h2.7v11h-1.8v-8.5l-3,8.5H128l-3-8.5v8.5h-2L123,56.8L123,56.8z"/>
		<path id="path57" class="st0" d="M136.8,56.8h1.9v11h-1.9C136.8,67.8,136.8,56.8,136.8,56.8z"/>
		<path id="path59" class="st0" d="M151,62.3c0,3.1-2,5.8-5.3,5.8s-5.3-2.6-5.3-5.8c0-3.1,2-5.8,5.3-5.8C149,56.6,151,59.2,151,62.3
			z M142.4,62.3c0,2.1,1,4.2,3.3,4.2c2.4,0,3.3-2.1,3.3-4.2c0-2.1-1-4.2-3.3-4.2S142.4,60.2,142.4,62.3z"/>
		<path id="path61" class="st0" d="M152.7,56.8h1.9v9.3h5.6v1.7h-7.5C152.7,67.8,152.7,56.8,152.7,56.8z"/>
		<path id="path63" class="st0" d="M171.5,62.3c0,3.1-2,5.8-5.3,5.8s-5.3-2.6-5.3-5.8c0-3.1,2-5.8,5.3-5.8
			C169.6,56.6,171.5,59.2,171.5,62.3z M162.9,62.3c0,2.1,1,4.2,3.3,4.2c2.4,0,3.3-2.1,3.3-4.2c0-2.1-1-4.2-3.3-4.2
			S162.9,60.2,162.9,62.3z"/>
		<path id="path65" class="st0" d="M182.9,67.8h-1.2l-0.3-1.3c-1,1.2-2,1.6-3.3,1.6c-3.3,0-5.3-2.6-5.3-5.8c0-3.1,2-5.8,5.3-5.8
			c2.4,0,4.4,1.3,4.7,3.8h-1.9c-0.2-1.4-1.4-2.2-2.8-2.2c-2.4,0-3.3,2.1-3.3,4.2c0,2.1,1,4.2,3.3,4.2c2,0,3-1.2,3.1-3h-2.9V62h4.7
			v5.8H182.9z"/>
		<path id="path67" class="st0" d="M187.8,63.5l-4.1-6.7h2.2l2.9,4.9l2.9-4.9h2.2l-4.1,6.7v4.3h-1.9L187.8,63.5L187.8,63.5z"/>
		<path id="path69" class="st0" d="M199.1,56.8h2l5,8.1v-8.1h1.8v11h-2l-5-8.1v8.1h-1.8C199.1,67.8,199.1,56.8,199.1,56.8z"/>
		<path id="path71" class="st0" d="M210.3,56.8h7.9v1.7h-6v2.9h5.5V63h-5.5v3.2h6.1v1.7h-8C210.3,67.9,210.3,56.8,210.3,56.8z"/>
		<path id="path73" class="st0" d="M219,56.8h8.9v1.7h-3.5v9.3h-1.9v-9.3H219C219,58.5,219,56.8,219,56.8z"/>
		<path id="path75" class="st0" d="M228.1,56.8h2l2,8.4l2.2-8.4h2l2.2,8.4l2-8.4h2l-3,11h-2l-2.2-8.4l-2.2,8.4h-2
			C231.1,67.8,228.1,56.8,228.1,56.8z"/>
		<path id="path77" class="st0" d="M253.6,62.3c0,3.1-2,5.8-5.3,5.8s-5.3-2.6-5.3-5.8c0-3.1,2-5.8,5.3-5.8
			C251.7,56.6,253.6,59.2,253.6,62.3z M245,62.3c0,2.1,1,4.2,3.3,4.2c2.4,0,3.3-2.1,3.3-4.2c0-2.1-1-4.2-3.3-4.2S245,60.2,245,62.3z
			"/>
		<path id="path79" class="st0" d="M255.4,56.8h5.3c2.4,0,3.6,1.1,3.6,3c0,2.1-1.5,2.6-1.8,2.8c0.7,0.1,1.6,0.6,1.6,2.3
			c0,1.3,0.2,2.4,0.6,2.9h-2.1c-0.3-0.5-0.3-1.1-0.3-1.6c0-2-0.4-2.9-2.2-2.9h-2.8v4.5h-1.9L255.4,56.8L255.4,56.8z M257.3,61.8h3.2
			c1.2,0,1.9-0.6,1.9-1.8c0-1.4-0.9-1.7-1.9-1.7h-3.1v3.5H257.3z"/>
		<path id="path81" class="st0" d="M266.2,56.8h1.9v5l4.9-5h2.4l-4.4,4.4l4.7,6.6h-2.4l-3.6-5.3l-1.6,1.6v3.7h-1.9
			C266.2,67.8,266.2,56.8,266.2,56.8z"/>
	</g>
</g>
</svg>
