<svg xmlns="http://www.w3.org/2000/svg" xmlns:xlink="http://www.w3.org/1999/xlink" width="135" height="24"><defs><path id="ji9udnt14a" d="M0 18.954h82.863V0H0z"/></defs><g fill="none" fill-rule="evenodd"><path fill="#323232" d="M31.023 0c.72-.007 1.411.11 2.059.324.083.024.163.055.245.084.072.028.145.053.216.084a6.144 6.144 0 0 1 3.906 5.938c.028.82-.106 1.64-.414 2.406-.84 4.319-.4 6.607 2.577 6.674a4.086 4.086 0 0 1 3.326 1.163s1.047 1.013 1.062 2.842c.014 1.813-.687 2.735-.958 3.023l-.064.065-.04.036-.173.173a4.317 4.317 0 0 1-2.44 1.156 4.092 4.092 0 0 1-4.598-3.706 4.342 4.342 0 0 1 .39-2.228c3.251-7.008-12.78-7.168-10.073-.553.006.009.013.016.02.028 1.28 2.012.586 4.629-1.543 5.839a4.666 4.666 0 0 1-2.497.597 4.666 4.666 0 0 1-2.497-.597c-2.13-1.21-2.824-3.827-1.543-5.84l.018-.027c2.709-6.615-13.322-6.455-10.073.553.313.676.464 1.44.39 2.228a4.09 4.09 0 0 1-4.596 3.706c-1.204-.149-2.198-.784-2.93-1.702-1.011-1.264-1.102-4.157 0-5.238 1.099-1.082 2.186-1.672 3.644-1.518 2.974-.067 3.415-2.355 2.576-6.674a5.909 5.909 0 0 1-.416-2.407A6.144 6.144 0 0 1 10.503.492c.073-.031.145-.056.218-.084.08-.029.162-.06.245-.084A6.337 6.337 0 0 1 13.024 0a6.283 6.283 0 0 1 5.282 2.943c1.498 1.616 2.253 2.598 3.718 2.598 1.541 0 2.218-.982 3.717-2.598A6.288 6.288 0 0 1 31.023 0zm-8.532 7h-.01C20.009 7 18 8.79 18 11c0 1.237.63 2.343 1.619 3.076.43.365.97.63 1.628.767.393.101.807.157 1.235.157h.037c.427 0 .844-.056 1.234-.157.659-.136 1.198-.402 1.628-.767.99-.733 1.619-1.839 1.619-3.075C27 8.79 24.993 7 22.519 7l-.018.002L22.48 7z"/><g transform="translate(52 3)"><path fill="#323232" d="M11.406 1.084 9.385 5.708c-1.2 2.733-1.913 4.53-2.27 5.486A176.64 176.64 0 0 0 4.979 5.64L3.133 1.084H.977L0 14.505h1.644L2.425 3.44 6.96 14.66 11.986 3.4l.687 11.106h1.731l-.97-13.421h-2.028zm13.765 8.171v.012zm-.001 0c0-3.482-.958-5.082-4.049-5.082-2.6 0-4.493 1.865-4.493 5.33 0 3.313 2.001 5.264 4.534 5.264 1.893 0 2.937-.423 3.827-.955l-.135-1.555c-.6.532-1.98 1.043-3.16 1.043-2.116 0-3.287-1.312-3.287-3.708v-.337h6.764zM21.015 5.62c1.513-.016 2.533.357 2.6 2.309h-5.026c.175-1.266 1.181-2.295 2.426-2.31zM57.8 9.255v.012zm0 0c-.001-3.482-.958-5.082-4.05-5.082-2.6 0-4.493 1.865-4.493 5.33 0 3.313 2.001 5.264 4.534 5.264 1.893 0 2.937-.423 3.827-.955l-.135-1.555c-.6.532-1.98 1.043-3.16 1.043-2.115 0-3.287-1.312-3.287-3.708v-.337H57.8zM53.643 5.62c1.513-.016 2.533.357 2.6 2.309h-5.025c.174-1.266 1.18-2.295 2.425-2.31zm19.061 3.635v.012zm0 0c-.002-3.482-.959-5.082-4.05-5.082-2.6 0-4.494 1.865-4.494 5.33 0 3.313 2.002 5.264 4.535 5.264 1.893 0 2.937-.423 3.826-.955l-.135-1.555c-.599.532-1.98 1.043-3.159 1.043-2.116 0-3.288-1.312-3.288-3.708v-.337h6.765zM68.547 5.62c1.513-.016 2.533.357 2.6 2.309H66.12c.175-1.266 1.181-2.295 2.426-2.31zM32.42 4.173c-1.51 0-2.445.754-3.268 1.757l-.269-1.488h-1.577l.088.802c.067.51.087 1.197.087 1.998v7.263h1.712V7.84c.464-.646 1.498-2.131 3.072-2.131 1.536 0 1.67.78 1.711 2.308.02.802.02 2.134.02 2.134.021 2.019-.066 4.355-.066 4.355h1.711s.046-3.022.046-4.684c0-.997.02-2-.067-3.003-.182-2.066-1.401-2.645-3.2-2.645m14.627 9.536c-.068-.517-.088-1.184-.088-1.985V0h-1.71v4.624c-.688-.33-1.248-.444-2.205-.444-3.132 0-5.113 1.958-5.113 5.358 0 3.13 1.893 5.244 4.292 5.244 1.334 0 2.135-.425 3.133-1.468a9.4 9.4 0 0 0 .202 1.198h1.577l-.088-.801zm-1.793-2.16h-.006c-.58.868-1.576 1.757-2.755 1.757-1.113 0-2.689-1.245-2.689-3.93 0-1.933 1.267-3.737 3.093-3.737 1.623 0 2.357.445 2.357 1.865v4.045zm12.552-2.295v.012-.012z"/><mask id="e8x4xf2k3b" fill="#fff"><use xlink:href="#ji9udnt14a"/></mask><path fill="#323232" d="M60.117 14.505h1.711V0h-1.711zm12.565-5.25v.012zm8.49-5.085-2.736 8.006-3.068-8.003h-1.826l4.045 10.447-.532 1.265c-.58 1.4-1.354 3.07-1.354 3.07h1.826s.734-1.845 1.488-3.979l3.848-10.8h-1.69" mask="url('#e8x4xf2k3b')"/></g></g></svg>