<?xml version="1.0" encoding="utf-8"?>
<!-- Generator: Adobe Illustrator 24.1.2, SVG Export Plug-In . SVG Version: 6.00 Build 0)  -->
<svg version="1.1" xmlns="http://www.w3.org/2000/svg" xmlns:xlink="http://www.w3.org/1999/xlink" x="0px" y="0px"
	 viewBox="0 0 30.4 28.8" style="enable-background:new 0 0 30.4 28.8;" xml:space="preserve">
<style type="text/css">
	.st0{display:none;}
	.st1{display:inline;fill:none;stroke:#545454;stroke-width:0.75;stroke-linecap:round;stroke-miterlimit:10;}
	.st2{fill:#FFFFFF;stroke:#545454;stroke-width:0.75;stroke-linecap:round;stroke-miterlimit:10;}
	.st3{fill:none;stroke:#545454;stroke-width:0.75;stroke-linecap:round;stroke-miterlimit:10;}
	.st4{fill:url(#SVGID_1_);}
	.st5{fill:none;stroke:#000000;stroke-width:0.75;stroke-linecap:round;stroke-miterlimit:10;}
	.st6{fill:#FFFFFF;}
	.st7{fill:#545454;}
	.st8{fill:none;stroke:#545454;stroke-width:0.5;stroke-linecap:round;stroke-miterlimit:10;}
</style>
<g id="Layer_3" class="st0">
	<path class="st1" d="M28,11.8c0.1-0.5,0.1-1,0.1-1.5c0-5.2-4.3-9.5-9.5-9.5c-4.7,0-8.7,3.5-9.4,8c-0.2,0-0.4,0-0.6,0
		c-4.1,0-7.5,2.9-7.5,6.5c0,3.6,3.3,6.4,7.4,6.5c0.7,0.6,1.6,1,2.6,1h10c0.2,0,0.4,0,0.6-0.1c0.3,0,0.6,0.1,0.9,0.1
		c4.1,0,7.5-2.9,7.5-6.5C30.1,14.5,29.3,12.9,28,11.8z"/>
</g>
<g id="Layer_5">
</g>
<g id="Layer_3_copy">
	<g>
		<linearGradient id="SVGID_1_" gradientUnits="userSpaceOnUse" x1="2.3105" y1="10.8636" x2="49.386" y2="10.8636">
			<stop  offset="0" style="stop-color:#CBE0F4;stop-opacity:0.5"/>
			<stop  offset="0.4339" style="stop-color:#CCE0F4"/>
			<stop  offset="0.4723" style="stop-color:#C3DCF2"/>
			<stop  offset="0.5363" style="stop-color:#A9D2EE"/>
			<stop  offset="0.6178" style="stop-color:#80C2E7"/>
			<stop  offset="0.7128" style="stop-color:#47ACDE"/>
			<stop  offset="0.7743" style="stop-color:#1E9CD7"/>
			<stop  offset="1" style="stop-color:#0075BE"/>
		</linearGradient>
		<path class="st4" d="M25.4,21.4c2.9-0.8,5-3.2,5-6c0-1-0.3-1.9-0.8-2.8c-0.3-0.5-0.7-0.8-1-1.3c-0.1-0.1-0.1-0.2-0.2-0.4
			c-0.1-0.4,0-0.9,0-1.4c0-5.1-4.1-9.2-9.2-9.2c-2.2,0-4.3,0.8-5.9,2.2c-0.9,0.8-1.6,1.7-2.1,2.8c-0.3,0.5-0.5,1.1-0.7,1.6
			c-0.2,0.7-0.1,1.2-0.9,1.2c-4,0-7.3,2.8-7.3,6.3c0,2.8,2.1,5.1,4.9,6"/>
		<path class="st3" d="M25.9,20.2c1.6-1.2,2.6-2.9,2.6-4.8c0-1-0.3-1.9-0.8-2.8c-0.3-0.5-0.7-0.8-1-1.3c-0.1-0.1-0.1-0.2-0.2-0.4
			c-0.1-0.4,0-0.9,0-1.4c0-5.1-4.1-9.2-9.2-9.2c-2.2,0-4.3,0.8-5.9,2.2c-0.9,0.8-1.6,1.7-2.1,2.8C9,5.8,8.8,6.4,8.6,6.9
			C8.3,7.6,8.4,8.1,7.6,8.1c-4,0-7.3,2.8-7.3,6.3c0,2.8,2.1,5.1,4.9,6"/>
	</g>
</g>
<g id="Layer_1">
	<g>
		<path class="st6" d="M6.5,25.5c-0.3,0-0.6-0.3-0.6-0.6V12.8c0-0.3,0.3-0.6,0.6-0.6h17.7c0.3,0,0.6,0.3,0.6,0.6v12.1
			c0,0.3-0.3,0.6-0.6,0.6H6.5z"/>
		<path class="st7" d="M24.2,12.5c0.1,0,0.3,0.1,0.3,0.3v12.1c0,0.1-0.1,0.3-0.3,0.3H6.5c-0.1,0-0.3-0.1-0.3-0.3V12.8
			c0-0.1,0.1-0.3,0.3-0.3H24.2 M24.2,11.8H6.5c-0.6,0-1,0.4-1,1v12.1c0,0.5,0.4,1,1,1h17.7c0.6,0,1-0.5,1-1V12.8
			C25.2,12.2,24.8,11.8,24.2,11.8L24.2,11.8z"/>
	</g>
</g>
<g id="Layer_2">
	<g>
		<line class="st2" x1="15.4" y1="25.8" x2="15.4" y2="28"/>
		<line class="st2" x1="13.3" y1="28.4" x2="17.5" y2="28.4"/>
	</g>
</g>
</svg>
