<svg id="dataset" xmlns="http://www.w3.org/2000/svg" viewBox="0 0 200 200"><path d="M177.19,197H31.13c-3.49,0-6.35-2.52-6.35-5.6l12.7-84c0-3.08,2.86-5.6,6.35-5.6H189.89c3.49,0,6.35,2.52,6.35,5.6l-12.7,84C183.54,194.48,180.68,197,177.19,197Z" style="fill:none;stroke:#2f2f2f;stroke-linejoin:round;stroke-width:6px"/><path d="M179.43,197H24.78c-3.7,0-6.72-2.52-6.72-5.6l-13.45-84c0-3.08,3-5.6,6.72-5.6H22.6" style="fill:none;stroke:#2f2f2f;stroke-linejoin:round;stroke-width:6px"/><line x1="91.22" y1="55.96" x2="162.89" y2="55.96" style="fill:none;stroke:#2f2f2f;stroke-linecap:round;stroke-linejoin:round;stroke-width:6px"/><line x1="136.01" y1="74.85" x2="162.89" y2="74.85" style="fill:none;stroke:#2f2f2f;stroke-linecap:round;stroke-linejoin:round;stroke-width:6px"/><path d="M39.24,102.61V46.3c0-3.9,3.76-7.1,8.36-7.1H56" style="fill:none;stroke:#2f2f2f;stroke-linejoin:round;stroke-width:6px"/><path d="M24.76,194.1a8.21,8.21,0,0,1-2.23-5.61V68.76a8.32,8.32,0,0,1,8.35-8.25h8.36" style="fill:none;stroke:#2f2f2f;stroke-linejoin:round;stroke-width:6px"/><path d="M56,98.18V32.93c0-4.36,4.48-7.93,10-7.93H171.35c5.48,0,10,3.57,10,7.93V98.64" style="fill:none;stroke:#2f2f2f;stroke-linejoin:round;stroke-width:6px"/></svg>