<svg id="measurement_technique" xmlns="http://www.w3.org/2000/svg" viewBox="0 0 193.41 192.99"><polygon points="172.96 190.99 2 190.99 2 35.22 172.96 190.99" style="fill:none;stroke:#2f2f2f;stroke-linecap:round;stroke-linejoin:round;stroke-width:6px"/><polygon points="82.26 153 34.77 153 34.77 109.73 82.26 153" style="fill:none;stroke:#2f2f2f;stroke-miterlimit:10;stroke-width:6px"/><line x1="33.35" y1="63.81" x2="24.18" y2="73.81" style="fill:none;stroke:#2f2f2f;stroke-linejoin:round;stroke-width:6px"/><line x1="54.72" y1="83.77" x2="45.55" y2="93.77" style="fill:none;stroke:#2f2f2f;stroke-linejoin:round;stroke-width:6px"/><line x1="42.12" y1="75.87" x2="36.77" y2="81.71" style="fill:none;stroke:#2f2f2f;stroke-linejoin:round;stroke-width:6px"/><line x1="76.08" y1="103.72" x2="66.91" y2="113.73" style="fill:none;stroke:#2f2f2f;stroke-linejoin:round;stroke-width:6px"/><line x1="63.49" y1="95.83" x2="58.14" y2="101.67" style="fill:none;stroke:#2f2f2f;stroke-linejoin:round;stroke-width:6px"/><line x1="97.45" y1="123.68" x2="88.28" y2="133.69" style="fill:none;stroke:#2f2f2f;stroke-linejoin:round;stroke-width:6px"/><line x1="84.85" y1="115.79" x2="79.5" y2="121.63" style="fill:none;stroke:#2f2f2f;stroke-linejoin:round;stroke-width:6px"/><line x1="118.81" y1="143.64" x2="109.64" y2="153.65" style="fill:none;stroke:#2f2f2f;stroke-linejoin:round;stroke-width:6px"/><line x1="106.22" y1="135.75" x2="100.87" y2="141.59" style="fill:none;stroke:#2f2f2f;stroke-linejoin:round;stroke-width:6px"/><line x1="140.18" y1="163.6" x2="131.01" y2="173.61" style="fill:none;stroke:#2f2f2f;stroke-linejoin:round;stroke-width:6px"/><line x1="127.58" y1="155.71" x2="122.23" y2="161.55" style="fill:none;stroke:#2f2f2f;stroke-linejoin:round;stroke-width:6px"/><rect x="15.41" y="64.56" width="193.76" height="34.19" rx="1" transform="translate(136.47 215.7) rotate(-137.5)" style="fill:none;stroke:#2f2f2f;stroke-linecap:round;stroke-miterlimit:10;stroke-width:6px"/><line x1="162.06" y1="152.16" x2="177.46" y2="135.35" style="fill:none;stroke:#2f2f2f;stroke-linejoin:round;stroke-width:6px"/><line x1="145.26" y1="136.76" x2="160.66" y2="119.95" style="fill:none;stroke:#2f2f2f;stroke-linejoin:round;stroke-width:6px"/><line x1="153.66" y1="144.46" x2="162.64" y2="134.66" style="fill:none;stroke:#2f2f2f;stroke-linejoin:round;stroke-width:6px"/><line x1="128.45" y1="121.36" x2="143.85" y2="104.55" style="fill:none;stroke:#2f2f2f;stroke-linejoin:round;stroke-width:6px"/><line x1="136.85" y1="129.06" x2="145.84" y2="119.26" style="fill:none;stroke:#2f2f2f;stroke-linejoin:round;stroke-width:6px"/><line x1="111.64" y1="105.96" x2="127.04" y2="89.15" style="fill:none;stroke:#2f2f2f;stroke-linejoin:round;stroke-width:6px"/><line x1="120.05" y1="113.66" x2="129.03" y2="103.86" style="fill:none;stroke:#2f2f2f;stroke-linejoin:round;stroke-width:6px"/><line x1="94.84" y1="90.56" x2="110.24" y2="73.75" style="fill:none;stroke:#2f2f2f;stroke-linejoin:round;stroke-width:6px"/><line x1="103.24" y1="98.26" x2="112.22" y2="88.46" style="fill:none;stroke:#2f2f2f;stroke-linejoin:round;stroke-width:6px"/><line x1="78.03" y1="75.16" x2="93.43" y2="58.35" style="fill:none;stroke:#2f2f2f;stroke-linejoin:round;stroke-width:6px"/><line x1="86.43" y1="82.86" x2="95.42" y2="73.06" style="fill:none;stroke:#2f2f2f;stroke-linejoin:round;stroke-width:6px"/><line x1="61.22" y1="59.76" x2="76.62" y2="42.95" style="fill:none;stroke:#2f2f2f;stroke-linejoin:round;stroke-width:6px"/><line x1="69.63" y1="67.46" x2="78.61" y2="57.66" style="fill:none;stroke:#2f2f2f;stroke-linejoin:round;stroke-width:6px"/><line x1="44.42" y1="44.36" x2="59.82" y2="27.55" style="fill:none;stroke:#2f2f2f;stroke-linejoin:round;stroke-width:6px"/><line x1="52.82" y1="52.06" x2="61.81" y2="42.26" style="fill:none;stroke:#2f2f2f;stroke-linejoin:round;stroke-width:6px"/><line x1="36.02" y1="36.66" x2="45" y2="26.86" style="fill:none;stroke:#2f2f2f;stroke-linejoin:round;stroke-width:6px"/></svg>