<svg id="repositories" xmlns="http://www.w3.org/2000/svg" viewBox="0 0 200 200"><path d="M4.73,84.27C4.78,90,22,94.29,43.08,94s38.2-5.21,38.15-10.89" style="fill:none;stroke:#2f2f2f;stroke-linejoin:round;stroke-width:6px"/><path d="M4.73,109.74c0,5.68,17.23,10,38.35,9.69s38.2-5.21,38.15-10.89" style="fill:none;stroke:#2f2f2f;stroke-linejoin:round;stroke-width:6px"/><path d="M4.48,60l.21,75.21c.06,5.68,17.29,10,38.5,9.69s38.34-5.21,38.29-10.9l-.22-75.06" style="fill:none;stroke:#2f2f2f;stroke-linejoin:round;stroke-width:6px"/><path d="M43,51.27c23.23,0,35.31,5.36,36.55,7.67C78.29,61.25,66.21,66.61,43,66.61S7.67,61.25,6.42,58.94C7.67,56.63,19.74,51.27,43,51.27m0-4c-22.43,0-40.6,5.22-40.6,11.67S20.55,70.61,43,70.61s40.6-5.22,40.6-11.67S65.4,47.27,43,47.27Z" style="fill:#2f2f2f"/><rect x="158.7" y="8" width="25.47" height="25.47" rx="1" style="fill:none;stroke:#2f2f2f;stroke-linecap:round;stroke-linejoin:round;stroke-width:6px"/><rect x="158.7" y="88.65" width="25.47" height="25.47" rx="1" style="fill:none;stroke:#2f2f2f;stroke-linecap:round;stroke-linejoin:round;stroke-width:6px"/><rect x="158.7" y="169.31" width="25.47" height="25.47" rx="1" style="fill:none;stroke:#2f2f2f;stroke-linecap:round;stroke-linejoin:round;stroke-width:6px"/><polyline points="43 30.29 43 16.49 143.05 16.49" style="fill:none;stroke:#2f2f2f;stroke-linecap:round;stroke-linejoin:round;stroke-width:6px"/><polyline points="43 168.25 43 182.04 143.05 182.04" style="fill:none;stroke:#2f2f2f;stroke-linecap:round;stroke-linejoin:round;stroke-width:6px"/><line x1="97.73" y1="98.28" x2="143.05" y2="98.28" style="fill:none;stroke:#2f2f2f;stroke-linecap:round;stroke-linejoin:round;stroke-width:6px"/></svg>