<svg id="tools" xmlns="http://www.w3.org/2000/svg" viewBox="0 0 200 200"><path d="M85,93.7,67.66,76c-.23-.23-.48-.44-.72-.65A31.83,31.83,0,0,0,25.7,35.1L45.28,55a4.73,4.73,0,0,1-.05,6.68L33.45,73.26a4.74,4.74,0,0,1-6.68-.05L7.19,53.32A31.84,31.84,0,0,0,46.82,95.19c.21.24.42.49.64.72l16.45,16.71Z" style="fill:none;stroke:#2f2f2f;stroke-linecap:round;stroke-linejoin:round;stroke-width:6px"/><path d="M153.78,163.53l-39-39.6L95.28,144.48l38.31,38.93a14.17,14.17,0,1,0,20.19-19.88Z" style="fill:none;stroke:#2f2f2f;stroke-linecap:round;stroke-linejoin:round;stroke-width:6px"/><path d="M95.3,32.84c44.89,8.31,25.46,41.56,25.46,41.56l13.52,13.74,3.41-2.24a12.4,12.4,0,0,1,16.81,17.22l13.39,13.75L197,88.46,183.3,74.89l-12.71.68.21-11.46L154.94,48,141,33.84s-22.61-16-48-1.08Z" style="fill:none;stroke:#2f2f2f;stroke-linecap:round;stroke-linejoin:round;stroke-width:6px"/><path d="M127.39,93.07l-10.81-11a2.47,2.47,0,0,0-3.35-.28L26.37,160.26c-4,3.76-1.08,13.28,2.68,17.3s13.23,7.46,17.25,3.7l80.81-84.6A2.79,2.79,0,0,0,127.39,93.07Z" style="fill:none;stroke:#2f2f2f;stroke-linecap:round;stroke-linejoin:round;stroke-width:6px"/></svg>