<?xml version="1.0" encoding="utf-8"?>
<!-- Generator: Adobe Illustrator 24.1.2, SVG Export Plug-In . SVG Version: 6.00 Build 0)  -->
<svg version="1.1" xmlns="http://www.w3.org/2000/svg" xmlns:xlink="http://www.w3.org/1999/xlink" x="0px" y="0px"
	 viewBox="0 0 260.84 30" style="enable-background:new 0 0 260.84 30;" xml:space="preserve">
<style type="text/css">
	.st0{display:none;}
	.st1{display:inline;}
	.st2{fill:#616365;}
	.st3{fill:none;stroke:#616365;stroke-width:0.5;stroke-miterlimit:10;}
	.st4{fill:#636569;}
	.st5{fill:#316094;}
	.st6{fill:#FFFFFF;}
	.st7{fill:none;stroke:#FFFFFF;stroke-width:0.5;stroke-miterlimit:10;}
	.st8{display:none;fill:#636569;}
</style>
<g id="nde_x5F_color" class="st0">
	<g class="st1">
		<g>
			<path class="st2" d="M172.5-44.07c0.12,0,0.47,0,1.05,0s1.25,0,2.02,0s1.55,0,2.33,0.01c0.78,0.01,1.43,0.01,1.95,0.03
				c2.98,0.07,5.41,0.6,7.29,1.6c1.88,1,3.26,2.39,4.14,4.18c0.88,1.79,1.32,3.91,1.32,6.36c0,2.55-0.46,4.75-1.39,6.6
				c-0.93,1.85-2.35,3.28-4.26,4.29s-4.33,1.51-7.27,1.51h-7.17V-44.07z M177.49-40.06v16.56h2.28c1.41,0,2.68-0.27,3.83-0.82
				s2.07-1.43,2.76-2.67c0.69-1.23,1.04-2.88,1.04-4.95c0-1.92-0.31-3.47-0.92-4.67c-0.61-1.2-1.48-2.07-2.62-2.63
				s-2.48-0.83-4.03-0.83H177.49z"/>
			<path class="st2" d="M201.45-19.15c-1.12,0-2.13-0.21-3.03-0.63c-0.9-0.42-1.6-1.03-2.13-1.83c-0.52-0.8-0.78-1.77-0.78-2.92
				c0-1.93,0.72-3.39,2.16-4.39c1.44-1,3.71-1.52,6.82-1.56l2.19-0.03v-1.05c0-0.8-0.24-1.43-0.71-1.86
				c-0.47-0.44-1.2-0.65-2.18-0.64c-0.73,0.01-1.41,0.18-2.07,0.51c-0.65,0.33-1.1,0.9-1.33,1.72h-4.13
				c0.07-1.27,0.44-2.31,1.1-3.14c0.67-0.82,1.58-1.43,2.73-1.84c1.15-0.4,2.46-0.6,3.92-0.6c1.8,0,3.25,0.22,4.33,0.67
				c1.09,0.45,1.88,1.09,2.36,1.92c0.49,0.83,0.73,1.82,0.73,2.97v12.36h-4.15l-0.41-3.03c-0.6,1.27-1.35,2.15-2.25,2.64
				C203.73-19.39,202.67-19.15,201.45-19.15z M203.11-22.41c0.45,0,0.89-0.08,1.32-0.25c0.42-0.16,0.8-0.38,1.14-0.66
				c0.33-0.28,0.6-0.59,0.81-0.94c0.2-0.35,0.31-0.71,0.31-1.09v-2.6l-1.79,0.03c-0.83,0.01-1.6,0.11-2.31,0.3
				c-0.71,0.19-1.29,0.49-1.73,0.91c-0.44,0.42-0.65,0.99-0.65,1.7c0,0.82,0.28,1.45,0.85,1.91
				C201.62-22.64,202.31-22.41,203.11-22.41z"/>
			<path class="st2" d="M225.77-33.62h-3.91l0.03,9.37c0,0.43,0.05,0.75,0.16,0.96c0.11,0.21,0.28,0.35,0.51,0.41
				s0.53,0.09,0.89,0.09h2.36v3.06c-0.23,0.1-0.58,0.2-1.06,0.29c-0.48,0.09-1.15,0.14-2.01,0.14c-1.54,0-2.73-0.2-3.58-0.59
				c-0.84-0.4-1.43-0.95-1.76-1.67c-0.33-0.71-0.49-1.54-0.49-2.48v-9.57h-2.86v-3.45h3.03l1.24-5.3h3.54v5.29h3.91V-33.62z"/>
			<path class="st2" d="M234.48-19.15c-1.12,0-2.13-0.21-3.03-0.63c-0.9-0.42-1.6-1.03-2.13-1.83c-0.52-0.8-0.78-1.77-0.78-2.92
				c0-1.93,0.72-3.39,2.16-4.39c1.44-1,3.71-1.52,6.82-1.56l2.19-0.03v-1.05c0-0.8-0.24-1.43-0.71-1.86
				c-0.47-0.44-1.2-0.65-2.18-0.64c-0.73,0.01-1.41,0.18-2.07,0.51c-0.65,0.33-1.1,0.9-1.33,1.72h-4.13
				c0.07-1.27,0.44-2.31,1.1-3.14c0.67-0.82,1.58-1.43,2.73-1.84c1.15-0.4,2.46-0.6,3.92-0.6c1.8,0,3.25,0.22,4.33,0.67
				c1.09,0.45,1.88,1.09,2.36,1.92c0.49,0.83,0.73,1.82,0.73,2.97v12.36h-4.15l-0.41-3.03c-0.6,1.27-1.35,2.15-2.25,2.64
				C236.76-19.39,235.7-19.15,234.48-19.15z M236.14-22.41c0.45,0,0.89-0.08,1.32-0.25c0.42-0.16,0.8-0.38,1.14-0.66
				c0.33-0.28,0.6-0.59,0.81-0.94c0.2-0.35,0.31-0.71,0.31-1.09v-2.6l-1.79,0.03c-0.83,0.01-1.6,0.11-2.31,0.3
				c-0.71,0.19-1.29,0.49-1.73,0.91c-0.44,0.42-0.65,0.99-0.65,1.7c0,0.82,0.28,1.45,0.85,1.91
				C234.65-22.64,235.34-22.41,236.14-22.41z"/>
			<path class="st2" d="M257.72-19.49v-24.58h16.88l-0.02,4.18H262.7v5.97h10.32v4.1h-10.35v6.1l12.1,0.02v4.22H257.72z"/>
			<path class="st2" d="M286.09-37.41c1.47,0,2.75,0.3,3.82,0.9c1.07,0.6,1.92,1.41,2.53,2.43c0.62,1.02,0.97,2.16,1.06,3.42h-4.13
				c-0.08-0.46-0.24-0.93-0.49-1.39c-0.25-0.46-0.6-0.84-1.05-1.14s-1.02-0.45-1.7-0.45c-1.16,0-2.09,0.44-2.81,1.33
				c-0.72,0.89-1.08,2.24-1.08,4.05c0,1.71,0.35,3.07,1.05,4.07c0.7,1,1.68,1.5,2.94,1.5c0.67,0,1.23-0.16,1.67-0.49
				c0.45-0.33,0.8-0.72,1.04-1.18s0.41-0.89,0.48-1.28h4.03c-0.08,1.21-0.43,2.31-1.05,3.29s-1.47,1.76-2.54,2.33
				c-1.07,0.57-2.33,0.86-3.77,0.86c-1.63,0-3.09-0.36-4.37-1.09c-1.28-0.73-2.29-1.76-3.02-3.12s-1.1-2.97-1.1-4.85
				c0-1.81,0.35-3.41,1.05-4.79c0.7-1.38,1.69-2.46,2.97-3.24C282.9-37.02,284.39-37.41,286.09-37.41z"/>
			<path class="st2" d="M304.47-19.15c-1.72,0-3.22-0.37-4.5-1.1c-1.28-0.74-2.26-1.78-2.96-3.13c-0.7-1.35-1.05-2.95-1.05-4.79
				c0-1.85,0.35-3.46,1.05-4.85c0.7-1.38,1.68-2.46,2.96-3.23c1.27-0.77,2.78-1.16,4.51-1.16c1.73,0,3.24,0.38,4.5,1.13
				c1.27,0.75,2.25,1.82,2.94,3.2s1.04,3.01,1.04,4.9c0,1.77-0.34,3.33-1.01,4.68c-0.67,1.35-1.64,2.42-2.91,3.19
				C307.78-19.54,306.26-19.15,304.47-19.15z M304.48-22.84c0.87,0,1.58-0.25,2.11-0.77c0.53-0.51,0.92-1.18,1.17-2.01
				c0.24-0.83,0.37-1.74,0.37-2.73c0-0.93-0.11-1.81-0.33-2.64c-0.22-0.83-0.6-1.5-1.13-2.01c-0.53-0.51-1.26-0.77-2.18-0.77
				c-0.87,0-1.58,0.24-2.12,0.72c-0.54,0.48-0.93,1.13-1.18,1.96c-0.25,0.82-0.37,1.73-0.37,2.73c0,0.92,0.11,1.8,0.34,2.64
				c0.23,0.84,0.61,1.53,1.14,2.06C302.82-23.11,303.55-22.84,304.48-22.84z"/>
			<path class="st2" d="M323.17-19.15c-1.22,0-2.4-0.2-3.54-0.6c-1.13-0.4-2.09-1.04-2.87-1.9c-0.78-0.87-1.28-1.99-1.5-3.37h4.3
				c0.15,0.62,0.42,1.12,0.81,1.48c0.39,0.36,0.84,0.62,1.33,0.77c0.5,0.15,0.97,0.23,1.43,0.23c0.95,0,1.72-0.15,2.3-0.45
				c0.58-0.3,0.88-0.76,0.88-1.39c0-0.48-0.17-0.86-0.52-1.14s-0.92-0.5-1.71-0.65l-3.09-0.65c-1.55-0.33-2.8-0.89-3.74-1.67
				c-0.94-0.79-1.42-1.91-1.45-3.36c0-1.05,0.28-2,0.84-2.84c0.56-0.84,1.39-1.5,2.49-1.99s2.45-0.73,4.05-0.73
				c2.17,0,3.9,0.48,5.19,1.43c1.3,0.95,1.96,2.3,1.98,4.03h-4.15c-0.13-0.68-0.46-1.2-1.01-1.57c-0.55-0.37-1.24-0.55-2.07-0.55
				c-0.86,0-1.57,0.15-2.13,0.46s-0.83,0.77-0.83,1.39c0,0.46,0.23,0.83,0.68,1.1c0.45,0.27,1.16,0.5,2.11,0.69l2.86,0.65
				c0.99,0.24,1.79,0.56,2.41,0.98c0.62,0.41,1.1,0.86,1.44,1.35c0.34,0.49,0.58,0.98,0.71,1.47c0.13,0.49,0.2,0.94,0.2,1.33
				c0,1.17-0.31,2.16-0.93,2.98c-0.62,0.82-1.49,1.45-2.6,1.88C325.91-19.37,324.63-19.15,323.17-19.15z"/>
			<path class="st2" d="M336.65-13.88c-1.2,0-2.29-0.2-3.28-0.6v-3.16l1.73,0.07c0.76,0.04,1.37,0.01,1.84-0.11
				c0.46-0.12,0.82-0.28,1.06-0.47c0.24-0.19,0.42-0.39,0.52-0.6c0.1-0.21,0.17-0.38,0.22-0.5l0.32-0.97l-6.83-16.85h4.91
				l4.22,11.46l4.27-11.46h4.84l-7.12,17.68c-0.61,1.5-1.26,2.64-1.94,3.43c-0.68,0.79-1.41,1.34-2.2,1.63
				C338.42-14.03,337.56-13.88,336.65-13.88z"/>
			<path class="st2" d="M359.46-19.15c-1.22,0-2.4-0.2-3.54-0.6c-1.13-0.4-2.09-1.04-2.87-1.9c-0.78-0.87-1.28-1.99-1.5-3.37h4.3
				c0.15,0.62,0.42,1.12,0.81,1.48c0.39,0.36,0.84,0.62,1.33,0.77c0.5,0.15,0.97,0.23,1.43,0.23c0.95,0,1.72-0.15,2.3-0.45
				c0.58-0.3,0.88-0.76,0.88-1.39c0-0.48-0.17-0.86-0.52-1.14s-0.92-0.5-1.71-0.65l-3.09-0.65c-1.55-0.33-2.8-0.89-3.74-1.67
				c-0.94-0.79-1.42-1.91-1.45-3.36c0-1.05,0.28-2,0.84-2.84c0.56-0.84,1.39-1.5,2.49-1.99s2.45-0.73,4.05-0.73
				c2.17,0,3.9,0.48,5.19,1.43c1.3,0.95,1.96,2.3,1.98,4.03h-4.15c-0.13-0.68-0.46-1.2-1.01-1.57c-0.55-0.37-1.24-0.55-2.07-0.55
				c-0.86,0-1.57,0.15-2.13,0.46s-0.83,0.77-0.83,1.39c0,0.46,0.23,0.83,0.68,1.1c0.45,0.27,1.16,0.5,2.11,0.69l2.86,0.65
				c0.99,0.24,1.79,0.56,2.41,0.98c0.62,0.41,1.1,0.86,1.44,1.35c0.34,0.49,0.58,0.98,0.71,1.47c0.13,0.49,0.2,0.94,0.2,1.33
				c0,1.17-0.31,2.16-0.93,2.98c-0.62,0.82-1.49,1.45-2.6,1.88C362.21-19.37,360.92-19.15,359.46-19.15z"/>
			<path class="st2" d="M380.83-33.62h-3.91l0.03,9.37c0,0.43,0.05,0.75,0.16,0.96c0.11,0.21,0.28,0.35,0.51,0.41
				c0.23,0.06,0.53,0.09,0.89,0.09h2.36v3.06c-0.23,0.1-0.58,0.2-1.06,0.29s-1.15,0.14-2.01,0.14c-1.54,0-2.73-0.2-3.58-0.59
				c-0.84-0.4-1.43-0.95-1.76-1.67c-0.33-0.71-0.49-1.54-0.49-2.48v-9.57h-2.86v-3.45h3.03l1.24-5.3h3.54v5.29h3.91V-33.62z"/>
			<path class="st2" d="M387.99-27.14c-0.01,0.9,0.13,1.67,0.42,2.34s0.72,1.17,1.28,1.53c0.56,0.36,1.24,0.54,2.03,0.54
				c0.85,0,1.59-0.18,2.24-0.54c0.64-0.36,1.08-0.96,1.33-1.79h4.47c-0.19,1.25-0.69,2.31-1.49,3.2c-0.8,0.88-1.76,1.56-2.9,2.02
				c-1.13,0.46-2.31,0.7-3.54,0.7c-1.73,0-3.26-0.37-4.58-1.1c-1.32-0.73-2.35-1.76-3.08-3.1c-0.74-1.34-1.11-2.91-1.11-4.73
				c0-1.76,0.33-3.34,1-4.75s1.64-2.53,2.92-3.35c1.27-0.82,2.81-1.23,4.6-1.23c1.79,0,3.3,0.38,4.51,1.13
				c1.22,0.75,2.14,1.8,2.75,3.15c0.62,1.34,0.93,2.89,0.93,4.65v1.34H387.99z M387.97-30.1h7.17c0-0.7-0.13-1.35-0.39-1.94
				s-0.65-1.05-1.18-1.39c-0.53-0.34-1.19-0.51-1.98-0.51c-0.77,0-1.42,0.18-1.96,0.55c-0.54,0.37-0.95,0.85-1.23,1.44
				C388.11-31.36,387.97-30.74,387.97-30.1z"/>
			<path class="st2" d="M403.23-19.49v-17.58h4.86v2.48c0.53-0.77,1.25-1.43,2.15-1.99c0.9-0.56,2.04-0.83,3.41-0.83
				c0.6,0,1.21,0.11,1.84,0.32c0.62,0.22,1.21,0.53,1.76,0.94s0.99,0.93,1.33,1.56c0.57-0.8,1.31-1.48,2.24-2.01
				c0.92-0.54,1.95-0.81,3.08-0.81c0.66,0,1.32,0.11,2,0.32c0.67,0.22,1.29,0.57,1.86,1.05c0.57,0.49,1.02,1.14,1.37,1.95
				c0.35,0.81,0.52,1.81,0.52,3v11.59h-4.96v-10.98c0-0.7-0.14-1.27-0.42-1.69c-0.28-0.43-0.63-0.73-1.05-0.92s-0.88-0.28-1.35-0.28
				c-0.44,0-0.89,0.09-1.34,0.26s-0.84,0.46-1.16,0.84c-0.32,0.39-0.48,0.89-0.48,1.51v11.25h-4.95v-11.42
				c0-0.53-0.14-0.98-0.42-1.34c-0.28-0.36-0.64-0.64-1.06-0.82s-0.86-0.28-1.3-0.28c-0.45,0-0.91,0.09-1.36,0.28
				c-0.45,0.19-0.83,0.48-1.14,0.87s-0.46,0.88-0.46,1.47v11.25H403.23z"/>
		</g>
		<line class="st3" x1="160.23" y1="-49.29" x2="160.23" y2="-13.29"/>
		<g>
			<path class="st4" d="M40.25-39.11v16.09h-2.82h0v-7.26h-7.32v7.26h-2.82v-16.09h2.82v6.4h7.32v-6.4h0H40.25z M24.47-23.02
				L24.47-23.02h-2.82v-16.09h2.82V-23.02z M18.88-23.02L18.88-23.02H15.9L8.58-34.85H8.51v11.83H5.83l0,0v-16.09l0,0H8.8h0
				l7.35,11.86h0.05v-11.86h2.68V-23.02z M50.18-31.12l-9.95-17.98H3.56c-1.83,0-3.31,1.49-3.31,3.32v29.37
				c0,1.83,1.48,3.31,3.31,3.31h36.63L50.18-31.12z"/>
			<path class="st4" d="M42.69-13.11l9.98-18.02l-9.94-17.98h2.49c1.36,0,3.02,0.98,3.68,2.17l8.74,15.82l-8.78,15.85
				c-0.66,1.19-2.31,2.17-3.68,2.17H42.69z"/>
			<path class="st5" d="M42.69-13.11l9.98-18.02l-9.94-17.98h2.49c1.36,0,3.02,0.98,3.68,2.17l8.74,15.82l-8.77,15.85
				c-0.66,1.19-2.32,2.17-3.68,2.17H42.69z"/>
			<path class="st4" d="M143.54-16.2c0.02,1.22,0.99,1.8,2.29,1.8c1.07,0,2.31-0.45,2.31-1.68c0-1.02-0.84-1.32-1.67-1.51
				c-0.84-0.19-1.68-0.27-1.68-0.83c0-0.45,0.61-0.53,0.94-0.53c0.5,0,0.95,0.15,1.05,0.69h1.19c-0.14-1.15-1.1-1.59-2.16-1.59
				c-0.94,0-2.16,0.35-2.16,1.48c0,1.05,0.82,1.35,1.66,1.53c0.83,0.19,1.66,0.26,1.69,0.86c0.03,0.59-0.72,0.68-1.15,0.68
				c-0.61,0-1.11-0.24-1.17-0.9H143.54z M139.33-17.58c0.03-0.77,0.57-1.37,1.36-1.37c0.77,0,1.26,0.65,1.3,1.37H139.33z
				 M143.13-16.83c0.19-1.55-0.81-3.02-2.44-3.02c-1.54,0-2.5,1.26-2.5,2.73c0,1.59,0.91,2.72,2.53,2.72c1.13,0,2.09-0.63,2.34-1.76
				h-1.08c-0.2,0.57-0.6,0.86-1.26,0.86c-0.95,0-1.39-0.72-1.39-1.53H143.13z M133.15-16.2c0.02,1.22,0.99,1.8,2.29,1.8
				c1.07,0,2.31-0.45,2.31-1.68c0-1.02-0.84-1.32-1.67-1.51c-0.84-0.19-1.68-0.27-1.68-0.83c0-0.45,0.61-0.53,0.94-0.53
				c0.5,0,0.95,0.15,1.05,0.69h1.19c-0.14-1.15-1.1-1.59-2.16-1.59c-0.94,0-2.16,0.35-2.16,1.48c0,1.05,0.82,1.35,1.66,1.53
				c0.83,0.19,1.66,0.26,1.69,0.86c0.03,0.59-0.72,0.68-1.15,0.68c-0.61,0-1.11-0.24-1.17-0.9H133.15z M132.38-18.35
				c0-1.09-1.06-1.5-2.07-1.5c-1.14,0-2.27,0.39-2.35,1.72h1.14c0.05-0.56,0.5-0.82,1.14-0.82c0.46,0,1.07,0.11,1.07,0.7
				c0,0.67-0.73,0.58-1.55,0.73c-0.96,0.11-1.99,0.32-1.99,1.61c0,1.01,0.84,1.51,1.77,1.51c0.61,0,1.34-0.19,1.79-0.63
				c0.09,0.47,0.42,0.63,0.88,0.63c0.19,0,0.55-0.07,0.72-0.13v-0.79c-0.12,0.02-0.21,0.02-0.28,0.02c-0.21,0-0.27-0.11-0.27-0.39
				V-18.35z M131.24-16.28c0,0.72-0.78,0.98-1.28,0.98c-0.4,0-1.05-0.15-1.05-0.66c0-0.6,0.44-0.78,0.93-0.86
				c0.5-0.09,1.05-0.08,1.4-0.31V-16.28z M123.56-17.58c0.03-0.77,0.57-1.37,1.36-1.37c0.77,0,1.26,0.65,1.3,1.37H123.56z
				 M127.36-16.83c0.19-1.55-0.81-3.02-2.44-3.02c-1.54,0-2.5,1.26-2.5,2.73c0,1.59,0.91,2.72,2.53,2.72c1.13,0,2.09-0.63,2.34-1.76
				h-1.08c-0.2,0.57-0.6,0.86-1.26,0.86c-0.95,0-1.39-0.72-1.39-1.53H127.36z M117.38-16.2c0.02,1.22,0.99,1.8,2.29,1.8
				c1.07,0,2.31-0.45,2.31-1.68c0-1.02-0.84-1.32-1.67-1.51c-0.84-0.19-1.68-0.27-1.68-0.83c0-0.45,0.61-0.53,0.94-0.53
				c0.5,0,0.95,0.15,1.05,0.69h1.19c-0.14-1.15-1.1-1.59-2.16-1.59c-0.94,0-2.16,0.35-2.16,1.48c0,1.05,0.82,1.35,1.66,1.53
				c0.83,0.19,1.66,0.26,1.69,0.86c0.03,0.59-0.72,0.68-1.15,0.68c-0.61,0-1.11-0.24-1.17-0.9H117.38z M115.46-20.61h1.14v-1.08
				h-1.14V-20.61z M115.46-14.54h1.14v-5.17h-1.14V-14.54z M108.55-14.54h2.96c2.2,0,3.15-1.6,3.15-3.57c0-1.97-0.95-3.57-3.15-3.57
				h-2.96V-14.54z M109.8-20.67h1.23c1.96,0,2.38,1.12,2.38,2.55c0,1.43-0.42,2.55-2.38,2.55h-1.23V-20.67z M100.5-16.2
				c0.02,1.22,0.99,1.8,2.29,1.8c1.07,0,2.31-0.45,2.31-1.68c0-1.02-0.84-1.32-1.67-1.51c-0.84-0.19-1.68-0.27-1.68-0.83
				c0-0.45,0.61-0.53,0.94-0.53c0.5,0,0.95,0.15,1.05,0.69h1.19c-0.14-1.15-1.1-1.59-2.16-1.59c-0.94,0-2.16,0.35-2.16,1.48
				c0,1.05,0.82,1.35,1.66,1.53c0.83,0.19,1.66,0.26,1.69,0.86c0.03,0.59-0.72,0.68-1.15,0.68c-0.61,0-1.11-0.24-1.17-0.9H100.5z
				 M99.76-19.71h-1.14v3c0,0.8-0.32,1.41-1.27,1.41c-0.62,0-0.99-0.33-0.99-1.24v-3.17h-1.14v3.28c0,1.35,0.58,2.03,1.93,2.03
				c0.57,0,1.19-0.34,1.47-0.86h0.02v0.72h1.12V-19.71z M91.84-14.4c1.66,0,2.61-1.14,2.61-2.73c0-1.58-0.95-2.72-2.61-2.72
				c-1.66,0-2.61,1.14-2.61,2.72C89.23-15.54,90.17-14.4,91.84-14.4 M91.84-15.3c-1.02,0-1.47-0.93-1.47-1.83
				c0-0.89,0.45-1.82,1.47-1.82c1.02,0,1.47,0.93,1.47,1.82C93.31-16.23,92.85-15.3,91.84-15.3 M87.27-20.61h1.14v-1.08h-1.14
				V-20.61z M87.27-14.54h1.14v-5.17h-1.14V-14.54z M83.56-18.86h0.86v3.05c0.02,0.86,0.24,1.32,1.43,1.32
				c0.25,0,0.49-0.04,0.74-0.06v-0.88c-0.16,0.04-0.32,0.04-0.48,0.04c-0.51,0-0.55-0.24-0.55-0.71v-2.76h1.03v-0.85h-1.03v-1.55
				h-1.14v1.55h-0.86V-18.86z M83.33-17.98c-0.11-1.27-1.13-1.87-2.33-1.87c-1.7,0-2.55,1.22-2.55,2.78c0,1.52,0.89,2.67,2.51,2.67
				c1.33,0,2.16-0.74,2.37-2.08h-1.14c-0.11,0.74-0.57,1.18-1.23,1.18c-0.99,0-1.37-0.91-1.37-1.77c0-1.57,0.83-1.88,1.42-1.88
				c0.63,0,1.09,0.34,1.18,0.97H83.33z M74.21-17.58c0.03-0.77,0.57-1.37,1.36-1.37c0.77,0,1.26,0.65,1.3,1.37H74.21z M78.01-16.83
				c0.19-1.55-0.81-3.02-2.44-3.02c-1.54,0-2.5,1.26-2.5,2.73c0,1.59,0.91,2.72,2.53,2.72c1.13,0,2.09-0.63,2.34-1.76h-1.08
				c-0.2,0.57-0.6,0.86-1.26,0.86c-0.95,0-1.39-0.72-1.39-1.53H78.01z M69.84-18.86h0.85v4.32h1.14v-4.32h0.97v-0.85h-0.97v-0.53
				c0-0.43,0.25-0.54,0.56-0.54c0.23,0,0.38,0.02,0.53,0.06v-0.89c-0.18-0.05-0.44-0.07-0.8-0.07c-0.74,0-1.43,0.22-1.43,1.54v0.43
				h-0.85V-18.86z M64.79-14.54h1.14v-3.05c0-0.76,0.49-1.36,1.25-1.36c0.67,0,0.99,0.35,1.01,1.16v3.25h1.14v-3.55
				c0-1.16-0.71-1.76-1.83-1.76c-0.68,0-1.27,0.35-1.61,0.92l-0.02-0.02v-0.76h-1.08V-14.54z M62.35-14.54h1.25v-7.14h-1.25V-14.54z
				"/>
			<path class="st4" d="M111.04-34.35h-1.14v2.64h-0.02c-0.35-0.57-1.07-0.81-1.72-0.81c-1.13,0-2.24,0.82-2.24,2.69
				c0,1.55,0.79,2.76,2.42,2.76c0.65,0,1.3-0.25,1.6-0.84h0.02v0.7h1.08V-34.35z M107.06-29.74c0-0.93,0.38-1.88,1.45-1.88
				c0.88,0,1.43,0.68,1.43,1.82c0,0.9-0.43,1.83-1.45,1.83C107.5-27.97,107.06-28.85,107.06-29.74 M100.61-27.21h1.14v-3.05
				c0-0.76,0.49-1.36,1.25-1.36c0.67,0,0.99,0.35,1.01,1.16v3.25h1.14v-3.55c0-1.16-0.71-1.76-1.83-1.76
				c-0.68,0-1.27,0.35-1.61,0.92l-0.02-0.02v-0.76h-1.08V-27.21z M99.56-31.02c0-1.09-1.06-1.5-2.07-1.5
				c-1.14,0-2.27,0.39-2.35,1.72h1.14c0.05-0.56,0.5-0.82,1.14-0.82c0.46,0,1.07,0.11,1.07,0.7c0,0.67-0.73,0.58-1.55,0.73
				c-0.96,0.11-1.99,0.32-1.99,1.61c0,1.01,0.84,1.51,1.77,1.51c0.61,0,1.34-0.19,1.79-0.63c0.09,0.47,0.42,0.63,0.88,0.63
				c0.19,0,0.55-0.07,0.72-0.13v-0.79c-0.12,0.02-0.21,0.02-0.28,0.02c-0.21,0-0.27-0.11-0.27-0.39V-31.02z M98.42-28.95
				c0,0.72-0.78,0.98-1.28,0.98c-0.4,0-1.05-0.15-1.05-0.66c0-0.6,0.44-0.78,0.93-0.86c0.5-0.09,1.05-0.08,1.4-0.31V-28.95z
				 M89.01-27.23l-0.13,0.4c-0.14,0.44-0.27,0.72-0.8,0.72c-0.18,0-0.36-0.04-0.54-0.07v0.96c0.26,0.04,0.52,0.06,0.79,0.06
				c1.19,0,1.46-0.84,1.83-1.77l2.01-5.45h-1.19l-1.31,3.86h-0.02l-1.35-3.86h-1.25L89.01-27.23z M86.64-32.38H85.5v0.71h-0.02
				c-0.29-0.58-0.88-0.85-1.53-0.85c-1.47,0-2.34,1.2-2.34,2.59c0,1.48,0.68,2.72,2.32,2.72c0.64,0,1.23-0.34,1.55-0.91h0.02v0.79
				c0,0.85-0.41,1.32-1.33,1.32c-0.58,0-1.1-0.11-1.24-0.76h-1.14c0.1,1.21,1.27,1.61,2.31,1.61c1.63,0,2.54-0.77,2.54-2.32V-32.38z
				 M84.11-28.11c-0.95,0-1.36-0.86-1.36-1.71c0-0.86,0.35-1.8,1.36-1.8c0.99,0,1.39,0.82,1.39,1.71
				C85.5-29.03,85.12-28.11,84.11-28.11 M78.52-27.21h1.14v-2.46c0-1.14,0.62-1.77,1.4-1.77c0.16,0,0.33,0.03,0.49,0.05v-1.1
				c-0.1-0.01-0.17-0.03-0.43-0.03c-0.7,0-1.38,0.59-1.51,1.14h-0.02v-1h-1.07V-27.21z M74.03-30.25c0.03-0.77,0.57-1.37,1.36-1.37
				c0.77,0,1.26,0.65,1.3,1.37H74.03z M77.83-29.5c0.19-1.55-0.81-3.02-2.44-3.02c-1.54,0-2.5,1.26-2.5,2.73
				c0,1.59,0.91,2.72,2.53,2.72c1.13,0,2.09-0.63,2.34-1.76h-1.08c-0.2,0.57-0.6,0.86-1.26,0.86c-0.95,0-1.39-0.72-1.39-1.53H77.83z
				 M70.94-27.21h1.14v-7.14h-1.14V-27.21z M68.71-27.21h1.14v-7.14h-1.14V-27.21z M61.52-27.21h1.29l0.67-1.89h2.85L67-27.21h1.34
				l-2.75-7.14h-1.33L61.52-27.21z M64.9-33.12h0.03L66-30.05h-2.18L64.9-33.12z"/>
			<path class="st4" d="M145.15-44.2H146v4.32h1.14v-4.32h0.97v-0.85h-0.97v-0.53c0-0.43,0.25-0.54,0.56-0.54
				c0.23,0,0.38,0.02,0.53,0.06v-0.89c-0.18-0.05-0.44-0.07-0.8-0.07c-0.74,0-1.43,0.22-1.43,1.54v0.43h-0.85V-44.2z M142.28-39.74
				c1.66,0,2.61-1.14,2.61-2.73c0-1.58-0.95-2.72-2.61-2.72c-1.66,0-2.61,1.14-2.61,2.72C139.67-40.88,140.62-39.74,142.28-39.74
				 M142.28-40.64c-1.02,0-1.47-0.93-1.47-1.83c0-0.89,0.45-1.82,1.47-1.82c1.02,0,1.47,0.93,1.47,1.82
				C143.75-41.57,143.3-40.64,142.28-40.64 M132.82-42.92c0.03-0.77,0.57-1.37,1.36-1.37c0.77,0,1.26,0.65,1.3,1.37H132.82z
				 M136.62-42.17c0.19-1.55-0.81-3.02-2.44-3.02c-1.54,0-2.5,1.26-2.5,2.73c0,1.59,0.91,2.72,2.53,2.72c1.13,0,2.09-0.63,2.34-1.76
				h-1.08c-0.2,0.57-0.6,0.86-1.26,0.86c-0.95,0-1.39-0.72-1.39-1.53H136.62z M128.26-44.2h0.86v3.05c0.02,0.86,0.24,1.32,1.43,1.32
				c0.25,0,0.49-0.04,0.74-0.06v-0.88c-0.16,0.04-0.32,0.04-0.48,0.04c-0.51,0-0.55-0.24-0.55-0.71v-2.76h1.03v-0.85h-1.03v-1.55
				h-1.14v1.55h-0.86V-44.2z M127.76-45.05h-1.14v3c0,0.8-0.32,1.41-1.27,1.41c-0.62,0-0.99-0.33-0.99-1.24v-3.17h-1.14v3.28
				c0,1.35,0.58,2.03,1.93,2.03c0.57,0,1.19-0.34,1.47-0.86h0.02v0.72h1.12V-45.05z M119.55-44.2h0.86v3.05
				c0.02,0.86,0.24,1.32,1.43,1.32c0.25,0,0.49-0.04,0.74-0.06v-0.88c-0.16,0.04-0.32,0.04-0.48,0.04c-0.51,0-0.55-0.24-0.55-0.71
				v-2.76h1.03v-0.85h-1.03v-1.55h-1.14v1.55h-0.86V-44.2z M117.87-45.94h1.14v-1.08h-1.14V-45.94z M117.87-39.88h1.14v-5.17h-1.14
				V-39.88z M114.17-44.2h0.86v3.05c0.02,0.86,0.24,1.32,1.43,1.32c0.25,0,0.49-0.04,0.74-0.06v-0.88
				c-0.16,0.04-0.32,0.04-0.48,0.04c-0.51,0-0.55-0.24-0.55-0.71v-2.76h1.03v-0.85h-1.03v-1.55h-1.14v1.55h-0.86V-44.2z
				 M109.4-41.54c0.02,1.22,0.99,1.8,2.29,1.8c1.07,0,2.31-0.45,2.31-1.68c0-1.02-0.84-1.32-1.67-1.51
				c-0.84-0.19-1.68-0.27-1.68-0.83c0-0.45,0.61-0.53,0.94-0.53c0.5,0,0.95,0.15,1.05,0.69h1.19c-0.14-1.15-1.1-1.59-2.16-1.59
				c-0.94,0-2.16,0.35-2.16,1.48c0,1.05,0.82,1.35,1.66,1.53c0.83,0.19,1.66,0.26,1.69,0.86c0.03,0.59-0.72,0.68-1.15,0.68
				c-0.61,0-1.11-0.24-1.17-0.9H109.4z M104.12-39.88h1.14v-3.05c0-0.76,0.49-1.36,1.25-1.36c0.67,0,0.99,0.35,1.01,1.16v3.25h1.14
				v-3.55c0-1.16-0.71-1.76-1.83-1.76c-0.68,0-1.27,0.35-1.61,0.92l-0.02-0.02v-0.76h-1.08V-39.88z M101.68-39.88h1.25v-7.14h-1.25
				V-39.88z M96.72-39.88h1.14v-7.14h-1.14V-39.88z M95.63-43.69c0-1.09-1.06-1.5-2.07-1.5c-1.14,0-2.27,0.39-2.35,1.72h1.14
				c0.05-0.56,0.5-0.82,1.14-0.82c0.46,0,1.07,0.11,1.07,0.7c0,0.67-0.73,0.58-1.55,0.73c-0.96,0.11-1.99,0.32-1.99,1.61
				c0,1.01,0.84,1.51,1.77,1.51c0.61,0,1.34-0.19,1.79-0.63c0.09,0.47,0.42,0.63,0.88,0.63c0.19,0,0.55-0.07,0.72-0.13v-0.79
				c-0.12,0.02-0.21,0.02-0.28,0.02c-0.21,0-0.27-0.11-0.27-0.39V-43.69z M94.5-41.62c0,0.72-0.78,0.98-1.28,0.98
				c-0.4,0-1.05-0.15-1.05-0.66c0-0.6,0.44-0.78,0.93-0.86c0.5-0.09,1.05-0.08,1.4-0.31V-41.62z M85.74-39.88h1.14v-3.05
				c0-0.76,0.49-1.36,1.25-1.36c0.67,0,0.99,0.35,1.01,1.16v3.25h1.14v-3.55c0-1.16-0.71-1.76-1.83-1.76
				c-0.68,0-1.27,0.35-1.61,0.92l-0.02-0.02v-0.76h-1.08V-39.88z M82.36-39.74c1.66,0,2.61-1.14,2.61-2.73
				c0-1.58-0.95-2.72-2.61-2.72c-1.66,0-2.61,1.14-2.61,2.72C79.75-40.88,80.7-39.74,82.36-39.74 M82.36-40.64
				c-1.02,0-1.47-0.93-1.47-1.83c0-0.89,0.45-1.82,1.47-1.82c1.02,0,1.47,0.93,1.47,1.82C83.83-41.57,83.38-40.64,82.36-40.64
				 M77.79-45.94h1.14v-1.08h-1.14V-45.94z M77.79-39.88h1.14v-5.17h-1.14V-39.88z M74.09-44.2h0.86v3.05
				c0.02,0.86,0.24,1.32,1.43,1.32c0.25,0,0.49-0.04,0.74-0.06v-0.88c-0.16,0.04-0.32,0.04-0.48,0.04c-0.51,0-0.55-0.24-0.55-0.71
				v-2.76h1.03v-0.85h-1.03v-1.55h-1.14v1.55h-0.86V-44.2z M73.56-43.69c0-1.09-1.06-1.5-2.07-1.5c-1.14,0-2.27,0.39-2.35,1.72h1.14
				c0.05-0.56,0.5-0.82,1.14-0.82c0.46,0,1.07,0.11,1.07,0.7c0,0.67-0.73,0.58-1.55,0.73c-0.96,0.11-1.99,0.32-1.99,1.61
				c0,1.01,0.84,1.51,1.77,1.51c0.61,0,1.34-0.19,1.79-0.63c0.09,0.47,0.42,0.63,0.88,0.63c0.19,0,0.55-0.07,0.72-0.13v-0.79
				c-0.12,0.02-0.21,0.02-0.28,0.02c-0.21,0-0.27-0.11-0.27-0.39V-43.69z M72.42-41.62c0,0.72-0.78,0.98-1.28,0.98
				c-0.4,0-1.05-0.15-1.05-0.66c0-0.6,0.44-0.78,0.93-0.86c0.5-0.09,1.05-0.08,1.4-0.31V-41.62z M62.3-39.88h1.19v-5.25h0.03
				l3.25,5.25h1.32v-7.14H66.9v5.26h-0.02l-3.26-5.26H62.3V-39.88z"/>
		</g>
	</g>
</g>
<g id="nde_x5F_white" class="st0">
	<g class="st1">
		<g>
			<path class="st6" d="M172.5-44.07c0.12,0,0.47,0,1.05,0s1.25,0,2.02,0s1.55,0,2.33,0.01c0.78,0.01,1.43,0.01,1.95,0.03
				c2.98,0.07,5.41,0.6,7.29,1.6c1.88,1,3.26,2.39,4.14,4.18c0.88,1.79,1.32,3.91,1.32,6.36c0,2.55-0.46,4.75-1.39,6.6
				c-0.93,1.85-2.35,3.28-4.26,4.29s-4.33,1.51-7.27,1.51h-7.17V-44.07z M177.49-40.06v16.56h2.28c1.41,0,2.68-0.27,3.83-0.82
				s2.07-1.43,2.76-2.67c0.69-1.23,1.04-2.88,1.04-4.95c0-1.92-0.31-3.47-0.92-4.67c-0.61-1.2-1.48-2.07-2.62-2.63
				s-2.48-0.83-4.03-0.83H177.49z"/>
			<path class="st6" d="M201.45-19.15c-1.12,0-2.13-0.21-3.03-0.63c-0.9-0.42-1.6-1.03-2.13-1.83c-0.52-0.8-0.78-1.77-0.78-2.92
				c0-1.93,0.72-3.39,2.16-4.39c1.44-1,3.71-1.52,6.82-1.56l2.19-0.03v-1.05c0-0.8-0.24-1.43-0.71-1.86
				c-0.47-0.44-1.2-0.65-2.18-0.64c-0.73,0.01-1.41,0.18-2.07,0.51c-0.65,0.33-1.1,0.9-1.33,1.72h-4.13
				c0.07-1.27,0.44-2.31,1.1-3.14c0.67-0.82,1.58-1.43,2.73-1.84c1.15-0.4,2.46-0.6,3.92-0.6c1.8,0,3.25,0.22,4.33,0.67
				c1.09,0.45,1.88,1.09,2.36,1.92c0.49,0.83,0.73,1.82,0.73,2.97v12.36h-4.15l-0.41-3.03c-0.6,1.27-1.35,2.15-2.25,2.64
				C203.73-19.39,202.67-19.15,201.45-19.15z M203.11-22.41c0.45,0,0.89-0.08,1.32-0.25c0.42-0.16,0.8-0.38,1.14-0.66
				c0.33-0.28,0.6-0.59,0.81-0.94c0.2-0.35,0.31-0.71,0.31-1.09v-2.6l-1.79,0.03c-0.83,0.01-1.6,0.11-2.31,0.3
				c-0.71,0.19-1.29,0.49-1.73,0.91c-0.44,0.42-0.65,0.99-0.65,1.7c0,0.82,0.28,1.45,0.85,1.91
				C201.62-22.64,202.31-22.41,203.11-22.41z"/>
			<path class="st6" d="M225.77-33.62h-3.91l0.03,9.37c0,0.43,0.05,0.75,0.16,0.96c0.11,0.21,0.28,0.35,0.51,0.41
				s0.53,0.09,0.89,0.09h2.36v3.06c-0.23,0.1-0.58,0.2-1.06,0.29c-0.48,0.09-1.15,0.14-2.01,0.14c-1.54,0-2.73-0.2-3.58-0.59
				c-0.84-0.4-1.43-0.95-1.76-1.67c-0.33-0.71-0.49-1.54-0.49-2.48v-9.57h-2.86v-3.45h3.03l1.24-5.3h3.54v5.29h3.91V-33.62z"/>
			<path class="st6" d="M234.48-19.15c-1.12,0-2.13-0.21-3.03-0.63c-0.9-0.42-1.6-1.03-2.13-1.83c-0.52-0.8-0.78-1.77-0.78-2.92
				c0-1.93,0.72-3.39,2.16-4.39c1.44-1,3.71-1.52,6.82-1.56l2.19-0.03v-1.05c0-0.8-0.24-1.43-0.71-1.86
				c-0.47-0.44-1.2-0.65-2.18-0.64c-0.73,0.01-1.41,0.18-2.07,0.51c-0.65,0.33-1.1,0.9-1.33,1.72h-4.13
				c0.07-1.27,0.44-2.31,1.1-3.14c0.67-0.82,1.58-1.43,2.73-1.84c1.15-0.4,2.46-0.6,3.92-0.6c1.8,0,3.25,0.22,4.33,0.67
				c1.09,0.45,1.88,1.09,2.36,1.92c0.49,0.83,0.73,1.82,0.73,2.97v12.36h-4.15l-0.41-3.03c-0.6,1.27-1.35,2.15-2.25,2.64
				C236.76-19.39,235.7-19.15,234.48-19.15z M236.14-22.41c0.45,0,0.89-0.08,1.32-0.25c0.42-0.16,0.8-0.38,1.14-0.66
				c0.33-0.28,0.6-0.59,0.81-0.94c0.2-0.35,0.31-0.71,0.31-1.09v-2.6l-1.79,0.03c-0.83,0.01-1.6,0.11-2.31,0.3
				c-0.71,0.19-1.29,0.49-1.73,0.91c-0.44,0.42-0.65,0.99-0.65,1.7c0,0.82,0.28,1.45,0.85,1.91
				C234.65-22.64,235.34-22.41,236.14-22.41z"/>
			<path class="st6" d="M257.72-19.49v-24.58h16.88l-0.02,4.18H262.7v5.97h10.32v4.1h-10.35v6.1l12.1,0.02v4.22H257.72z"/>
			<path class="st6" d="M286.09-37.41c1.47,0,2.75,0.3,3.82,0.9c1.07,0.6,1.92,1.41,2.53,2.43c0.62,1.02,0.97,2.16,1.06,3.42h-4.13
				c-0.08-0.46-0.24-0.93-0.49-1.39c-0.25-0.46-0.6-0.84-1.05-1.14s-1.02-0.45-1.7-0.45c-1.16,0-2.09,0.44-2.81,1.33
				c-0.72,0.89-1.08,2.24-1.08,4.05c0,1.71,0.35,3.07,1.05,4.07c0.7,1,1.68,1.5,2.94,1.5c0.67,0,1.23-0.16,1.67-0.49
				c0.45-0.33,0.8-0.72,1.04-1.18s0.41-0.89,0.48-1.28h4.03c-0.08,1.21-0.43,2.31-1.05,3.29s-1.47,1.76-2.54,2.33
				c-1.07,0.57-2.33,0.86-3.77,0.86c-1.63,0-3.09-0.36-4.37-1.09c-1.28-0.73-2.29-1.76-3.02-3.12s-1.1-2.97-1.1-4.85
				c0-1.81,0.35-3.41,1.05-4.79c0.7-1.38,1.69-2.46,2.97-3.24C282.9-37.02,284.39-37.41,286.09-37.41z"/>
			<path class="st6" d="M304.47-19.15c-1.72,0-3.22-0.37-4.5-1.1c-1.28-0.74-2.26-1.78-2.96-3.13c-0.7-1.35-1.05-2.95-1.05-4.79
				c0-1.85,0.35-3.46,1.05-4.85c0.7-1.38,1.68-2.46,2.96-3.23c1.27-0.77,2.78-1.16,4.51-1.16c1.73,0,3.24,0.38,4.5,1.13
				c1.27,0.75,2.25,1.82,2.94,3.2s1.04,3.01,1.04,4.9c0,1.77-0.34,3.33-1.01,4.68c-0.67,1.35-1.64,2.42-2.91,3.19
				C307.78-19.54,306.26-19.15,304.47-19.15z M304.48-22.84c0.87,0,1.58-0.25,2.11-0.77c0.53-0.51,0.92-1.18,1.17-2.01
				c0.24-0.83,0.37-1.74,0.37-2.73c0-0.93-0.11-1.81-0.33-2.64c-0.22-0.83-0.6-1.5-1.13-2.01c-0.53-0.51-1.26-0.77-2.18-0.77
				c-0.87,0-1.58,0.24-2.12,0.72c-0.54,0.48-0.93,1.13-1.18,1.96c-0.25,0.82-0.37,1.73-0.37,2.73c0,0.92,0.11,1.8,0.34,2.64
				c0.23,0.84,0.61,1.53,1.14,2.06C302.82-23.11,303.55-22.84,304.48-22.84z"/>
			<path class="st6" d="M323.17-19.15c-1.22,0-2.4-0.2-3.54-0.6c-1.13-0.4-2.09-1.04-2.87-1.9c-0.78-0.87-1.28-1.99-1.5-3.37h4.3
				c0.15,0.62,0.42,1.12,0.81,1.48c0.39,0.36,0.84,0.62,1.33,0.77c0.5,0.15,0.97,0.23,1.43,0.23c0.95,0,1.72-0.15,2.3-0.45
				c0.58-0.3,0.88-0.76,0.88-1.39c0-0.48-0.17-0.86-0.52-1.14s-0.92-0.5-1.71-0.65l-3.09-0.65c-1.55-0.33-2.8-0.89-3.74-1.67
				c-0.94-0.79-1.42-1.91-1.45-3.36c0-1.05,0.28-2,0.84-2.84c0.56-0.84,1.39-1.5,2.49-1.99s2.45-0.73,4.05-0.73
				c2.17,0,3.9,0.48,5.19,1.43c1.3,0.95,1.96,2.3,1.98,4.03h-4.15c-0.13-0.68-0.46-1.2-1.01-1.57c-0.55-0.37-1.24-0.55-2.07-0.55
				c-0.86,0-1.57,0.15-2.13,0.46s-0.83,0.77-0.83,1.39c0,0.46,0.23,0.83,0.68,1.1c0.45,0.27,1.16,0.5,2.11,0.69l2.86,0.65
				c0.99,0.24,1.79,0.56,2.41,0.98c0.62,0.41,1.1,0.86,1.44,1.35c0.34,0.49,0.58,0.98,0.71,1.47c0.13,0.49,0.2,0.94,0.2,1.33
				c0,1.17-0.31,2.16-0.93,2.98c-0.62,0.82-1.49,1.45-2.6,1.88C325.91-19.37,324.63-19.15,323.17-19.15z"/>
			<path class="st6" d="M336.65-13.88c-1.2,0-2.29-0.2-3.28-0.6v-3.16l1.73,0.07c0.76,0.04,1.37,0.01,1.84-0.11
				c0.46-0.12,0.82-0.28,1.06-0.47c0.24-0.19,0.42-0.39,0.52-0.6c0.1-0.21,0.17-0.38,0.22-0.5l0.32-0.97l-6.83-16.85h4.91
				l4.22,11.46l4.27-11.46h4.84l-7.12,17.68c-0.61,1.5-1.26,2.64-1.94,3.43c-0.68,0.79-1.41,1.34-2.2,1.63
				C338.42-14.03,337.56-13.88,336.65-13.88z"/>
			<path class="st6" d="M359.46-19.15c-1.22,0-2.4-0.2-3.54-0.6c-1.13-0.4-2.09-1.04-2.87-1.9c-0.78-0.87-1.28-1.99-1.5-3.37h4.3
				c0.15,0.62,0.42,1.12,0.81,1.48c0.39,0.36,0.84,0.62,1.33,0.77c0.5,0.15,0.97,0.23,1.43,0.23c0.95,0,1.72-0.15,2.3-0.45
				c0.58-0.3,0.88-0.76,0.88-1.39c0-0.48-0.17-0.86-0.52-1.14s-0.92-0.5-1.71-0.65l-3.09-0.65c-1.55-0.33-2.8-0.89-3.74-1.67
				c-0.94-0.79-1.42-1.91-1.45-3.36c0-1.05,0.28-2,0.84-2.84c0.56-0.84,1.39-1.5,2.49-1.99s2.45-0.73,4.05-0.73
				c2.17,0,3.9,0.48,5.19,1.43c1.3,0.95,1.96,2.3,1.98,4.03h-4.15c-0.13-0.68-0.46-1.2-1.01-1.57c-0.55-0.37-1.24-0.55-2.07-0.55
				c-0.86,0-1.57,0.15-2.13,0.46s-0.83,0.77-0.83,1.39c0,0.46,0.23,0.83,0.68,1.1c0.45,0.27,1.16,0.5,2.11,0.69l2.86,0.65
				c0.99,0.24,1.79,0.56,2.41,0.98c0.62,0.41,1.1,0.86,1.44,1.35c0.34,0.49,0.58,0.98,0.71,1.47c0.13,0.49,0.2,0.94,0.2,1.33
				c0,1.17-0.31,2.16-0.93,2.98c-0.62,0.82-1.49,1.45-2.6,1.88C362.21-19.37,360.92-19.15,359.46-19.15z"/>
			<path class="st6" d="M380.83-33.62h-3.91l0.03,9.37c0,0.43,0.05,0.75,0.16,0.96c0.11,0.21,0.28,0.35,0.51,0.41
				c0.23,0.06,0.53,0.09,0.89,0.09h2.36v3.06c-0.23,0.1-0.58,0.2-1.06,0.29s-1.15,0.14-2.01,0.14c-1.54,0-2.73-0.2-3.58-0.59
				c-0.84-0.4-1.43-0.95-1.76-1.67c-0.33-0.71-0.49-1.54-0.49-2.48v-9.57h-2.86v-3.45h3.03l1.24-5.3h3.54v5.29h3.91V-33.62z"/>
			<path class="st6" d="M387.99-27.14c-0.01,0.9,0.13,1.67,0.42,2.34s0.72,1.17,1.28,1.53c0.56,0.36,1.24,0.54,2.03,0.54
				c0.85,0,1.59-0.18,2.24-0.54c0.64-0.36,1.08-0.96,1.33-1.79h4.47c-0.19,1.25-0.69,2.31-1.49,3.2c-0.8,0.88-1.76,1.56-2.9,2.02
				c-1.13,0.46-2.31,0.7-3.54,0.7c-1.73,0-3.26-0.37-4.58-1.1c-1.32-0.73-2.35-1.76-3.08-3.1c-0.74-1.34-1.11-2.91-1.11-4.73
				c0-1.76,0.33-3.34,1-4.75s1.64-2.53,2.92-3.35c1.27-0.82,2.81-1.23,4.6-1.23c1.79,0,3.3,0.38,4.51,1.13
				c1.22,0.75,2.14,1.8,2.75,3.15c0.62,1.34,0.93,2.89,0.93,4.65v1.34H387.99z M387.97-30.1h7.17c0-0.7-0.13-1.35-0.39-1.94
				s-0.65-1.05-1.18-1.39c-0.53-0.34-1.19-0.51-1.98-0.51c-0.77,0-1.42,0.18-1.96,0.55c-0.54,0.37-0.95,0.85-1.23,1.44
				C388.11-31.36,387.97-30.74,387.97-30.1z"/>
			<path class="st6" d="M403.23-19.49v-17.58h4.86v2.48c0.53-0.77,1.25-1.43,2.15-1.99c0.9-0.56,2.04-0.83,3.41-0.83
				c0.6,0,1.21,0.11,1.84,0.32c0.62,0.22,1.21,0.53,1.76,0.94s0.99,0.93,1.33,1.56c0.57-0.8,1.31-1.48,2.24-2.01
				c0.92-0.54,1.95-0.81,3.08-0.81c0.66,0,1.32,0.11,2,0.32c0.67,0.22,1.29,0.57,1.86,1.05c0.57,0.49,1.02,1.14,1.37,1.95
				c0.35,0.81,0.52,1.81,0.52,3v11.59h-4.96v-10.98c0-0.7-0.14-1.27-0.42-1.69c-0.28-0.43-0.63-0.73-1.05-0.92s-0.88-0.28-1.35-0.28
				c-0.44,0-0.89,0.09-1.34,0.26s-0.84,0.46-1.16,0.84c-0.32,0.39-0.48,0.89-0.48,1.51v11.25h-4.95v-11.42
				c0-0.53-0.14-0.98-0.42-1.34c-0.28-0.36-0.64-0.64-1.06-0.82s-0.86-0.28-1.3-0.28c-0.45,0-0.91,0.09-1.36,0.28
				c-0.45,0.19-0.83,0.48-1.14,0.87s-0.46,0.88-0.46,1.47v11.25H403.23z"/>
		</g>
		<line class="st7" x1="160.23" y1="-49.29" x2="160.23" y2="-13.29"/>
		<g>
			<path class="st6" d="M40.25-39.11v16.09h-2.82h0v-7.26h-7.32v7.26h-2.82v-16.09h2.82v6.4h7.32v-6.4h0H40.25z M24.47-23.02
				L24.47-23.02h-2.82v-16.09h2.82V-23.02z M18.88-23.02L18.88-23.02H15.9L8.58-34.85H8.51v11.83H5.83l0,0v-16.09l0,0H8.8h0
				l7.35,11.86h0.05v-11.86h2.68V-23.02z M50.18-31.12l-9.95-17.98H3.56c-1.83,0-3.31,1.49-3.31,3.32v29.37
				c0,1.83,1.48,3.31,3.31,3.31h36.63L50.18-31.12z"/>
			<path class="st8" d="M42.69-13.11l9.98-18.02l-9.94-17.98h2.49c1.36,0,3.02,0.98,3.68,2.17l8.74,15.82l-8.78,15.85
				c-0.66,1.19-2.31,2.17-3.68,2.17H42.69z"/>
			<path class="st6" d="M42.69-13.11l9.98-18.02l-9.94-17.98h2.49c1.36,0,3.02,0.98,3.68,2.17l8.74,15.82l-8.77,15.85
				c-0.66,1.19-2.32,2.17-3.68,2.17H42.69z"/>
			<path class="st6" d="M143.54-16.2c0.02,1.22,0.99,1.8,2.29,1.8c1.07,0,2.31-0.45,2.31-1.68c0-1.02-0.84-1.32-1.67-1.51
				c-0.84-0.19-1.68-0.27-1.68-0.83c0-0.45,0.61-0.53,0.94-0.53c0.5,0,0.95,0.15,1.05,0.69h1.19c-0.14-1.15-1.1-1.59-2.16-1.59
				c-0.94,0-2.16,0.35-2.16,1.48c0,1.05,0.82,1.35,1.66,1.53c0.83,0.19,1.66,0.26,1.69,0.86c0.03,0.59-0.72,0.68-1.15,0.68
				c-0.61,0-1.11-0.24-1.17-0.9H143.54z M139.33-17.58c0.03-0.77,0.57-1.37,1.36-1.37c0.77,0,1.26,0.65,1.3,1.37H139.33z
				 M143.13-16.83c0.19-1.55-0.81-3.02-2.44-3.02c-1.54,0-2.5,1.26-2.5,2.73c0,1.59,0.91,2.72,2.53,2.72c1.13,0,2.09-0.63,2.34-1.76
				h-1.08c-0.2,0.57-0.6,0.86-1.26,0.86c-0.95,0-1.39-0.72-1.39-1.53H143.13z M133.15-16.2c0.02,1.22,0.99,1.8,2.29,1.8
				c1.07,0,2.31-0.45,2.31-1.68c0-1.02-0.84-1.32-1.67-1.51c-0.84-0.19-1.68-0.27-1.68-0.83c0-0.45,0.61-0.53,0.94-0.53
				c0.5,0,0.95,0.15,1.05,0.69h1.19c-0.14-1.15-1.1-1.59-2.16-1.59c-0.94,0-2.16,0.35-2.16,1.48c0,1.05,0.82,1.35,1.66,1.53
				c0.83,0.19,1.66,0.26,1.69,0.86c0.03,0.59-0.72,0.68-1.15,0.68c-0.61,0-1.11-0.24-1.17-0.9H133.15z M132.38-18.35
				c0-1.09-1.06-1.5-2.07-1.5c-1.14,0-2.27,0.39-2.35,1.72h1.14c0.05-0.56,0.5-0.82,1.14-0.82c0.46,0,1.07,0.11,1.07,0.7
				c0,0.67-0.73,0.58-1.55,0.73c-0.96,0.11-1.99,0.32-1.99,1.61c0,1.01,0.84,1.51,1.77,1.51c0.61,0,1.34-0.19,1.79-0.63
				c0.09,0.47,0.42,0.63,0.88,0.63c0.19,0,0.55-0.07,0.72-0.13v-0.79c-0.12,0.02-0.21,0.02-0.28,0.02c-0.21,0-0.27-0.11-0.27-0.39
				V-18.35z M131.24-16.28c0,0.72-0.78,0.98-1.28,0.98c-0.4,0-1.05-0.15-1.05-0.66c0-0.6,0.44-0.78,0.93-0.86
				c0.5-0.09,1.05-0.08,1.4-0.31V-16.28z M123.56-17.58c0.03-0.77,0.57-1.37,1.36-1.37c0.77,0,1.26,0.65,1.3,1.37H123.56z
				 M127.36-16.83c0.19-1.55-0.81-3.02-2.44-3.02c-1.54,0-2.5,1.26-2.5,2.73c0,1.59,0.91,2.72,2.53,2.72c1.13,0,2.09-0.63,2.34-1.76
				h-1.08c-0.2,0.57-0.6,0.86-1.26,0.86c-0.95,0-1.39-0.72-1.39-1.53H127.36z M117.38-16.2c0.02,1.22,0.99,1.8,2.29,1.8
				c1.07,0,2.31-0.45,2.31-1.68c0-1.02-0.84-1.32-1.67-1.51c-0.84-0.19-1.68-0.27-1.68-0.83c0-0.45,0.61-0.53,0.94-0.53
				c0.5,0,0.95,0.15,1.05,0.69h1.19c-0.14-1.15-1.1-1.59-2.16-1.59c-0.94,0-2.16,0.35-2.16,1.48c0,1.05,0.82,1.35,1.66,1.53
				c0.83,0.19,1.66,0.26,1.69,0.86c0.03,0.59-0.72,0.68-1.15,0.68c-0.61,0-1.11-0.24-1.17-0.9H117.38z M115.46-20.61h1.14v-1.08
				h-1.14V-20.61z M115.46-14.54h1.14v-5.17h-1.14V-14.54z M108.55-14.54h2.96c2.2,0,3.15-1.6,3.15-3.57c0-1.97-0.95-3.57-3.15-3.57
				h-2.96V-14.54z M109.8-20.67h1.23c1.96,0,2.38,1.12,2.38,2.55c0,1.43-0.42,2.55-2.38,2.55h-1.23V-20.67z M100.5-16.2
				c0.02,1.22,0.99,1.8,2.29,1.8c1.07,0,2.31-0.45,2.31-1.68c0-1.02-0.84-1.32-1.67-1.51c-0.84-0.19-1.68-0.27-1.68-0.83
				c0-0.45,0.61-0.53,0.94-0.53c0.5,0,0.95,0.15,1.05,0.69h1.19c-0.14-1.15-1.1-1.59-2.16-1.59c-0.94,0-2.16,0.35-2.16,1.48
				c0,1.05,0.82,1.35,1.66,1.53c0.83,0.19,1.66,0.26,1.69,0.86c0.03,0.59-0.72,0.68-1.15,0.68c-0.61,0-1.11-0.24-1.17-0.9H100.5z
				 M99.76-19.71h-1.14v3c0,0.8-0.32,1.41-1.27,1.41c-0.62,0-0.99-0.33-0.99-1.24v-3.17h-1.14v3.28c0,1.35,0.58,2.03,1.93,2.03
				c0.57,0,1.19-0.34,1.47-0.86h0.02v0.72h1.12V-19.71z M91.84-14.4c1.66,0,2.61-1.14,2.61-2.73c0-1.58-0.95-2.72-2.61-2.72
				c-1.66,0-2.61,1.14-2.61,2.72C89.23-15.54,90.17-14.4,91.84-14.4 M91.84-15.3c-1.02,0-1.47-0.93-1.47-1.83
				c0-0.89,0.45-1.82,1.47-1.82c1.02,0,1.47,0.93,1.47,1.82C93.31-16.23,92.85-15.3,91.84-15.3 M87.27-20.61h1.14v-1.08h-1.14
				V-20.61z M87.27-14.54h1.14v-5.17h-1.14V-14.54z M83.56-18.86h0.86v3.05c0.02,0.86,0.24,1.32,1.43,1.32
				c0.25,0,0.49-0.04,0.74-0.06v-0.88c-0.16,0.04-0.32,0.04-0.48,0.04c-0.51,0-0.55-0.24-0.55-0.71v-2.76h1.03v-0.85h-1.03v-1.55
				h-1.14v1.55h-0.86V-18.86z M83.33-17.98c-0.11-1.27-1.13-1.87-2.33-1.87c-1.7,0-2.55,1.22-2.55,2.78c0,1.52,0.89,2.67,2.51,2.67
				c1.33,0,2.16-0.74,2.37-2.08h-1.14c-0.11,0.74-0.57,1.18-1.23,1.18c-0.99,0-1.37-0.91-1.37-1.77c0-1.57,0.83-1.88,1.42-1.88
				c0.63,0,1.09,0.34,1.18,0.97H83.33z M74.21-17.58c0.03-0.77,0.57-1.37,1.36-1.37c0.77,0,1.26,0.65,1.3,1.37H74.21z M78.01-16.83
				c0.19-1.55-0.81-3.02-2.44-3.02c-1.54,0-2.5,1.26-2.5,2.73c0,1.59,0.91,2.72,2.53,2.72c1.13,0,2.09-0.63,2.34-1.76h-1.08
				c-0.2,0.57-0.6,0.86-1.26,0.86c-0.95,0-1.39-0.72-1.39-1.53H78.01z M69.84-18.86h0.85v4.32h1.14v-4.32h0.97v-0.85h-0.97v-0.53
				c0-0.43,0.25-0.54,0.56-0.54c0.23,0,0.38,0.02,0.53,0.06v-0.89c-0.18-0.05-0.44-0.07-0.8-0.07c-0.74,0-1.43,0.22-1.43,1.54v0.43
				h-0.85V-18.86z M64.79-14.54h1.14v-3.05c0-0.76,0.49-1.36,1.25-1.36c0.67,0,0.99,0.35,1.01,1.16v3.25h1.14v-3.55
				c0-1.16-0.71-1.76-1.83-1.76c-0.68,0-1.27,0.35-1.61,0.92l-0.02-0.02v-0.76h-1.08V-14.54z M62.35-14.54h1.25v-7.14h-1.25V-14.54z
				"/>
			<path class="st6" d="M111.04-34.35h-1.14v2.64h-0.02c-0.35-0.57-1.07-0.81-1.72-0.81c-1.13,0-2.24,0.82-2.24,2.69
				c0,1.55,0.79,2.76,2.42,2.76c0.65,0,1.3-0.25,1.6-0.84h0.02v0.7h1.08V-34.35z M107.06-29.74c0-0.93,0.38-1.88,1.45-1.88
				c0.88,0,1.43,0.68,1.43,1.82c0,0.9-0.43,1.83-1.45,1.83C107.5-27.97,107.06-28.85,107.06-29.74 M100.61-27.21h1.14v-3.05
				c0-0.76,0.49-1.36,1.25-1.36c0.67,0,0.99,0.35,1.01,1.16v3.25h1.14v-3.55c0-1.16-0.71-1.76-1.83-1.76
				c-0.68,0-1.27,0.35-1.61,0.92l-0.02-0.02v-0.76h-1.08V-27.21z M99.56-31.02c0-1.09-1.06-1.5-2.07-1.5
				c-1.14,0-2.27,0.39-2.35,1.72h1.14c0.05-0.56,0.5-0.82,1.14-0.82c0.46,0,1.07,0.11,1.07,0.7c0,0.67-0.73,0.58-1.55,0.73
				c-0.96,0.11-1.99,0.32-1.99,1.61c0,1.01,0.84,1.51,1.77,1.51c0.61,0,1.34-0.19,1.79-0.63c0.09,0.47,0.42,0.63,0.88,0.63
				c0.19,0,0.55-0.07,0.72-0.13v-0.79c-0.12,0.02-0.21,0.02-0.28,0.02c-0.21,0-0.27-0.11-0.27-0.39V-31.02z M98.42-28.95
				c0,0.72-0.78,0.98-1.28,0.98c-0.4,0-1.05-0.15-1.05-0.66c0-0.6,0.44-0.78,0.93-0.86c0.5-0.09,1.05-0.08,1.4-0.31V-28.95z
				 M89.01-27.23l-0.13,0.4c-0.14,0.44-0.27,0.72-0.8,0.72c-0.18,0-0.36-0.04-0.54-0.07v0.96c0.26,0.04,0.52,0.06,0.79,0.06
				c1.19,0,1.46-0.84,1.83-1.77l2.01-5.45h-1.19l-1.31,3.86h-0.02l-1.35-3.86h-1.25L89.01-27.23z M86.64-32.38H85.5v0.71h-0.02
				c-0.29-0.58-0.88-0.85-1.53-0.85c-1.47,0-2.34,1.2-2.34,2.59c0,1.48,0.68,2.72,2.32,2.72c0.64,0,1.23-0.34,1.55-0.91h0.02v0.79
				c0,0.85-0.41,1.32-1.33,1.32c-0.58,0-1.1-0.11-1.24-0.76h-1.14c0.1,1.21,1.27,1.61,2.31,1.61c1.63,0,2.54-0.77,2.54-2.32V-32.38z
				 M84.11-28.11c-0.95,0-1.36-0.86-1.36-1.71c0-0.86,0.35-1.8,1.36-1.8c0.99,0,1.39,0.82,1.39,1.71
				C85.5-29.03,85.12-28.11,84.11-28.11 M78.52-27.21h1.14v-2.46c0-1.14,0.62-1.77,1.4-1.77c0.16,0,0.33,0.03,0.49,0.05v-1.1
				c-0.1-0.01-0.17-0.03-0.43-0.03c-0.7,0-1.38,0.59-1.51,1.14h-0.02v-1h-1.07V-27.21z M74.03-30.25c0.03-0.77,0.57-1.37,1.36-1.37
				c0.77,0,1.26,0.65,1.3,1.37H74.03z M77.83-29.5c0.19-1.55-0.81-3.02-2.44-3.02c-1.54,0-2.5,1.26-2.5,2.73
				c0,1.59,0.91,2.72,2.53,2.72c1.13,0,2.09-0.63,2.34-1.76h-1.08c-0.2,0.57-0.6,0.86-1.26,0.86c-0.95,0-1.39-0.72-1.39-1.53H77.83z
				 M70.94-27.21h1.14v-7.14h-1.14V-27.21z M68.71-27.21h1.14v-7.14h-1.14V-27.21z M61.52-27.21h1.29l0.67-1.89h2.85L67-27.21h1.34
				l-2.75-7.14h-1.33L61.52-27.21z M64.9-33.12h0.03L66-30.05h-2.18L64.9-33.12z"/>
			<path class="st6" d="M145.15-44.2H146v4.32h1.14v-4.32h0.97v-0.85h-0.97v-0.53c0-0.43,0.25-0.54,0.56-0.54
				c0.23,0,0.38,0.02,0.53,0.06v-0.89c-0.18-0.05-0.44-0.07-0.8-0.07c-0.74,0-1.43,0.22-1.43,1.54v0.43h-0.85V-44.2z M142.28-39.74
				c1.66,0,2.61-1.14,2.61-2.73c0-1.58-0.95-2.72-2.61-2.72c-1.66,0-2.61,1.14-2.61,2.72C139.67-40.88,140.62-39.74,142.28-39.74
				 M142.28-40.64c-1.02,0-1.47-0.93-1.47-1.83c0-0.89,0.45-1.82,1.47-1.82c1.02,0,1.47,0.93,1.47,1.82
				C143.75-41.57,143.3-40.64,142.28-40.64 M132.82-42.92c0.03-0.77,0.57-1.37,1.36-1.37c0.77,0,1.26,0.65,1.3,1.37H132.82z
				 M136.62-42.17c0.19-1.55-0.81-3.02-2.44-3.02c-1.54,0-2.5,1.26-2.5,2.73c0,1.59,0.91,2.72,2.53,2.72c1.13,0,2.09-0.63,2.34-1.76
				h-1.08c-0.2,0.57-0.6,0.86-1.26,0.86c-0.95,0-1.39-0.72-1.39-1.53H136.62z M128.26-44.2h0.86v3.05c0.02,0.86,0.24,1.32,1.43,1.32
				c0.25,0,0.49-0.04,0.74-0.06v-0.88c-0.16,0.04-0.32,0.04-0.48,0.04c-0.51,0-0.55-0.24-0.55-0.71v-2.76h1.03v-0.85h-1.03v-1.55
				h-1.14v1.55h-0.86V-44.2z M127.76-45.05h-1.14v3c0,0.8-0.32,1.41-1.27,1.41c-0.62,0-0.99-0.33-0.99-1.24v-3.17h-1.14v3.28
				c0,1.35,0.58,2.03,1.93,2.03c0.57,0,1.19-0.34,1.47-0.86h0.02v0.72h1.12V-45.05z M119.55-44.2h0.86v3.05
				c0.02,0.86,0.24,1.32,1.43,1.32c0.25,0,0.49-0.04,0.74-0.06v-0.88c-0.16,0.04-0.32,0.04-0.48,0.04c-0.51,0-0.55-0.24-0.55-0.71
				v-2.76h1.03v-0.85h-1.03v-1.55h-1.14v1.55h-0.86V-44.2z M117.87-45.94h1.14v-1.08h-1.14V-45.94z M117.87-39.88h1.14v-5.17h-1.14
				V-39.88z M114.17-44.2h0.86v3.05c0.02,0.86,0.24,1.32,1.43,1.32c0.25,0,0.49-0.04,0.74-0.06v-0.88
				c-0.16,0.04-0.32,0.04-0.48,0.04c-0.51,0-0.55-0.24-0.55-0.71v-2.76h1.03v-0.85h-1.03v-1.55h-1.14v1.55h-0.86V-44.2z
				 M109.4-41.54c0.02,1.22,0.99,1.8,2.29,1.8c1.07,0,2.31-0.45,2.31-1.68c0-1.02-0.84-1.32-1.67-1.51
				c-0.84-0.19-1.68-0.27-1.68-0.83c0-0.45,0.61-0.53,0.94-0.53c0.5,0,0.95,0.15,1.05,0.69h1.19c-0.14-1.15-1.1-1.59-2.16-1.59
				c-0.94,0-2.16,0.35-2.16,1.48c0,1.05,0.82,1.35,1.66,1.53c0.83,0.19,1.66,0.26,1.69,0.86c0.03,0.59-0.72,0.68-1.15,0.68
				c-0.61,0-1.11-0.24-1.17-0.9H109.4z M104.12-39.88h1.14v-3.05c0-0.76,0.49-1.36,1.25-1.36c0.67,0,0.99,0.35,1.01,1.16v3.25h1.14
				v-3.55c0-1.16-0.71-1.76-1.83-1.76c-0.68,0-1.27,0.35-1.61,0.92l-0.02-0.02v-0.76h-1.08V-39.88z M101.68-39.88h1.25v-7.14h-1.25
				V-39.88z M96.72-39.88h1.14v-7.14h-1.14V-39.88z M95.63-43.69c0-1.09-1.06-1.5-2.07-1.5c-1.14,0-2.27,0.39-2.35,1.72h1.14
				c0.05-0.56,0.5-0.82,1.14-0.82c0.46,0,1.07,0.11,1.07,0.7c0,0.67-0.73,0.58-1.55,0.73c-0.96,0.11-1.99,0.32-1.99,1.61
				c0,1.01,0.84,1.51,1.77,1.51c0.61,0,1.34-0.19,1.79-0.63c0.09,0.47,0.42,0.63,0.88,0.63c0.19,0,0.55-0.07,0.72-0.13v-0.79
				c-0.12,0.02-0.21,0.02-0.28,0.02c-0.21,0-0.27-0.11-0.27-0.39V-43.69z M94.5-41.62c0,0.72-0.78,0.98-1.28,0.98
				c-0.4,0-1.05-0.15-1.05-0.66c0-0.6,0.44-0.78,0.93-0.86c0.5-0.09,1.05-0.08,1.4-0.31V-41.62z M85.74-39.88h1.14v-3.05
				c0-0.76,0.49-1.36,1.25-1.36c0.67,0,0.99,0.35,1.01,1.16v3.25h1.14v-3.55c0-1.16-0.71-1.76-1.83-1.76
				c-0.68,0-1.27,0.35-1.61,0.92l-0.02-0.02v-0.76h-1.08V-39.88z M82.36-39.74c1.66,0,2.61-1.14,2.61-2.73
				c0-1.58-0.95-2.72-2.61-2.72c-1.66,0-2.61,1.14-2.61,2.72C79.75-40.88,80.7-39.74,82.36-39.74 M82.36-40.64
				c-1.02,0-1.47-0.93-1.47-1.83c0-0.89,0.45-1.82,1.47-1.82c1.02,0,1.47,0.93,1.47,1.82C83.83-41.57,83.38-40.64,82.36-40.64
				 M77.79-45.94h1.14v-1.08h-1.14V-45.94z M77.79-39.88h1.14v-5.17h-1.14V-39.88z M74.09-44.2h0.86v3.05
				c0.02,0.86,0.24,1.32,1.43,1.32c0.25,0,0.49-0.04,0.74-0.06v-0.88c-0.16,0.04-0.32,0.04-0.48,0.04c-0.51,0-0.55-0.24-0.55-0.71
				v-2.76h1.03v-0.85h-1.03v-1.55h-1.14v1.55h-0.86V-44.2z M73.56-43.69c0-1.09-1.06-1.5-2.07-1.5c-1.14,0-2.27,0.39-2.35,1.72h1.14
				c0.05-0.56,0.5-0.82,1.14-0.82c0.46,0,1.07,0.11,1.07,0.7c0,0.67-0.73,0.58-1.55,0.73c-0.96,0.11-1.99,0.32-1.99,1.61
				c0,1.01,0.84,1.51,1.77,1.51c0.61,0,1.34-0.19,1.79-0.63c0.09,0.47,0.42,0.63,0.88,0.63c0.19,0,0.55-0.07,0.72-0.13v-0.79
				c-0.12,0.02-0.21,0.02-0.28,0.02c-0.21,0-0.27-0.11-0.27-0.39V-43.69z M72.42-41.62c0,0.72-0.78,0.98-1.28,0.98
				c-0.4,0-1.05-0.15-1.05-0.66c0-0.6,0.44-0.78,0.93-0.86c0.5-0.09,1.05-0.08,1.4-0.31V-41.62z M62.3-39.88h1.19v-5.25h0.03
				l3.25,5.25h1.32v-7.14H66.9v5.26h-0.02l-3.26-5.26H62.3V-39.88z"/>
		</g>
	</g>
</g>
<g id="nde_x5F_color_x5F_acronym" class="st0">
	<g class="st1">
		<g>
			<g>
				<g>
					<path class="st4" d="M22.04,5.51v8.87h-1.55h0v-4h-4.04v4H14.9V5.51h1.55v3.53h4.04V5.51h0H22.04z M13.34,14.37L13.34,14.37
						h-1.55V5.51h1.55V14.37z M10.26,14.37L10.26,14.37H8.62L4.59,7.85H4.55v6.52H3.07l0,0V5.51l0,0h1.64h0l4.05,6.53h0.03V5.51
						h1.48V14.37z M27.5,9.91L22.02,0H1.83C0.82,0,0,0.82,0,1.83v16.18c0,1.01,0.82,1.82,1.83,1.82H22L27.5,9.91z"/>
					<path class="st4" d="M23.38,19.83l5.5-9.92L23.4,0h1.37c0.75,0,1.66,0.54,2.03,1.19l4.82,8.71l-4.83,8.73
						c-0.36,0.66-1.27,1.19-2.03,1.19H23.38z"/>
					<path class="st5" d="M23.38,19.83l5.5-9.92L23.4,0h1.37c0.75,0,1.66,0.54,2.03,1.19l4.82,8.71l-4.83,8.73
						c-0.36,0.66-1.28,1.19-2.03,1.19H23.38z"/>
				</g>
			</g>
			<g>
				<path class="st4" d="M0.98,22.72h1.35l3.33,5.37h0.02v-5.37h1.21V30H5.54l-3.32-5.36H2.2V30H0.98V22.72z"/>
				<path class="st4" d="M8.4,22.72h1.27V30H8.4V22.72z"/>
				<path class="st4" d="M13.18,22.72h1.36L17.34,30h-1.37l-0.68-1.93h-2.91L11.7,30h-1.32L13.18,22.72z M12.73,27.1h2.22
					l-1.09-3.13h-0.03L12.73,27.1z"/>
				<path class="st4" d="M18.04,22.72h1.27V30h-1.27V22.72z"/>
				<path class="st4" d="M20.87,22.72h3.02c2.24,0,3.21,1.63,3.21,3.64c0,2.01-0.97,3.64-3.21,3.64h-3.02V22.72z M22.15,28.96h1.25
					c2,0,2.43-1.14,2.43-2.6c0-1.46-0.43-2.6-2.43-2.6h-1.25V28.96z"/>
			</g>
		</g>
		<line class="st3" x1="37.84" y1="0" x2="37.84" y2="30"/>
		<g>
			<g>
				<path class="st2" d="M44.11,3.46c0.1,0,0.39,0,0.86,0s1.03,0,1.67,0s1.28,0,1.92,0.01c0.64,0,1.17,0.01,1.6,0.02
					c2.45,0.06,4.46,0.5,6.01,1.32c1.55,0.82,2.69,1.97,3.41,3.44s1.08,3.22,1.08,5.24c0,2.1-0.38,3.91-1.15,5.44
					c-0.77,1.53-1.93,2.71-3.51,3.54c-1.57,0.83-3.57,1.25-5.99,1.25h-5.91V3.46z M48.23,6.76V20.4h1.88c1.16,0,2.21-0.22,3.16-0.67
					c0.95-0.45,1.71-1.18,2.27-2.2s0.85-2.38,0.85-4.07c0-1.58-0.25-2.86-0.76-3.84s-1.22-1.71-2.16-2.16
					c-0.93-0.46-2.04-0.69-3.32-0.69H48.23z"/>
				<path class="st2" d="M67.95,23.98c-0.92,0-1.75-0.17-2.49-0.52c-0.74-0.34-1.32-0.85-1.75-1.5s-0.64-1.46-0.64-2.4
					c0-1.59,0.59-2.79,1.78-3.62c1.19-0.83,3.06-1.25,5.61-1.28l1.81-0.03v-0.87c0-0.66-0.19-1.17-0.58-1.53
					c-0.39-0.36-0.99-0.53-1.8-0.53c-0.6,0.01-1.16,0.15-1.7,0.42c-0.54,0.27-0.9,0.74-1.1,1.41h-3.4c0.06-1.04,0.36-1.91,0.91-2.58
					s1.3-1.18,2.25-1.51s2.02-0.5,3.23-0.5c1.48,0,2.67,0.18,3.57,0.55c0.9,0.37,1.54,0.9,1.95,1.58c0.4,0.69,0.6,1.5,0.6,2.44V23.7
					h-3.42l-0.34-2.49c-0.5,1.05-1.11,1.77-1.85,2.17C69.83,23.78,68.96,23.98,67.95,23.98z M69.32,21.29c0.37,0,0.74-0.07,1.09-0.2
					c0.35-0.13,0.66-0.32,0.94-0.55c0.27-0.23,0.5-0.49,0.66-0.78c0.17-0.29,0.25-0.59,0.25-0.9v-2.14l-1.47,0.03
					c-0.68,0.01-1.32,0.09-1.9,0.25c-0.59,0.15-1.06,0.4-1.42,0.75c-0.36,0.35-0.54,0.81-0.54,1.4c0,0.67,0.23,1.2,0.7,1.58
					S68.66,21.29,69.32,21.29z"/>
				<path class="st2" d="M87.98,12.07h-3.22l0.03,7.71c0,0.35,0.04,0.62,0.13,0.79c0.09,0.17,0.23,0.29,0.42,0.34
					c0.19,0.05,0.44,0.08,0.73,0.08h1.95v2.52c-0.19,0.08-0.48,0.16-0.88,0.24c-0.4,0.07-0.95,0.11-1.66,0.11
					c-1.27,0-2.25-0.16-2.95-0.49c-0.7-0.33-1.18-0.78-1.45-1.37c-0.27-0.59-0.41-1.27-0.41-2.04v-7.88h-2.35V9.23h2.49l1.02-4.37
					h2.91v4.35h3.22V12.07z"/>
				<path class="st2" d="M95.15,23.98c-0.92,0-1.75-0.17-2.49-0.52c-0.74-0.34-1.32-0.85-1.75-1.5s-0.64-1.46-0.64-2.4
					c0-1.59,0.59-2.79,1.78-3.62c1.19-0.83,3.06-1.25,5.61-1.28l1.81-0.03v-0.87c0-0.66-0.19-1.17-0.58-1.53
					c-0.39-0.36-0.99-0.53-1.8-0.53c-0.6,0.01-1.16,0.15-1.7,0.42c-0.54,0.27-0.9,0.74-1.1,1.41h-3.4c0.06-1.04,0.36-1.91,0.91-2.58
					s1.3-1.18,2.25-1.51s2.02-0.5,3.23-0.5c1.48,0,2.67,0.18,3.57,0.55c0.9,0.37,1.54,0.9,1.95,1.58c0.4,0.69,0.6,1.5,0.6,2.44V23.7
					h-3.42l-0.34-2.49c-0.5,1.05-1.11,1.77-1.85,2.17C97.04,23.78,96.16,23.98,95.15,23.98z M96.52,21.29c0.37,0,0.74-0.07,1.09-0.2
					c0.35-0.13,0.66-0.32,0.94-0.55c0.27-0.23,0.5-0.49,0.66-0.78c0.17-0.29,0.25-0.59,0.25-0.9v-2.14l-1.47,0.03
					c-0.68,0.01-1.32,0.09-1.9,0.25c-0.59,0.15-1.06,0.4-1.42,0.75c-0.36,0.35-0.54,0.81-0.54,1.4c0,0.67,0.23,1.2,0.7,1.58
					S95.86,21.29,96.52,21.29z"/>
				<path class="st2" d="M113.46,23.7V3.46h13.9l-0.01,3.44h-9.79v4.91h8.5v3.37h-8.53v5.03l9.97,0.01v3.47H113.46z"/>
				<path class="st2" d="M136.83,8.94c1.21,0,2.26,0.25,3.14,0.74c0.88,0.49,1.58,1.16,2.09,2c0.51,0.84,0.8,1.78,0.88,2.81h-3.4
					c-0.07-0.38-0.2-0.76-0.41-1.14c-0.21-0.38-0.49-0.69-0.87-0.94c-0.37-0.25-0.84-0.37-1.4-0.37c-0.95,0-1.72,0.37-2.32,1.1
					c-0.59,0.73-0.89,1.85-0.89,3.34c0,1.41,0.29,2.53,0.87,3.35c0.58,0.83,1.39,1.24,2.42,1.24c0.55,0,1.01-0.13,1.38-0.41
					c0.37-0.27,0.66-0.59,0.86-0.97c0.21-0.38,0.34-0.73,0.39-1.06h3.32c-0.07,1-0.35,1.9-0.87,2.71s-1.21,1.45-2.09,1.92
					c-0.88,0.47-1.92,0.71-3.1,0.71c-1.34,0-2.54-0.3-3.6-0.9c-1.05-0.6-1.88-1.45-2.48-2.57s-0.9-2.45-0.9-4
					c0-1.49,0.29-2.81,0.87-3.95s1.39-2.03,2.44-2.67C134.21,9.26,135.43,8.94,136.83,8.94z"/>
				<path class="st2" d="M151.96,23.98c-1.42,0-2.65-0.3-3.7-0.91c-1.05-0.61-1.86-1.46-2.44-2.58c-0.57-1.11-0.86-2.43-0.86-3.95
					c0-1.52,0.29-2.85,0.86-3.99c0.57-1.14,1.39-2.03,2.44-2.66c1.05-0.63,2.29-0.95,3.72-0.95s2.66,0.31,3.71,0.93
					c1.05,0.62,1.85,1.5,2.42,2.64s0.85,2.48,0.85,4.03c0,1.46-0.28,2.74-0.83,3.86s-1.35,1.99-2.39,2.63
					C154.7,23.66,153.44,23.98,151.96,23.98z M151.98,20.94c0.72,0,1.3-0.21,1.74-0.63c0.44-0.42,0.76-0.97,0.96-1.66
					c0.2-0.69,0.3-1.44,0.3-2.25c0-0.77-0.09-1.49-0.27-2.17c-0.18-0.68-0.49-1.23-0.93-1.65c-0.44-0.42-1.04-0.63-1.79-0.63
					c-0.72,0-1.3,0.2-1.74,0.59c-0.44,0.4-0.77,0.93-0.97,1.61c-0.21,0.68-0.31,1.43-0.31,2.25c0,0.76,0.09,1.48,0.28,2.18
					s0.5,1.26,0.94,1.7C150.61,20.72,151.21,20.94,151.98,20.94z"/>
				<path class="st2" d="M167.36,23.98c-1.01,0-1.98-0.17-2.91-0.5c-0.93-0.33-1.72-0.85-2.37-1.57c-0.64-0.71-1.06-1.64-1.23-2.78
					h3.54c0.12,0.51,0.34,0.92,0.67,1.22c0.32,0.3,0.69,0.51,1.1,0.64s0.8,0.19,1.18,0.19c0.78,0,1.42-0.12,1.9-0.37
					c0.48-0.25,0.72-0.63,0.72-1.14c0-0.39-0.14-0.7-0.43-0.94c-0.29-0.23-0.75-0.41-1.41-0.53l-2.55-0.53
					c-1.28-0.27-2.31-0.73-3.08-1.38c-0.77-0.65-1.17-1.57-1.19-2.76c0-0.87,0.23-1.65,0.69-2.34c0.46-0.69,1.15-1.24,2.05-1.64
					c0.9-0.4,2.02-0.6,3.33-0.6c1.78,0,3.21,0.39,4.28,1.18c1.07,0.78,1.61,1.89,1.63,3.32h-3.42c-0.1-0.56-0.38-0.99-0.83-1.29
					c-0.45-0.3-1.02-0.46-1.7-0.46c-0.71,0-1.29,0.13-1.75,0.38c-0.46,0.25-0.69,0.63-0.69,1.15c0,0.38,0.19,0.68,0.56,0.9
					c0.37,0.22,0.95,0.41,1.74,0.57l2.35,0.53c0.81,0.2,1.47,0.46,1.98,0.81c0.51,0.34,0.9,0.71,1.18,1.11
					c0.28,0.4,0.47,0.81,0.58,1.21c0.11,0.41,0.16,0.77,0.16,1.1c0,0.96-0.26,1.78-0.77,2.46s-1.23,1.19-2.14,1.55
					S168.57,23.98,167.36,23.98z"/>
				<path class="st2" d="M178.47,28.32c-0.99,0-1.89-0.16-2.7-0.49v-2.6l1.43,0.06c0.63,0.04,1.13,0.01,1.51-0.09
					c0.38-0.1,0.67-0.23,0.88-0.38c0.2-0.16,0.34-0.33,0.43-0.5c0.08-0.17,0.14-0.31,0.18-0.41l0.27-0.8l-5.63-13.87h4.05l3.47,9.44
					l3.51-9.44h3.99l-5.87,14.56c-0.5,1.23-1.04,2.17-1.6,2.83s-1.16,1.1-1.81,1.34C179.92,28.2,179.22,28.32,178.47,28.32z"/>
				<path class="st2" d="M197.25,23.98c-1.01,0-1.98-0.17-2.91-0.5c-0.93-0.33-1.72-0.85-2.37-1.57c-0.64-0.71-1.06-1.64-1.23-2.78
					h3.54c0.12,0.51,0.34,0.92,0.67,1.22c0.32,0.3,0.69,0.51,1.1,0.64s0.8,0.19,1.18,0.19c0.78,0,1.42-0.12,1.9-0.37
					c0.48-0.25,0.72-0.63,0.72-1.14c0-0.39-0.14-0.7-0.43-0.94c-0.29-0.23-0.75-0.41-1.41-0.53l-2.55-0.53
					c-1.28-0.27-2.31-0.73-3.08-1.38c-0.77-0.65-1.17-1.57-1.19-2.76c0-0.87,0.23-1.65,0.69-2.34c0.46-0.69,1.15-1.24,2.05-1.64
					c0.9-0.4,2.02-0.6,3.33-0.6c1.78,0,3.21,0.39,4.28,1.18c1.07,0.78,1.61,1.89,1.63,3.32h-3.42c-0.1-0.56-0.38-0.99-0.83-1.29
					c-0.45-0.3-1.02-0.46-1.7-0.46c-0.71,0-1.29,0.13-1.75,0.38c-0.46,0.25-0.69,0.63-0.69,1.15c0,0.38,0.19,0.68,0.56,0.9
					c0.37,0.22,0.95,0.41,1.74,0.57l2.35,0.53c0.81,0.2,1.47,0.46,1.98,0.81c0.51,0.34,0.9,0.71,1.18,1.11
					c0.28,0.4,0.47,0.81,0.58,1.21c0.11,0.41,0.16,0.77,0.16,1.1c0,0.96-0.26,1.78-0.77,2.46s-1.23,1.19-2.14,1.55
					S198.46,23.98,197.25,23.98z"/>
				<path class="st2" d="M214.85,12.07h-3.22l0.03,7.71c0,0.35,0.04,0.62,0.13,0.79s0.23,0.29,0.42,0.34
					c0.19,0.05,0.44,0.08,0.74,0.08h1.95v2.52c-0.19,0.08-0.48,0.16-0.88,0.24c-0.4,0.07-0.95,0.11-1.66,0.11
					c-1.27,0-2.25-0.16-2.95-0.49c-0.7-0.33-1.18-0.78-1.45-1.37s-0.41-1.27-0.41-2.04v-7.88h-2.35V9.23h2.49l1.02-4.37h2.91v4.35
					h3.22V12.07z"/>
				<path class="st2" d="M220.74,17.4c-0.01,0.74,0.11,1.38,0.35,1.92c0.24,0.55,0.59,0.97,1.06,1.26s1.02,0.44,1.67,0.44
					c0.7,0,1.31-0.15,1.84-0.45s0.89-0.79,1.1-1.47h3.68c-0.16,1.03-0.57,1.9-1.22,2.63c-0.66,0.73-1.45,1.28-2.39,1.67
					c-0.93,0.38-1.9,0.57-2.91,0.57c-1.43,0-2.69-0.3-3.77-0.9c-1.09-0.6-1.93-1.45-2.54-2.55c-0.61-1.1-0.91-2.4-0.91-3.89
					c0-1.45,0.27-2.75,0.83-3.91c0.55-1.16,1.35-2.08,2.4-2.76s2.31-1.01,3.79-1.01s2.71,0.31,3.72,0.93c1,0.62,1.76,1.48,2.27,2.59
					c0.51,1.11,0.76,2.38,0.76,3.83v1.11H220.74z M220.73,14.96h5.91c0-0.58-0.11-1.11-0.32-1.6s-0.54-0.87-0.97-1.15
					c-0.43-0.28-0.98-0.42-1.63-0.42c-0.63,0-1.17,0.15-1.62,0.46c-0.44,0.3-0.78,0.7-1.01,1.18
					C220.85,13.92,220.73,14.43,220.73,14.96z"/>
				<path class="st2" d="M233.3,23.7V9.23h4v2.04c0.44-0.63,1.03-1.18,1.77-1.64c0.74-0.46,1.68-0.69,2.81-0.69
					c0.49,0,1,0.09,1.51,0.27c0.51,0.18,1,0.44,1.45,0.78c0.45,0.34,0.82,0.77,1.1,1.28c0.47-0.66,1.08-1.22,1.84-1.66
					c0.76-0.44,1.61-0.67,2.54-0.67c0.54,0,1.09,0.09,1.64,0.27c0.56,0.18,1.07,0.47,1.53,0.87s0.84,0.94,1.13,1.6
					c0.28,0.67,0.43,1.49,0.43,2.47v9.55h-4.09v-9.04c0-0.58-0.11-1.04-0.34-1.39c-0.23-0.35-0.52-0.6-0.87-0.76
					c-0.35-0.15-0.72-0.23-1.11-0.23c-0.36,0-0.73,0.07-1.11,0.22c-0.37,0.14-0.69,0.38-0.95,0.69c-0.26,0.32-0.39,0.73-0.39,1.25
					v9.27h-4.07v-9.41c0-0.44-0.12-0.81-0.35-1.11s-0.52-0.53-0.88-0.68c-0.35-0.15-0.71-0.23-1.07-0.23
					c-0.37,0-0.75,0.08-1.12,0.23c-0.37,0.15-0.69,0.39-0.94,0.71c-0.25,0.32-0.38,0.73-0.38,1.21v9.27H233.3z"/>
			</g>
		</g>
	</g>
</g>
<g id="nde_x5F_color_x5F_acronym_copy">
	<g>
		<g>
			<g>
				<g>
					<path class="st6" d="M22.04,5.51v8.87h-1.55h0v-4h-4.04v4H14.9V5.51h1.55v3.53h4.04V5.51h0H22.04z M13.34,14.37L13.34,14.37
						h-1.55V5.51h1.55V14.37z M10.26,14.37L10.26,14.37H8.62L4.59,7.85H4.55v6.52H3.07l0,0V5.51l0,0h1.64h0l4.05,6.53h0.03V5.51
						h1.48V14.37z M27.5,9.91L22.02,0H1.83C0.82,0,0,0.82,0,1.83v16.18c0,1.01,0.82,1.82,1.83,1.82H22L27.5,9.91z"/>
					<path class="st8" d="M23.38,19.83l5.5-9.92L23.4,0h1.37c0.75,0,1.66,0.54,2.03,1.19l4.82,8.71l-4.83,8.73
						c-0.36,0.66-1.27,1.19-2.03,1.19H23.38z"/>
					<path class="st6" d="M23.38,19.83l5.5-9.92L23.4,0h1.37c0.75,0,1.66,0.54,2.03,1.19l4.82,8.71l-4.83,8.73
						c-0.36,0.66-1.28,1.19-2.03,1.19H23.38z"/>
				</g>
			</g>
			<g>
				<path class="st6" d="M0.98,22.72h1.35l3.33,5.37h0.02v-5.37h1.21V30H5.54l-3.32-5.36H2.2V30H0.98V22.72z"/>
				<path class="st6" d="M8.4,22.72h1.27V30H8.4V22.72z"/>
				<path class="st6" d="M13.18,22.72h1.36L17.34,30h-1.37l-0.68-1.93h-2.91L11.7,30h-1.32L13.18,22.72z M12.73,27.1h2.22
					l-1.09-3.13h-0.03L12.73,27.1z"/>
				<path class="st6" d="M18.04,22.72h1.27V30h-1.27V22.72z"/>
				<path class="st6" d="M20.87,22.72h3.02c2.24,0,3.21,1.63,3.21,3.64c0,2.01-0.97,3.64-3.21,3.64h-3.02V22.72z M22.15,28.96h1.25
					c2,0,2.43-1.14,2.43-2.6c0-1.46-0.43-2.6-2.43-2.6h-1.25V28.96z"/>
			</g>
		</g>
		<line class="st7" x1="37.84" y1="0" x2="37.84" y2="30"/>
		<g>
			<g>
				<path class="st6" d="M44.11,3.46c0.1,0,0.39,0,0.86,0s1.03,0,1.67,0s1.28,0,1.92,0.01c0.64,0,1.17,0.01,1.6,0.02
					c2.45,0.06,4.46,0.5,6.01,1.32c1.55,0.82,2.69,1.97,3.41,3.44s1.08,3.22,1.08,5.24c0,2.1-0.38,3.91-1.15,5.44
					c-0.77,1.53-1.93,2.71-3.51,3.54c-1.57,0.83-3.57,1.25-5.99,1.25h-5.91V3.46z M48.23,6.76V20.4h1.88c1.16,0,2.21-0.22,3.16-0.67
					c0.95-0.45,1.71-1.18,2.27-2.2s0.85-2.38,0.85-4.07c0-1.58-0.25-2.86-0.76-3.84s-1.22-1.71-2.16-2.16
					c-0.93-0.46-2.04-0.69-3.32-0.69H48.23z"/>
				<path class="st6" d="M67.95,23.98c-0.92,0-1.75-0.17-2.49-0.52c-0.74-0.34-1.32-0.85-1.75-1.5s-0.64-1.46-0.64-2.4
					c0-1.59,0.59-2.79,1.78-3.62c1.19-0.83,3.06-1.25,5.61-1.28l1.81-0.03v-0.87c0-0.66-0.19-1.17-0.58-1.53
					c-0.39-0.36-0.99-0.53-1.8-0.53c-0.6,0.01-1.16,0.15-1.7,0.42c-0.54,0.27-0.9,0.74-1.1,1.41h-3.4c0.06-1.04,0.36-1.91,0.91-2.58
					s1.3-1.18,2.25-1.51s2.02-0.5,3.23-0.5c1.48,0,2.67,0.18,3.57,0.55c0.9,0.37,1.54,0.9,1.95,1.58c0.4,0.69,0.6,1.5,0.6,2.44V23.7
					h-3.42l-0.34-2.49c-0.5,1.05-1.11,1.77-1.85,2.17C69.83,23.78,68.96,23.98,67.95,23.98z M69.32,21.29c0.37,0,0.74-0.07,1.09-0.2
					c0.35-0.13,0.66-0.32,0.94-0.55c0.27-0.23,0.5-0.49,0.66-0.78c0.17-0.29,0.25-0.59,0.25-0.9v-2.14l-1.47,0.03
					c-0.68,0.01-1.32,0.09-1.9,0.25c-0.59,0.15-1.06,0.4-1.42,0.75c-0.36,0.35-0.54,0.81-0.54,1.4c0,0.67,0.23,1.2,0.7,1.58
					S68.66,21.29,69.32,21.29z"/>
				<path class="st6" d="M87.98,12.07h-3.22l0.03,7.71c0,0.35,0.04,0.62,0.13,0.79c0.09,0.17,0.23,0.29,0.42,0.34
					c0.19,0.05,0.44,0.08,0.73,0.08h1.95v2.52c-0.19,0.08-0.48,0.16-0.88,0.24c-0.4,0.07-0.95,0.11-1.66,0.11
					c-1.27,0-2.25-0.16-2.95-0.49c-0.7-0.33-1.18-0.78-1.45-1.37c-0.27-0.59-0.41-1.27-0.41-2.04v-7.88h-2.35V9.23h2.49l1.02-4.37
					h2.91v4.35h3.22V12.07z"/>
				<path class="st6" d="M95.15,23.98c-0.92,0-1.75-0.17-2.49-0.52c-0.74-0.34-1.32-0.85-1.75-1.5s-0.64-1.46-0.64-2.4
					c0-1.59,0.59-2.79,1.78-3.62c1.19-0.83,3.06-1.25,5.61-1.28l1.81-0.03v-0.87c0-0.66-0.19-1.17-0.58-1.53
					c-0.39-0.36-0.99-0.53-1.8-0.53c-0.6,0.01-1.16,0.15-1.7,0.42c-0.54,0.27-0.9,0.74-1.1,1.41h-3.4c0.06-1.04,0.36-1.91,0.91-2.58
					s1.3-1.18,2.25-1.51s2.02-0.5,3.23-0.5c1.48,0,2.67,0.18,3.57,0.55c0.9,0.37,1.54,0.9,1.95,1.58c0.4,0.69,0.6,1.5,0.6,2.44V23.7
					h-3.42l-0.34-2.49c-0.5,1.05-1.11,1.77-1.85,2.17C97.04,23.78,96.16,23.98,95.15,23.98z M96.52,21.29c0.37,0,0.74-0.07,1.09-0.2
					c0.35-0.13,0.66-0.32,0.94-0.55c0.27-0.23,0.5-0.49,0.66-0.78c0.17-0.29,0.25-0.59,0.25-0.9v-2.14l-1.47,0.03
					c-0.68,0.01-1.32,0.09-1.9,0.25c-0.59,0.15-1.06,0.4-1.42,0.75c-0.36,0.35-0.54,0.81-0.54,1.4c0,0.67,0.23,1.2,0.7,1.58
					S95.86,21.29,96.52,21.29z"/>
				<path class="st6" d="M113.46,23.7V3.46h13.9l-0.01,3.44h-9.79v4.91h8.5v3.37h-8.53v5.03l9.97,0.01v3.47H113.46z"/>
				<path class="st6" d="M136.83,8.94c1.21,0,2.26,0.25,3.14,0.74c0.88,0.49,1.58,1.16,2.09,2c0.51,0.84,0.8,1.78,0.88,2.81h-3.4
					c-0.07-0.38-0.2-0.76-0.41-1.14c-0.21-0.38-0.49-0.69-0.87-0.94c-0.37-0.25-0.84-0.37-1.4-0.37c-0.95,0-1.72,0.37-2.32,1.1
					c-0.59,0.73-0.89,1.85-0.89,3.34c0,1.41,0.29,2.53,0.87,3.35c0.58,0.83,1.39,1.24,2.42,1.24c0.55,0,1.01-0.13,1.38-0.41
					c0.37-0.27,0.66-0.59,0.86-0.97c0.21-0.38,0.34-0.73,0.39-1.06h3.32c-0.07,1-0.35,1.9-0.87,2.71s-1.21,1.45-2.09,1.92
					c-0.88,0.47-1.92,0.71-3.1,0.71c-1.34,0-2.54-0.3-3.6-0.9c-1.05-0.6-1.88-1.45-2.48-2.57s-0.9-2.45-0.9-4
					c0-1.49,0.29-2.81,0.87-3.95s1.39-2.03,2.44-2.67C134.21,9.26,135.43,8.94,136.83,8.94z"/>
				<path class="st6" d="M151.96,23.98c-1.42,0-2.65-0.3-3.7-0.91c-1.05-0.61-1.86-1.46-2.44-2.58c-0.57-1.11-0.86-2.43-0.86-3.95
					c0-1.52,0.29-2.85,0.86-3.99c0.57-1.14,1.39-2.03,2.44-2.66c1.05-0.63,2.29-0.95,3.72-0.95s2.66,0.31,3.71,0.93
					c1.05,0.62,1.85,1.5,2.42,2.64s0.85,2.48,0.85,4.03c0,1.46-0.28,2.74-0.83,3.86s-1.35,1.99-2.39,2.63
					C154.7,23.66,153.44,23.98,151.96,23.98z M151.98,20.94c0.72,0,1.3-0.21,1.74-0.63c0.44-0.42,0.76-0.97,0.96-1.66
					c0.2-0.69,0.3-1.44,0.3-2.25c0-0.77-0.09-1.49-0.27-2.17c-0.18-0.68-0.49-1.23-0.93-1.65c-0.44-0.42-1.04-0.63-1.79-0.63
					c-0.72,0-1.3,0.2-1.74,0.59c-0.44,0.4-0.77,0.93-0.97,1.61c-0.21,0.68-0.31,1.43-0.31,2.25c0,0.76,0.09,1.48,0.28,2.18
					s0.5,1.26,0.94,1.7C150.61,20.72,151.21,20.94,151.98,20.94z"/>
				<path class="st6" d="M167.36,23.98c-1.01,0-1.98-0.17-2.91-0.5c-0.93-0.33-1.72-0.85-2.37-1.57c-0.64-0.71-1.06-1.64-1.23-2.78
					h3.54c0.12,0.51,0.34,0.92,0.67,1.22c0.32,0.3,0.69,0.51,1.1,0.64s0.8,0.19,1.18,0.19c0.78,0,1.42-0.12,1.9-0.37
					c0.48-0.25,0.72-0.63,0.72-1.14c0-0.39-0.14-0.7-0.43-0.94c-0.29-0.23-0.75-0.41-1.41-0.53l-2.55-0.53
					c-1.28-0.27-2.31-0.73-3.08-1.38c-0.77-0.65-1.17-1.57-1.19-2.76c0-0.87,0.23-1.65,0.69-2.34c0.46-0.69,1.15-1.24,2.05-1.64
					c0.9-0.4,2.02-0.6,3.33-0.6c1.78,0,3.21,0.39,4.28,1.18c1.07,0.78,1.61,1.89,1.63,3.32h-3.42c-0.1-0.56-0.38-0.99-0.83-1.29
					c-0.45-0.3-1.02-0.46-1.7-0.46c-0.71,0-1.29,0.13-1.75,0.38c-0.46,0.25-0.69,0.63-0.69,1.15c0,0.38,0.19,0.68,0.56,0.9
					c0.37,0.22,0.95,0.41,1.74,0.57l2.35,0.53c0.81,0.2,1.47,0.46,1.98,0.81c0.51,0.34,0.9,0.71,1.18,1.11
					c0.28,0.4,0.47,0.81,0.58,1.21c0.11,0.41,0.16,0.77,0.16,1.1c0,0.96-0.26,1.78-0.77,2.46s-1.23,1.19-2.14,1.55
					S168.57,23.98,167.36,23.98z"/>
				<path class="st6" d="M178.47,28.32c-0.99,0-1.89-0.16-2.7-0.49v-2.6l1.43,0.06c0.63,0.04,1.13,0.01,1.51-0.09
					c0.38-0.1,0.67-0.23,0.88-0.38c0.2-0.16,0.34-0.33,0.43-0.5c0.08-0.17,0.14-0.31,0.18-0.41l0.27-0.8l-5.63-13.87h4.05l3.47,9.44
					l3.51-9.44h3.99l-5.87,14.56c-0.5,1.23-1.04,2.17-1.6,2.83s-1.16,1.1-1.81,1.34C179.92,28.2,179.22,28.32,178.47,28.32z"/>
				<path class="st6" d="M197.25,23.98c-1.01,0-1.98-0.17-2.91-0.5c-0.93-0.33-1.72-0.85-2.37-1.57c-0.64-0.71-1.06-1.64-1.23-2.78
					h3.54c0.12,0.51,0.34,0.92,0.67,1.22c0.32,0.3,0.69,0.51,1.1,0.64s0.8,0.19,1.18,0.19c0.78,0,1.42-0.12,1.9-0.37
					c0.48-0.25,0.72-0.63,0.72-1.14c0-0.39-0.14-0.7-0.43-0.94c-0.29-0.23-0.75-0.41-1.41-0.53l-2.55-0.53
					c-1.28-0.27-2.31-0.73-3.08-1.38c-0.77-0.65-1.17-1.57-1.19-2.76c0-0.87,0.23-1.65,0.69-2.34c0.46-0.69,1.15-1.24,2.05-1.64
					c0.9-0.4,2.02-0.6,3.33-0.6c1.78,0,3.21,0.39,4.28,1.18c1.07,0.78,1.61,1.89,1.63,3.32h-3.42c-0.1-0.56-0.38-0.99-0.83-1.29
					c-0.45-0.3-1.02-0.46-1.7-0.46c-0.71,0-1.29,0.13-1.75,0.38c-0.46,0.25-0.69,0.63-0.69,1.15c0,0.38,0.19,0.68,0.56,0.9
					c0.37,0.22,0.95,0.41,1.74,0.57l2.35,0.53c0.81,0.2,1.47,0.46,1.98,0.81c0.51,0.34,0.9,0.71,1.18,1.11
					c0.28,0.4,0.47,0.81,0.58,1.21c0.11,0.41,0.16,0.77,0.16,1.1c0,0.96-0.26,1.78-0.77,2.46s-1.23,1.19-2.14,1.55
					S198.46,23.98,197.25,23.98z"/>
				<path class="st6" d="M214.85,12.07h-3.22l0.03,7.71c0,0.35,0.04,0.62,0.13,0.79s0.23,0.29,0.42,0.34
					c0.19,0.05,0.44,0.08,0.74,0.08h1.95v2.52c-0.19,0.08-0.48,0.16-0.88,0.24c-0.4,0.07-0.95,0.11-1.66,0.11
					c-1.27,0-2.25-0.16-2.95-0.49c-0.7-0.33-1.18-0.78-1.45-1.37s-0.41-1.27-0.41-2.04v-7.88h-2.35V9.23h2.49l1.02-4.37h2.91v4.35
					h3.22V12.07z"/>
				<path class="st6" d="M220.74,17.4c-0.01,0.74,0.11,1.38,0.35,1.92c0.24,0.55,0.59,0.97,1.06,1.26s1.02,0.44,1.67,0.44
					c0.7,0,1.31-0.15,1.84-0.45s0.89-0.79,1.1-1.47h3.68c-0.16,1.03-0.57,1.9-1.22,2.63c-0.66,0.73-1.45,1.28-2.39,1.67
					c-0.93,0.38-1.9,0.57-2.91,0.57c-1.43,0-2.69-0.3-3.77-0.9c-1.09-0.6-1.93-1.45-2.54-2.55c-0.61-1.1-0.91-2.4-0.91-3.89
					c0-1.45,0.27-2.75,0.83-3.91c0.55-1.16,1.35-2.08,2.4-2.76s2.31-1.01,3.79-1.01s2.71,0.31,3.72,0.93c1,0.62,1.76,1.48,2.27,2.59
					c0.51,1.11,0.76,2.38,0.76,3.83v1.11H220.74z M220.73,14.96h5.91c0-0.58-0.11-1.11-0.32-1.6s-0.54-0.87-0.97-1.15
					c-0.43-0.28-0.98-0.42-1.63-0.42c-0.63,0-1.17,0.15-1.62,0.46c-0.44,0.3-0.78,0.7-1.01,1.18
					C220.85,13.92,220.73,14.43,220.73,14.96z"/>
				<path class="st6" d="M233.3,23.7V9.23h4v2.04c0.44-0.63,1.03-1.18,1.77-1.64c0.74-0.46,1.68-0.69,2.81-0.69
					c0.49,0,1,0.09,1.51,0.27c0.51,0.18,1,0.44,1.45,0.78c0.45,0.34,0.82,0.77,1.1,1.28c0.47-0.66,1.08-1.22,1.84-1.66
					c0.76-0.44,1.61-0.67,2.54-0.67c0.54,0,1.09,0.09,1.64,0.27c0.56,0.18,1.07,0.47,1.53,0.87s0.84,0.94,1.13,1.6
					c0.28,0.67,0.43,1.49,0.43,2.47v9.55h-4.09v-9.04c0-0.58-0.11-1.04-0.34-1.39c-0.23-0.35-0.52-0.6-0.87-0.76
					c-0.35-0.15-0.72-0.23-1.11-0.23c-0.36,0-0.73,0.07-1.11,0.22c-0.37,0.14-0.69,0.38-0.95,0.69c-0.26,0.32-0.39,0.73-0.39,1.25
					v9.27h-4.07v-9.41c0-0.44-0.12-0.81-0.35-1.11s-0.52-0.53-0.88-0.68c-0.35-0.15-0.71-0.23-1.07-0.23
					c-0.37,0-0.75,0.08-1.12,0.23c-0.37,0.15-0.69,0.39-0.94,0.71c-0.25,0.32-0.38,0.73-0.38,1.21v9.27H233.3z"/>
			</g>
		</g>
	</g>
</g>
</svg>
