<?xml version="1.0" encoding="utf-8"?>
<!-- Generator: Adobe Illustrator 24.1.2, SVG Export Plug-In . SVG Version: 6.00 Build 0)  -->
<svg version="1.1" id="Layer_1" xmlns="http://www.w3.org/2000/svg" xmlns:xlink="http://www.w3.org/1999/xlink" x="0px" y="0px"
	 viewBox="0 0 417.5 40" enable-background="new 0 0 417.5 40" xml:space="preserve">
<path id="nde-desktop" fill="#FFFFFF" d="M31.6,5.8h5.6v27.3h-5L19.2,14.3v18.8h-5.6V5.8h5.5l12.5,18.1V5.8z M43.2,5.8h5.5v27.3
	h-5.5V5.8z M52.8,33.1l9.8-27.3h5.8l9.8,27.3h-5.5l-2.2-6.3h-9.8l-2.2,6.3H52.8z M61.9,22h7.3l-3.6-10.9L61.9,22z M82.3,5.8h5.5
	v27.3h-5.5V5.8z M94,5.8h6h2.2c2.8,0,5.6,0.6,8.1,1.8c2,1,3.6,2.7,4.6,4.7c1,2.2,1.5,4.6,1.5,7.1c0.1,2.5-0.5,5-1.5,7.3
	c-1,2.1-2.7,3.7-4.7,4.8c-2.5,1.2-5.3,1.8-8.1,1.7h-8V5.8z M99.5,10.2v18.4h2.5c1.5,0,2.9-0.3,4.3-0.9c1.3-0.6,2.4-1.7,3.1-3
	c0.8-1.7,1.2-3.6,1.1-5.5c0.1-1.8-0.3-3.6-1-5.2c-0.6-1.3-1.6-2.3-2.9-2.9c-1.4-0.6-2.9-1-4.4-0.9L99.5,10.2z M130.9,5.8h6h2.2
	c2.8,0,5.6,0.6,8.1,1.8c2,1,3.6,2.6,4.6,4.6c1,2.2,1.5,4.6,1.5,7.1c0.1,2.5-0.5,5-1.6,7.3c-1,2.1-2.7,3.7-4.7,4.8
	c-2.5,1.2-5.3,1.8-8.1,1.7h-8L130.9,5.8z M136.5,10.2v18.4h2.5c1.5,0,2.9-0.3,4.3-0.9c1.3-0.6,2.4-1.7,3.1-3
	c0.8-1.7,1.2-3.6,1.1-5.5c0.1-1.8-0.3-3.6-1-5.2c-0.6-1.3-1.6-2.3-2.9-2.9c-1.4-0.6-2.9-1-4.4-0.9L136.5,10.2z M163.1,33.5
	c-1.2,0-2.3-0.2-3.3-0.7c-1-0.4-1.8-1.1-2.4-2c-0.6-1-0.9-2.1-0.9-3.2c-0.1-1.9,0.8-3.8,2.4-4.9c1.6-1.1,4.1-1.7,7.6-1.7h2.4v-1.2
	c0-0.8-0.2-1.5-0.8-2.1c-0.7-0.5-1.6-0.8-2.4-0.7c-0.8,0-1.6,0.2-2.3,0.6c-0.7,0.4-1.3,1.1-1.5,1.9h-4.6c0-1.3,0.5-2.5,1.2-3.5
	c0.8-1,1.8-1.7,3-2c1.4-0.5,2.9-0.7,4.4-0.7c1.6-0.1,3.3,0.2,4.8,0.7c1.1,0.4,2,1.2,2.6,2.1c0.6,1,0.9,2.2,0.8,3.3v13.7h-4.6
	l-0.5-3.3c-0.5,1.2-1.4,2.2-2.5,2.9C165.5,33.2,164.3,33.5,163.1,33.5z M164.9,29.9c0.5,0,1-0.1,1.5-0.3c0.5-0.2,0.9-0.4,1.3-0.7
	c0.4-0.3,0.7-0.6,0.9-1c0.2-0.4,0.3-0.8,0.3-1.2v-2.9h-2c-0.9,0-1.7,0.1-2.6,0.3c-0.7,0.2-1.4,0.5-1.9,1c-0.5,0.5-0.8,1.2-0.7,1.9
	c0,0.9,0.3,1.7,1,2.2C163.3,29.6,164.1,29.9,164.9,29.9z M190.1,17.4h-4.3v10.4c0,0.4,0,0.8,0.2,1.1c0.1,0.2,0.3,0.4,0.6,0.5
	c0.3,0.1,0.7,0.1,1,0.1h2.6v3.4c-0.4,0.1-0.8,0.3-1.2,0.3c-0.7,0.1-1.5,0.2-2.2,0.2c-1.4,0.1-2.7-0.2-4-0.7c-0.9-0.4-1.6-1-2-1.8
	c-0.4-0.9-0.6-1.8-0.6-2.8V17.4h-3.1v-3.8h3.3l1.4-5.9h3.9v5.9h4.3V17.4z M199.8,33.5c-1.2,0-2.3-0.2-3.3-0.7c-1-0.4-1.8-1.1-2.4-2
	c-0.6-1-0.9-2.1-0.9-3.2c-0.1-1.9,0.8-3.8,2.4-4.9c1.6-1.1,4.1-1.7,7.6-1.7h2.4v-1.2c0-0.8-0.2-1.5-0.8-2.1
	c-0.7-0.5-1.6-0.8-2.4-0.7c-0.8,0-1.6,0.2-2.3,0.6c-0.7,0.4-1.3,1.1-1.5,1.9h-4.6c0-1.3,0.5-2.5,1.2-3.5c0.8-0.9,1.8-1.7,3-2
	c1.4-0.5,2.9-0.7,4.4-0.7c1.6-0.1,3.3,0.2,4.8,0.7c1.1,0.4,2,1.2,2.6,2.1c0.6,1,0.9,2.2,0.8,3.3v13.7h-4.6l-0.5-3.3
	c-0.5,1.2-1.4,2.2-2.5,2.9C202.2,33.2,201,33.5,199.8,33.5z M201.7,29.9c0.5,0,1-0.1,1.5-0.3c0.5-0.2,0.9-0.4,1.3-0.7
	c0.4-0.3,0.7-0.6,0.9-1c0.2-0.4,0.3-0.8,0.3-1.2v-2.9h-2c-0.9,0-1.7,0.1-2.6,0.3c-0.7,0.2-1.4,0.5-1.9,1c-0.5,0.5-0.8,1.2-0.7,1.9
	c-0.1,0.8,0.3,1.7,0.9,2.2C200,29.6,200.9,29.9,201.7,29.9z M226.3,33.1V5.8H245v4.6h-13.2v6.7h11.5v4.5h-11.5v6.8h13.5v4.7
	L226.3,33.1z M257.8,13.2c1.5,0,2.9,0.3,4.2,1c1.2,0.6,2.1,1.6,2.8,2.7c0.7,1.2,1.1,2.5,1.2,3.8h-4.6c-0.1-0.5-0.3-1.1-0.5-1.5
	c-0.3-0.5-0.7-1-1.2-1.3c-0.6-0.4-1.2-0.5-1.9-0.5c-1.2,0-2.4,0.5-3.1,1.5c-0.9,1.3-1.3,2.9-1.2,4.5c-0.1,1.6,0.3,3.2,1.2,4.5
	c0.7,1.1,2,1.7,3.3,1.7c0.7,0,1.3-0.2,1.9-0.5c0.5-0.4,0.8-0.8,1.1-1.3c0.2-0.4,0.4-0.9,0.5-1.4h4.4c-0.1,1.3-0.4,2.5-1.1,3.6
	c-0.7,1.1-1.7,1.9-2.8,2.5c-1.3,0.7-2.7,1-4.2,1c-1.7,0-3.4-0.4-4.9-1.2c-1.4-0.8-2.6-2-3.3-3.5c-0.8-1.7-1.3-3.5-1.2-5.4
	c-0.1-1.8,0.3-3.7,1.1-5.3c0.7-1.5,1.9-2.7,3.3-3.6C254.3,13.6,256.1,13.1,257.8,13.2z M278.2,33.5c-1.7,0-3.5-0.4-5-1.2
	c-1.4-0.8-2.6-2-3.3-3.5c-0.8-1.7-1.2-3.5-1.1-5.3c-0.1-1.9,0.3-3.7,1.1-5.4c0.7-1.5,1.9-2.7,3.3-3.6c3.1-1.7,6.9-1.7,10,0
	c1.4,0.8,2.6,2.1,3.3,3.6c0.8,1.7,1.2,3.6,1.1,5.4c0,1.8-0.3,3.6-1.1,5.2c-0.7,1.5-1.8,2.7-3.2,3.5C281.8,33.1,280,33.5,278.2,33.5z
	 M278.2,29.4c0.9,0,1.7-0.3,2.3-0.8c0.6-0.6,1.1-1.4,1.3-2.2c0.3-1,0.4-2,0.4-3c0-1-0.1-2-0.4-2.9c-0.2-0.8-0.6-1.6-1.3-2.2
	c-1.4-1.1-3.4-1.1-4.8,0c-0.6,0.6-1.1,1.4-1.3,2.2c-0.3,1-0.4,2-0.4,3c0,1,0.1,2,0.4,2.9c0.2,0.9,0.7,1.7,1.3,2.3
	C276.5,29.2,277.4,29.5,278.2,29.4L278.2,29.4z M299,33.5c-1.3,0-2.7-0.2-3.9-0.7c-1.2-0.4-2.3-1.2-3.2-2.1
	c-0.9-1.1-1.5-2.4-1.7-3.8h4.8c0.1,0.6,0.4,1.2,0.9,1.6c0.4,0.4,0.9,0.7,1.5,0.9c0.5,0.2,1.1,0.3,1.6,0.3c0.9,0,1.8-0.1,2.6-0.5
	c0.6-0.3,1-0.9,1-1.5c0-0.5-0.2-1-0.6-1.3c-0.6-0.4-1.2-0.6-1.9-0.7l-3.4-0.7c-1.5-0.3-2.9-0.9-4.2-1.9c-1.1-0.9-1.7-2.3-1.6-3.7
	c0-1.1,0.3-2.2,0.9-3.1c0.7-1,1.7-1.8,2.8-2.2c1.4-0.6,2.9-0.9,4.4-0.8c2-0.1,4.1,0.4,5.8,1.6c1.4,1,2.3,2.7,2.2,4.4h-4.6
	c-0.1-0.7-0.5-1.3-1.1-1.7c-0.7-0.4-1.5-0.6-2.3-0.6c-0.8,0-1.6,0.1-2.4,0.5c-0.6,0.3-1,0.9-0.9,1.5c0,0.5,0.3,1,0.8,1.2
	c0.7,0.4,1.5,0.6,2.3,0.8l3.2,0.7c0.9,0.2,1.9,0.6,2.7,1.1c0.6,0.4,1.2,0.9,1.6,1.5c0.4,0.5,0.6,1,0.8,1.6c0.1,0.5,0.2,1,0.2,1.5
	c0,1.2-0.3,2.4-1,3.3c-0.8,1-1.8,1.7-2.9,2.1C301.9,33.3,300.5,33.5,299,33.5z M314,39.3c-1.2,0-2.5-0.2-3.6-0.7v-3.5l1.9,0.1
	c0.7,0.1,1.4,0,2-0.1c0.4-0.1,0.8-0.3,1.2-0.5c0.2-0.2,0.4-0.4,0.6-0.7c0.1-0.2,0.2-0.4,0.2-0.6l0.4-1.1l-7.6-18.7h5.5l4.7,12.7
	l4.7-12.7h5.4l-7.9,19.6c-0.5,1.4-1.2,2.7-2.2,3.8c-0.6,0.8-1.5,1.4-2.4,1.8C316,39.2,315,39.3,314,39.3z M339.4,33.5
	c-1.3,0-2.7-0.2-3.9-0.7c-1.2-0.4-2.3-1.2-3.2-2.1c-0.9-1.1-1.5-2.4-1.7-3.8h4.8c0.1,0.6,0.4,1.2,0.9,1.6c0.4,0.4,0.9,0.7,1.5,0.9
	c0.5,0.2,1.1,0.3,1.6,0.3c0.9,0,1.8-0.1,2.6-0.5c0.6-0.3,1-0.9,1-1.5c0-0.5-0.2-1-0.6-1.3c-0.6-0.4-1.2-0.6-1.9-0.7l-3.4-0.7
	c-1.5-0.3-2.9-0.9-4.1-1.8c-1.1-0.9-1.7-2.3-1.6-3.7c0-1.1,0.3-2.2,0.9-3.1c0.7-1,1.7-1.8,2.8-2.2c1.4-0.6,3-0.9,4.5-0.8
	c2-0.1,4.1,0.4,5.8,1.6c1.4,1,2.3,2.7,2.2,4.4h-4.6c-0.1-0.7-0.5-1.3-1.1-1.7c-0.7-0.4-1.5-0.6-2.3-0.6c-0.8,0-1.6,0.1-2.4,0.5
	c-0.6,0.3-0.9,0.9-0.9,1.5c0,0.5,0.3,1,0.8,1.2c0.7,0.4,1.5,0.6,2.3,0.8l3.2,0.7c1,0.2,1.9,0.6,2.7,1.1c0.6,0.4,1.2,0.9,1.6,1.5
	c0.4,0.5,0.6,1,0.8,1.6c0.1,0.5,0.2,1,0.2,1.5c0,1.2-0.3,2.4-1,3.3c-0.7,1-1.8,1.7-2.9,2.1C342.3,33.3,340.9,33.5,339.4,33.5z
	 M363.2,17.4h-4.3v10.4c0,0.4,0,0.8,0.2,1.1c0.1,0.2,0.3,0.4,0.6,0.5c0.3,0.1,0.7,0.1,1,0.1h2.6v3.4c-0.4,0.1-0.8,0.3-1.2,0.3
	c-0.7,0.1-1.5,0.2-2.2,0.2c-1.4,0.1-2.7-0.2-4-0.7c-0.9-0.4-1.6-1-2-1.8c-0.4-0.9-0.6-1.8-0.6-2.8V17.4h-3.2v-3.8h3.3l1.4-5.9h3.9
	v5.9h4.3L363.2,17.4z M371.1,24.6c0,0.9,0.1,1.8,0.5,2.6c0.3,0.7,0.8,1.3,1.4,1.7c0.7,0.4,1.4,0.6,2.2,0.6c0.9,0,1.7-0.2,2.5-0.6
	c0.8-0.4,1.3-1.1,1.5-2h5c-0.2,1.3-0.8,2.6-1.7,3.5c-0.9,1-2,1.7-3.2,2.2c-1.2,0.5-2.6,0.8-3.9,0.8c-1.8,0-3.5-0.4-5.1-1.2
	c-1.4-0.8-2.6-2-3.4-3.4c-0.8-1.6-1.3-3.4-1.2-5.2c0-1.8,0.4-3.6,1.1-5.3c0.7-1.5,1.8-2.8,3.2-3.7c3.1-1.8,7-1.8,10.1-0.1
	c1.4,0.8,2.4,2,3.1,3.5c0.7,1.6,1.1,3.4,1,5.2v1.5L371.1,24.6z M371.1,21.3h8c0-0.7-0.1-1.5-0.4-2.2c-0.3-0.6-0.8-1.1-1.3-1.5
	c-0.7-0.4-1.4-0.6-2.2-0.6c-0.8,0-1.6,0.2-2.2,0.6c-0.6,0.4-1.1,1-1.4,1.6C371.2,19.9,371.1,20.6,371.1,21.3L371.1,21.3z
	 M388.1,33.1V13.6h5.4v2.8c0.6-0.9,1.4-1.7,2.4-2.2c1.2-0.7,2.5-1,3.8-0.9c0.7,0,1.4,0.1,2,0.4c0.7,0.2,1.4,0.6,2,1
	c0.6,0.5,1.1,1.1,1.5,1.7c0.7-0.9,1.5-1.7,2.5-2.2c1-0.6,2.2-0.9,3.4-0.9c0.8,0,1.5,0.1,2.2,0.4c0.8,0.2,1.5,0.6,2.1,1.1
	c0.7,0.6,1.2,1.4,1.5,2.2c0.4,1.1,0.6,2.2,0.6,3.3v12.9h-5.6V20.9c0-0.7-0.1-1.3-0.5-1.9c-0.3-0.4-0.6-0.8-1.1-1
	c-0.5-0.2-1-0.3-1.5-0.3c-0.5,0-1,0.2-1.4,0.4c-0.5,0.2-0.9,0.5-1.3,0.9c-0.4,0.5-0.6,1.1-0.5,1.7v12.5H400V20.4
	c0-0.5-0.2-1.1-0.5-1.5c-0.3-0.4-0.7-0.7-1.2-0.9c-0.5-0.2-0.9-0.3-1.4-0.3c-0.5,0-1,0.1-1.5,0.3c-0.5,0.2-0.9,0.5-1.3,1
	c-0.4,0.5-0.5,1-0.5,1.6v12.5H388.1z M0,0v40"/>
</svg>
