<?xml version="1.0" encoding="utf-8"?>
<!-- Generator: Adobe Illustrator 24.1.2, SVG Export Plug-In . SVG Version: 6.00 Build 0)  -->
<svg version="1.1" xmlns="http://www.w3.org/2000/svg" xmlns:xlink="http://www.w3.org/1999/xlink" x="0px" y="0px"
	 viewBox="0 0 433.66 36" style="enable-background:new 0 0 433.66 36;" xml:space="preserve">
<style type="text/css">
	.st0{display:none;}
	.st1{display:inline;}
	.st2{fill:#616365;}
	.st3{fill:none;stroke:#616365;stroke-width:0.5;stroke-miterlimit:10;}
	.st4{fill:#636569;}
	.st5{fill:#316094;}
	.st6{fill:#FFFFFF;}
	.st7{fill:none;stroke:#FFFFFF;stroke-width:0.5;stroke-miterlimit:10;}
	.st8{display:none;fill:#636569;}
</style>
<g id="nde_x5F_color" class="st0">
	<g class="st1">
		<g>
			<path class="st2" d="M172.5,5.21c0.12,0,0.47,0,1.05,0s1.25,0,2.02,0s1.55,0,2.33,0.01c0.78,0.01,1.43,0.01,1.95,0.03
				c2.98,0.07,5.41,0.6,7.29,1.6c1.88,1,3.26,2.39,4.14,4.18c0.88,1.79,1.32,3.91,1.32,6.36c0,2.55-0.46,4.75-1.39,6.6
				c-0.93,1.85-2.35,3.28-4.26,4.29s-4.33,1.51-7.27,1.51h-7.17V5.21z M177.49,9.23v16.56h2.28c1.41,0,2.68-0.27,3.83-0.82
				s2.07-1.43,2.76-2.67c0.69-1.23,1.04-2.88,1.04-4.95c0-1.92-0.31-3.47-0.92-4.67c-0.61-1.2-1.48-2.07-2.62-2.63
				s-2.48-0.83-4.03-0.83H177.49z"/>
			<path class="st2" d="M201.45,30.14c-1.12,0-2.13-0.21-3.03-0.63c-0.9-0.42-1.6-1.03-2.13-1.83c-0.52-0.8-0.78-1.77-0.78-2.92
				c0-1.93,0.72-3.39,2.16-4.39c1.44-1,3.71-1.52,6.82-1.56l2.19-0.03v-1.05c0-0.8-0.24-1.43-0.71-1.86
				c-0.47-0.44-1.2-0.65-2.18-0.64c-0.73,0.01-1.41,0.18-2.07,0.51c-0.65,0.33-1.1,0.9-1.33,1.72h-4.13
				c0.07-1.27,0.44-2.31,1.1-3.14c0.67-0.82,1.58-1.43,2.73-1.84c1.15-0.4,2.46-0.6,3.92-0.6c1.8,0,3.25,0.22,4.33,0.67
				c1.09,0.45,1.88,1.09,2.36,1.92c0.49,0.83,0.73,1.82,0.73,2.97V29.8h-4.15l-0.41-3.03c-0.6,1.27-1.35,2.15-2.25,2.64
				C203.73,29.89,202.67,30.14,201.45,30.14z M203.11,26.87c0.45,0,0.89-0.08,1.32-0.25c0.42-0.16,0.8-0.38,1.14-0.66
				c0.33-0.28,0.6-0.59,0.81-0.94c0.2-0.35,0.31-0.71,0.31-1.09v-2.6l-1.79,0.03c-0.83,0.01-1.6,0.11-2.31,0.3
				c-0.71,0.19-1.29,0.49-1.73,0.91c-0.44,0.42-0.65,0.99-0.65,1.7c0,0.82,0.28,1.45,0.85,1.91
				C201.62,26.64,202.31,26.87,203.11,26.87z"/>
			<path class="st2" d="M225.77,15.67h-3.91l0.03,9.37c0,0.43,0.05,0.75,0.16,0.96c0.11,0.21,0.28,0.35,0.51,0.41
				s0.53,0.09,0.89,0.09h2.36v3.06c-0.23,0.1-0.58,0.2-1.06,0.29c-0.48,0.09-1.15,0.14-2.01,0.14c-1.54,0-2.73-0.2-3.58-0.59
				c-0.84-0.4-1.43-0.95-1.76-1.67c-0.33-0.71-0.49-1.54-0.49-2.48v-9.57h-2.86v-3.45h3.03l1.24-5.3h3.54v5.29h3.91V15.67z"/>
			<path class="st2" d="M234.48,30.14c-1.12,0-2.13-0.21-3.03-0.63c-0.9-0.42-1.6-1.03-2.13-1.83c-0.52-0.8-0.78-1.77-0.78-2.92
				c0-1.93,0.72-3.39,2.16-4.39c1.44-1,3.71-1.52,6.82-1.56l2.19-0.03v-1.05c0-0.8-0.24-1.43-0.71-1.86
				c-0.47-0.44-1.2-0.65-2.18-0.64c-0.73,0.01-1.41,0.18-2.07,0.51c-0.65,0.33-1.1,0.9-1.33,1.72h-4.13
				c0.07-1.27,0.44-2.31,1.1-3.14c0.67-0.82,1.58-1.43,2.73-1.84c1.15-0.4,2.46-0.6,3.92-0.6c1.8,0,3.25,0.22,4.33,0.67
				c1.09,0.45,1.88,1.09,2.36,1.92c0.49,0.83,0.73,1.82,0.73,2.97V29.8h-4.15l-0.41-3.03c-0.6,1.27-1.35,2.15-2.25,2.64
				C236.76,29.89,235.7,30.14,234.48,30.14z M236.14,26.87c0.45,0,0.89-0.08,1.32-0.25c0.42-0.16,0.8-0.38,1.14-0.66
				c0.33-0.28,0.6-0.59,0.81-0.94c0.2-0.35,0.31-0.71,0.31-1.09v-2.6l-1.79,0.03c-0.83,0.01-1.6,0.11-2.31,0.3
				c-0.71,0.19-1.29,0.49-1.73,0.91c-0.44,0.42-0.65,0.99-0.65,1.7c0,0.82,0.28,1.45,0.85,1.91
				C234.65,26.64,235.34,26.87,236.14,26.87z"/>
			<path class="st2" d="M257.72,29.8V5.21h16.88l-0.02,4.18H262.7v5.97h10.32v4.1h-10.35v6.1l12.1,0.02v4.22H257.72z"/>
			<path class="st2" d="M286.09,11.88c1.47,0,2.75,0.3,3.82,0.9c1.07,0.6,1.92,1.41,2.53,2.43c0.62,1.02,0.97,2.16,1.06,3.42h-4.13
				c-0.08-0.46-0.24-0.93-0.49-1.39c-0.25-0.46-0.6-0.84-1.05-1.14c-0.45-0.3-1.02-0.45-1.7-0.45c-1.16,0-2.09,0.44-2.81,1.33
				c-0.72,0.89-1.08,2.24-1.08,4.05c0,1.71,0.35,3.07,1.05,4.07c0.7,1,1.68,1.5,2.94,1.5c0.67,0,1.23-0.16,1.67-0.49
				c0.45-0.33,0.8-0.72,1.04-1.18s0.41-0.89,0.48-1.28h4.03c-0.08,1.21-0.43,2.31-1.05,3.29s-1.47,1.76-2.54,2.33
				c-1.07,0.57-2.33,0.86-3.77,0.86c-1.63,0-3.09-0.36-4.37-1.09c-1.28-0.73-2.29-1.76-3.02-3.12s-1.1-2.97-1.1-4.85
				c0-1.81,0.35-3.41,1.05-4.79c0.7-1.38,1.69-2.46,2.97-3.24C282.9,12.27,284.39,11.88,286.09,11.88z"/>
			<path class="st2" d="M304.47,30.14c-1.72,0-3.22-0.37-4.5-1.1c-1.28-0.74-2.26-1.78-2.96-3.13c-0.7-1.35-1.05-2.95-1.05-4.79
				c0-1.85,0.35-3.46,1.05-4.85c0.7-1.38,1.68-2.46,2.96-3.23c1.27-0.77,2.78-1.16,4.51-1.16c1.73,0,3.24,0.38,4.5,1.13
				c1.27,0.75,2.25,1.82,2.94,3.2s1.04,3.01,1.04,4.9c0,1.77-0.34,3.33-1.01,4.68c-0.67,1.35-1.64,2.42-2.91,3.19
				C307.78,29.75,306.26,30.14,304.47,30.14z M304.48,26.45c0.87,0,1.58-0.25,2.11-0.77c0.53-0.51,0.92-1.18,1.17-2.01
				c0.24-0.83,0.37-1.74,0.37-2.73c0-0.93-0.11-1.81-0.33-2.64c-0.22-0.83-0.6-1.5-1.13-2.01c-0.53-0.51-1.26-0.77-2.18-0.77
				c-0.87,0-1.58,0.24-2.12,0.72c-0.54,0.48-0.93,1.13-1.18,1.96c-0.25,0.82-0.37,1.73-0.37,2.73c0,0.92,0.11,1.8,0.34,2.64
				c0.23,0.84,0.61,1.53,1.14,2.06C302.82,26.18,303.55,26.45,304.48,26.45z"/>
			<path class="st2" d="M323.17,30.14c-1.22,0-2.4-0.2-3.54-0.6c-1.13-0.4-2.09-1.04-2.87-1.9c-0.78-0.87-1.28-1.99-1.5-3.37h4.3
				c0.15,0.62,0.42,1.12,0.81,1.48c0.39,0.36,0.84,0.62,1.33,0.77c0.5,0.15,0.97,0.23,1.43,0.23c0.95,0,1.72-0.15,2.3-0.45
				c0.58-0.3,0.88-0.76,0.88-1.39c0-0.48-0.17-0.86-0.52-1.14s-0.92-0.5-1.71-0.65l-3.09-0.65c-1.55-0.33-2.8-0.89-3.74-1.67
				c-0.94-0.79-1.42-1.91-1.45-3.36c0-1.05,0.28-2,0.84-2.84c0.56-0.84,1.39-1.5,2.49-1.99s2.45-0.73,4.05-0.73
				c2.17,0,3.9,0.48,5.19,1.43c1.3,0.95,1.96,2.3,1.98,4.03h-4.15c-0.13-0.68-0.46-1.2-1.01-1.57c-0.55-0.37-1.24-0.55-2.07-0.55
				c-0.86,0-1.57,0.15-2.13,0.46s-0.83,0.77-0.83,1.39c0,0.46,0.23,0.83,0.68,1.1c0.45,0.27,1.16,0.5,2.11,0.69l2.86,0.65
				c0.99,0.24,1.79,0.56,2.41,0.98c0.62,0.41,1.1,0.86,1.44,1.35c0.34,0.49,0.58,0.98,0.71,1.47c0.13,0.49,0.2,0.94,0.2,1.33
				c0,1.17-0.31,2.16-0.93,2.98c-0.62,0.82-1.49,1.45-2.6,1.88C325.91,29.92,324.63,30.14,323.17,30.14z"/>
			<path class="st2" d="M336.65,35.41c-1.2,0-2.29-0.2-3.28-0.6v-3.16l1.73,0.07c0.76,0.04,1.37,0.01,1.84-0.11
				c0.46-0.12,0.82-0.28,1.06-0.47c0.24-0.19,0.42-0.39,0.52-0.6c0.1-0.21,0.17-0.38,0.22-0.5l0.32-0.97l-6.83-16.85h4.91
				l4.22,11.46l4.27-11.46h4.84l-7.12,17.68c-0.61,1.5-1.26,2.64-1.94,3.43c-0.68,0.79-1.41,1.34-2.2,1.63
				C338.42,35.26,337.56,35.41,336.65,35.41z"/>
			<path class="st2" d="M359.46,30.14c-1.22,0-2.4-0.2-3.54-0.6c-1.13-0.4-2.09-1.04-2.87-1.9c-0.78-0.87-1.28-1.99-1.5-3.37h4.3
				c0.15,0.62,0.42,1.12,0.81,1.48c0.39,0.36,0.84,0.62,1.33,0.77c0.5,0.15,0.97,0.23,1.43,0.23c0.95,0,1.72-0.15,2.3-0.45
				c0.58-0.3,0.88-0.76,0.88-1.39c0-0.48-0.17-0.86-0.52-1.14s-0.92-0.5-1.71-0.65l-3.09-0.65c-1.55-0.33-2.8-0.89-3.74-1.67
				c-0.94-0.79-1.42-1.91-1.45-3.36c0-1.05,0.28-2,0.84-2.84c0.56-0.84,1.39-1.5,2.49-1.99s2.45-0.73,4.05-0.73
				c2.17,0,3.9,0.48,5.19,1.43c1.3,0.95,1.96,2.3,1.98,4.03h-4.15c-0.13-0.68-0.46-1.2-1.01-1.57c-0.55-0.37-1.24-0.55-2.07-0.55
				c-0.86,0-1.57,0.15-2.13,0.46s-0.83,0.77-0.83,1.39c0,0.46,0.23,0.83,0.68,1.1c0.45,0.27,1.16,0.5,2.11,0.69l2.86,0.65
				c0.99,0.24,1.79,0.56,2.41,0.98c0.62,0.41,1.1,0.86,1.44,1.35c0.34,0.49,0.58,0.98,0.71,1.47c0.13,0.49,0.2,0.94,0.2,1.33
				c0,1.17-0.31,2.16-0.93,2.98c-0.62,0.82-1.49,1.45-2.6,1.88C362.21,29.92,360.92,30.14,359.46,30.14z"/>
			<path class="st2" d="M380.83,15.67h-3.91l0.03,9.37c0,0.43,0.05,0.75,0.16,0.96c0.11,0.21,0.28,0.35,0.51,0.41
				c0.23,0.06,0.53,0.09,0.89,0.09h2.36v3.06c-0.23,0.1-0.58,0.2-1.06,0.29s-1.15,0.14-2.01,0.14c-1.54,0-2.73-0.2-3.58-0.59
				c-0.84-0.4-1.43-0.95-1.76-1.67c-0.33-0.71-0.49-1.54-0.49-2.48v-9.57h-2.86v-3.45h3.03l1.24-5.3h3.54v5.29h3.91V15.67z"/>
			<path class="st2" d="M387.99,22.15c-0.01,0.9,0.13,1.67,0.42,2.34s0.72,1.17,1.28,1.53c0.56,0.36,1.24,0.54,2.03,0.54
				c0.85,0,1.59-0.18,2.24-0.54c0.64-0.36,1.08-0.96,1.33-1.79h4.47c-0.19,1.25-0.69,2.31-1.49,3.2c-0.8,0.88-1.76,1.56-2.9,2.02
				c-1.13,0.46-2.31,0.7-3.54,0.7c-1.73,0-3.26-0.37-4.58-1.1c-1.32-0.73-2.35-1.76-3.08-3.1c-0.74-1.34-1.11-2.91-1.11-4.73
				c0-1.76,0.33-3.34,1-4.75s1.64-2.53,2.92-3.35c1.27-0.82,2.81-1.23,4.6-1.23c1.79,0,3.3,0.38,4.51,1.13
				c1.22,0.75,2.14,1.8,2.75,3.15c0.62,1.34,0.93,2.89,0.93,4.65v1.34H387.99z M387.97,19.19h7.17c0-0.7-0.13-1.35-0.39-1.94
				s-0.65-1.05-1.18-1.39c-0.53-0.34-1.19-0.51-1.98-0.51c-0.77,0-1.42,0.18-1.96,0.55c-0.54,0.37-0.95,0.85-1.23,1.44
				C388.11,17.92,387.97,18.54,387.97,19.19z"/>
			<path class="st2" d="M403.23,29.8V12.22h4.86v2.48c0.53-0.77,1.25-1.43,2.15-1.99c0.9-0.56,2.04-0.83,3.41-0.83
				c0.6,0,1.21,0.11,1.84,0.32c0.62,0.22,1.21,0.53,1.76,0.94s0.99,0.93,1.33,1.56c0.57-0.8,1.31-1.48,2.24-2.01
				c0.92-0.54,1.95-0.81,3.08-0.81c0.66,0,1.32,0.11,2,0.32c0.67,0.22,1.29,0.57,1.86,1.05c0.57,0.49,1.02,1.14,1.37,1.95
				c0.35,0.81,0.52,1.81,0.52,3V29.8h-4.96V18.81c0-0.7-0.14-1.27-0.42-1.69c-0.28-0.43-0.63-0.73-1.05-0.92s-0.88-0.28-1.35-0.28
				c-0.44,0-0.89,0.09-1.34,0.26s-0.84,0.46-1.16,0.84c-0.32,0.39-0.48,0.89-0.48,1.51V29.8h-4.95V18.37c0-0.53-0.14-0.98-0.42-1.34
				c-0.28-0.36-0.64-0.64-1.06-0.82s-0.86-0.28-1.3-0.28c-0.45,0-0.91,0.09-1.36,0.28c-0.45,0.19-0.83,0.48-1.14,0.87
				s-0.46,0.88-0.46,1.47V29.8H403.23z"/>
		</g>
		<line class="st3" x1="160.23" y1="0" x2="160.23" y2="36"/>
		<g>
			<path class="st4" d="M40.25,10.17v16.09h-2.82h0v-7.26h-7.32v7.26h-2.82V10.17h2.82v6.4h7.32v-6.4h0H40.25z M24.47,26.26
				L24.47,26.26h-2.82V10.17h2.82V26.26z M18.88,26.26L18.88,26.26H15.9L8.58,14.43H8.51v11.83H5.83l0,0V10.17l0,0H8.8h0l7.35,11.86
				h0.05V10.17h2.68V26.26z M50.18,18.16L40.22,0.18H3.56c-1.83,0-3.31,1.49-3.31,3.32v29.37c0,1.83,1.48,3.31,3.31,3.31h36.63
				L50.18,18.16z"/>
			<path class="st4" d="M42.69,36.18l9.98-18.02L42.72,0.18h2.49c1.36,0,3.02,0.98,3.68,2.17l8.74,15.82l-8.78,15.85
				c-0.66,1.19-2.31,2.17-3.68,2.17H42.69z"/>
			<path class="st5" d="M42.69,36.18l9.98-18.02L42.72,0.18h2.49c1.36,0,3.02,0.98,3.68,2.17l8.74,15.82l-8.77,15.85
				c-0.66,1.19-2.32,2.17-3.68,2.17H42.69z"/>
			<path class="st4" d="M143.54,33.08c0.02,1.22,0.99,1.8,2.29,1.8c1.07,0,2.31-0.45,2.31-1.68c0-1.02-0.84-1.32-1.67-1.51
				c-0.84-0.19-1.68-0.27-1.68-0.83c0-0.45,0.61-0.53,0.94-0.53c0.5,0,0.95,0.15,1.05,0.69h1.19c-0.14-1.15-1.1-1.59-2.16-1.59
				c-0.94,0-2.16,0.35-2.16,1.48c0,1.05,0.82,1.35,1.66,1.53c0.83,0.19,1.66,0.26,1.69,0.86c0.03,0.59-0.72,0.68-1.15,0.68
				c-0.61,0-1.11-0.24-1.17-0.9H143.54z M139.33,31.7c0.03-0.77,0.57-1.37,1.36-1.37c0.77,0,1.26,0.65,1.3,1.37H139.33z
				 M143.13,32.45c0.19-1.55-0.81-3.02-2.44-3.02c-1.54,0-2.5,1.26-2.5,2.73c0,1.59,0.91,2.72,2.53,2.72c1.13,0,2.09-0.63,2.34-1.76
				h-1.08c-0.2,0.57-0.6,0.86-1.26,0.86c-0.95,0-1.39-0.72-1.39-1.53H143.13z M133.15,33.08c0.02,1.22,0.99,1.8,2.29,1.8
				c1.07,0,2.31-0.45,2.31-1.68c0-1.02-0.84-1.32-1.67-1.51c-0.84-0.19-1.68-0.27-1.68-0.83c0-0.45,0.61-0.53,0.94-0.53
				c0.5,0,0.95,0.15,1.05,0.69h1.19c-0.14-1.15-1.1-1.59-2.16-1.59c-0.94,0-2.16,0.35-2.16,1.48c0,1.05,0.82,1.35,1.66,1.53
				c0.83,0.19,1.66,0.26,1.69,0.86c0.03,0.59-0.72,0.68-1.15,0.68c-0.61,0-1.11-0.24-1.17-0.9H133.15z M132.38,30.93
				c0-1.09-1.06-1.5-2.07-1.5c-1.14,0-2.27,0.39-2.35,1.72h1.14c0.05-0.56,0.5-0.82,1.14-0.82c0.46,0,1.07,0.11,1.07,0.7
				c0,0.67-0.73,0.58-1.55,0.73c-0.96,0.11-1.99,0.32-1.99,1.61c0,1.01,0.84,1.51,1.77,1.51c0.61,0,1.34-0.19,1.79-0.63
				c0.09,0.47,0.42,0.63,0.88,0.63c0.19,0,0.55-0.07,0.72-0.13v-0.79c-0.12,0.02-0.21,0.02-0.28,0.02c-0.21,0-0.27-0.11-0.27-0.39
				V30.93z M131.24,33c0,0.72-0.78,0.98-1.28,0.98c-0.4,0-1.05-0.15-1.05-0.66c0-0.6,0.44-0.78,0.93-0.86
				c0.5-0.09,1.05-0.08,1.4-0.31V33z M123.56,31.7c0.03-0.77,0.57-1.37,1.36-1.37c0.77,0,1.26,0.65,1.3,1.37H123.56z M127.36,32.45
				c0.19-1.55-0.81-3.02-2.44-3.02c-1.54,0-2.5,1.26-2.5,2.73c0,1.59,0.91,2.72,2.53,2.72c1.13,0,2.09-0.63,2.34-1.76h-1.08
				c-0.2,0.57-0.6,0.86-1.26,0.86c-0.95,0-1.39-0.72-1.39-1.53H127.36z M117.38,33.08c0.02,1.22,0.99,1.8,2.29,1.8
				c1.07,0,2.31-0.45,2.31-1.68c0-1.02-0.84-1.32-1.67-1.51c-0.84-0.19-1.68-0.27-1.68-0.83c0-0.45,0.61-0.53,0.94-0.53
				c0.5,0,0.95,0.15,1.05,0.69h1.19c-0.14-1.15-1.1-1.59-2.16-1.59c-0.94,0-2.16,0.35-2.16,1.48c0,1.05,0.82,1.35,1.66,1.53
				c0.83,0.19,1.66,0.26,1.69,0.86c0.03,0.59-0.72,0.68-1.15,0.68c-0.61,0-1.11-0.24-1.17-0.9H117.38z M115.46,28.68h1.14V27.6
				h-1.14V28.68z M115.46,34.74h1.14v-5.17h-1.14V34.74z M108.55,34.74h2.96c2.2,0,3.15-1.6,3.15-3.57c0-1.97-0.95-3.57-3.15-3.57
				h-2.96V34.74z M109.8,28.62h1.23c1.96,0,2.38,1.12,2.38,2.55c0,1.43-0.42,2.55-2.38,2.55h-1.23V28.62z M100.5,33.08
				c0.02,1.22,0.99,1.8,2.29,1.8c1.07,0,2.31-0.45,2.31-1.68c0-1.02-0.84-1.32-1.67-1.51c-0.84-0.19-1.68-0.27-1.68-0.83
				c0-0.45,0.61-0.53,0.94-0.53c0.5,0,0.95,0.15,1.05,0.69h1.19c-0.14-1.15-1.1-1.59-2.16-1.59c-0.94,0-2.16,0.35-2.16,1.48
				c0,1.05,0.82,1.35,1.66,1.53c0.83,0.19,1.66,0.26,1.69,0.86c0.03,0.59-0.72,0.68-1.15,0.68c-0.61,0-1.11-0.24-1.17-0.9H100.5z
				 M99.76,29.57h-1.14v3c0,0.8-0.32,1.41-1.27,1.41c-0.62,0-0.99-0.33-0.99-1.24v-3.17h-1.14v3.28c0,1.35,0.58,2.03,1.93,2.03
				c0.57,0,1.19-0.34,1.47-0.86h0.02v0.72h1.12V29.57z M91.84,34.88c1.66,0,2.61-1.14,2.61-2.73c0-1.58-0.95-2.72-2.61-2.72
				c-1.66,0-2.61,1.14-2.61,2.72C89.23,33.74,90.17,34.88,91.84,34.88 M91.84,33.98c-1.02,0-1.47-0.93-1.47-1.83
				c0-0.89,0.45-1.82,1.47-1.82c1.02,0,1.47,0.93,1.47,1.82C93.31,33.05,92.85,33.98,91.84,33.98 M87.27,28.68h1.14V27.6h-1.14
				V28.68z M87.27,34.74h1.14v-5.17h-1.14V34.74z M83.56,30.42h0.86v3.05c0.02,0.86,0.24,1.32,1.43,1.32c0.25,0,0.49-0.04,0.74-0.06
				v-0.88c-0.16,0.04-0.32,0.04-0.48,0.04c-0.51,0-0.55-0.24-0.55-0.71v-2.76h1.03v-0.85h-1.03v-1.55h-1.14v1.55h-0.86V30.42z
				 M83.33,31.3c-0.11-1.27-1.13-1.87-2.33-1.87c-1.7,0-2.55,1.22-2.55,2.78c0,1.52,0.89,2.67,2.51,2.67c1.33,0,2.16-0.74,2.37-2.08
				h-1.14c-0.11,0.74-0.57,1.18-1.23,1.18c-0.99,0-1.37-0.91-1.37-1.77c0-1.57,0.83-1.88,1.42-1.88c0.63,0,1.09,0.34,1.18,0.97
				H83.33z M74.21,31.7c0.03-0.77,0.57-1.37,1.36-1.37c0.77,0,1.26,0.65,1.3,1.37H74.21z M78.01,32.45
				c0.19-1.55-0.81-3.02-2.44-3.02c-1.54,0-2.5,1.26-2.5,2.73c0,1.59,0.91,2.72,2.53,2.72c1.13,0,2.09-0.63,2.34-1.76h-1.08
				c-0.2,0.57-0.6,0.86-1.26,0.86c-0.95,0-1.39-0.72-1.39-1.53H78.01z M69.84,30.42h0.85v4.32h1.14v-4.32h0.97v-0.85h-0.97v-0.53
				c0-0.43,0.25-0.54,0.56-0.54c0.23,0,0.38,0.02,0.53,0.06v-0.89c-0.18-0.05-0.44-0.07-0.8-0.07c-0.74,0-1.43,0.22-1.43,1.54v0.43
				h-0.85V30.42z M64.79,34.74h1.14v-3.05c0-0.76,0.49-1.36,1.25-1.36c0.67,0,0.99,0.35,1.01,1.16v3.25h1.14v-3.55
				c0-1.16-0.71-1.76-1.83-1.76c-0.68,0-1.27,0.35-1.61,0.92l-0.02-0.02v-0.76h-1.08V34.74z M62.35,34.74h1.25V27.6h-1.25V34.74z"/>
			<path class="st4" d="M111.04,14.93h-1.14v2.64h-0.02c-0.35-0.57-1.07-0.81-1.72-0.81c-1.13,0-2.24,0.82-2.24,2.69
				c0,1.55,0.79,2.76,2.42,2.76c0.65,0,1.3-0.25,1.6-0.84h0.02v0.7h1.08V14.93z M107.06,19.54c0-0.93,0.38-1.88,1.45-1.88
				c0.88,0,1.43,0.68,1.43,1.82c0,0.9-0.43,1.83-1.45,1.83C107.5,21.31,107.06,20.43,107.06,19.54 M100.61,22.07h1.14v-3.05
				c0-0.76,0.49-1.36,1.25-1.36c0.67,0,0.99,0.35,1.01,1.16v3.25h1.14v-3.55c0-1.16-0.71-1.76-1.83-1.76
				c-0.68,0-1.27,0.35-1.61,0.92l-0.02-0.02V16.9h-1.08V22.07z M99.56,18.26c0-1.09-1.06-1.5-2.07-1.5c-1.14,0-2.27,0.39-2.35,1.72
				h1.14c0.05-0.56,0.5-0.82,1.14-0.82c0.46,0,1.07,0.11,1.07,0.7c0,0.67-0.73,0.58-1.55,0.73c-0.96,0.11-1.99,0.32-1.99,1.61
				c0,1.01,0.84,1.51,1.77,1.51c0.61,0,1.34-0.19,1.79-0.63c0.09,0.47,0.42,0.63,0.88,0.63c0.19,0,0.55-0.07,0.72-0.13v-0.79
				c-0.12,0.02-0.21,0.02-0.28,0.02c-0.21,0-0.27-0.11-0.27-0.39V18.26z M98.42,20.33c0,0.72-0.78,0.98-1.28,0.98
				c-0.4,0-1.05-0.15-1.05-0.66c0-0.6,0.44-0.78,0.93-0.86c0.5-0.09,1.05-0.08,1.4-0.31V20.33z M89.01,22.05l-0.13,0.4
				c-0.14,0.44-0.27,0.72-0.8,0.72c-0.18,0-0.36-0.04-0.54-0.07v0.96c0.26,0.04,0.52,0.06,0.79,0.06c1.19,0,1.46-0.84,1.83-1.77
				l2.01-5.45h-1.19l-1.31,3.86h-0.02l-1.35-3.86h-1.25L89.01,22.05z M86.64,16.9H85.5v0.71h-0.02c-0.29-0.58-0.88-0.85-1.53-0.85
				c-1.47,0-2.34,1.2-2.34,2.59c0,1.48,0.68,2.72,2.32,2.72c0.64,0,1.23-0.34,1.55-0.91h0.02v0.79c0,0.85-0.41,1.32-1.33,1.32
				c-0.58,0-1.1-0.11-1.24-0.76h-1.14c0.1,1.21,1.27,1.61,2.31,1.61c1.63,0,2.54-0.77,2.54-2.32V16.9z M84.11,21.17
				c-0.95,0-1.36-0.86-1.36-1.71c0-0.86,0.35-1.8,1.36-1.8c0.99,0,1.39,0.82,1.39,1.71C85.5,20.25,85.12,21.17,84.11,21.17
				 M78.52,22.07h1.14v-2.46c0-1.14,0.62-1.77,1.4-1.77c0.16,0,0.33,0.03,0.49,0.05v-1.1c-0.1-0.01-0.17-0.03-0.43-0.03
				c-0.7,0-1.38,0.59-1.51,1.14h-0.02v-1h-1.07V22.07z M74.03,19.03c0.03-0.77,0.57-1.37,1.36-1.37c0.77,0,1.26,0.65,1.3,1.37H74.03
				z M77.83,19.78c0.19-1.55-0.81-3.02-2.44-3.02c-1.54,0-2.5,1.26-2.5,2.73c0,1.59,0.91,2.72,2.53,2.72c1.13,0,2.09-0.63,2.34-1.76
				h-1.08c-0.2,0.57-0.6,0.86-1.26,0.86c-0.95,0-1.39-0.72-1.39-1.53H77.83z M70.94,22.07h1.14v-7.14h-1.14V22.07z M68.71,22.07
				h1.14v-7.14h-1.14V22.07z M61.52,22.07h1.29l0.67-1.89h2.85L67,22.07h1.34l-2.75-7.14h-1.33L61.52,22.07z M64.9,16.16h0.03
				L66,19.23h-2.18L64.9,16.16z"/>
			<path class="st4" d="M145.15,5.08H146V9.4h1.14V5.08h0.97V4.23h-0.97V3.7c0-0.43,0.25-0.54,0.56-0.54c0.23,0,0.38,0.02,0.53,0.06
				V2.33c-0.18-0.05-0.44-0.07-0.8-0.07c-0.74,0-1.43,0.22-1.43,1.54v0.43h-0.85V5.08z M142.28,9.54c1.66,0,2.61-1.14,2.61-2.73
				c0-1.58-0.95-2.72-2.61-2.72c-1.66,0-2.61,1.14-2.61,2.72C139.67,8.41,140.62,9.54,142.28,9.54 M142.28,8.65
				c-1.02,0-1.47-0.93-1.47-1.83c0-0.89,0.45-1.82,1.47-1.82c1.02,0,1.47,0.93,1.47,1.82C143.75,7.71,143.3,8.65,142.28,8.65
				 M132.82,6.36c0.03-0.77,0.57-1.37,1.36-1.37c0.77,0,1.26,0.65,1.3,1.37H132.82z M136.62,7.11c0.19-1.55-0.81-3.02-2.44-3.02
				c-1.54,0-2.5,1.26-2.5,2.73c0,1.59,0.91,2.72,2.53,2.72c1.13,0,2.09-0.63,2.34-1.76h-1.08c-0.2,0.57-0.6,0.86-1.26,0.86
				c-0.95,0-1.39-0.72-1.39-1.53H136.62z M128.26,5.08h0.86v3.05c0.02,0.86,0.24,1.32,1.43,1.32c0.25,0,0.49-0.04,0.74-0.06V8.52
				c-0.16,0.04-0.32,0.04-0.48,0.04c-0.51,0-0.55-0.24-0.55-0.71V5.08h1.03V4.23h-1.03V2.68h-1.14v1.55h-0.86V5.08z M127.76,4.23
				h-1.14v3c0,0.8-0.32,1.41-1.27,1.41c-0.62,0-0.99-0.33-0.99-1.24V4.23h-1.14v3.28c0,1.35,0.58,2.03,1.93,2.03
				c0.57,0,1.19-0.34,1.47-0.86h0.02V9.4h1.12V4.23z M119.55,5.08h0.86v3.05c0.02,0.86,0.24,1.32,1.43,1.32
				c0.25,0,0.49-0.04,0.74-0.06V8.52c-0.16,0.04-0.32,0.04-0.48,0.04c-0.51,0-0.55-0.24-0.55-0.71V5.08h1.03V4.23h-1.03V2.68h-1.14
				v1.55h-0.86V5.08z M117.87,3.34h1.14V2.26h-1.14V3.34z M117.87,9.4h1.14V4.23h-1.14V9.4z M114.17,5.08h0.86v3.05
				c0.02,0.86,0.24,1.32,1.43,1.32c0.25,0,0.49-0.04,0.74-0.06V8.52c-0.16,0.04-0.32,0.04-0.48,0.04c-0.51,0-0.55-0.24-0.55-0.71
				V5.08h1.03V4.23h-1.03V2.68h-1.14v1.55h-0.86V5.08z M109.4,7.75c0.02,1.22,0.99,1.8,2.29,1.8c1.07,0,2.31-0.45,2.31-1.68
				c0-1.02-0.84-1.32-1.67-1.51c-0.84-0.19-1.68-0.27-1.68-0.83c0-0.45,0.61-0.53,0.94-0.53c0.5,0,0.95,0.15,1.05,0.69h1.19
				c-0.14-1.15-1.1-1.59-2.16-1.59c-0.94,0-2.16,0.35-2.16,1.48c0,1.05,0.82,1.35,1.66,1.53c0.83,0.19,1.66,0.26,1.69,0.86
				c0.03,0.59-0.72,0.68-1.15,0.68c-0.61,0-1.11-0.24-1.17-0.9H109.4z M104.12,9.4h1.14V6.35c0-0.76,0.49-1.36,1.25-1.36
				c0.67,0,0.99,0.35,1.01,1.16V9.4h1.14V5.85c0-1.16-0.71-1.76-1.83-1.76c-0.68,0-1.27,0.35-1.61,0.92l-0.02-0.02V4.23h-1.08V9.4z
				 M101.68,9.4h1.25V2.26h-1.25V9.4z M96.72,9.4h1.14V2.26h-1.14V9.4z M95.63,5.59c0-1.09-1.06-1.5-2.07-1.5
				c-1.14,0-2.27,0.39-2.35,1.72h1.14c0.05-0.56,0.5-0.82,1.14-0.82c0.46,0,1.07,0.11,1.07,0.7c0,0.67-0.73,0.58-1.55,0.73
				c-0.96,0.11-1.99,0.32-1.99,1.61c0,1.01,0.84,1.51,1.77,1.51c0.61,0,1.34-0.19,1.79-0.63c0.09,0.47,0.42,0.63,0.88,0.63
				c0.19,0,0.55-0.07,0.72-0.13V8.63c-0.12,0.02-0.21,0.02-0.28,0.02c-0.21,0-0.27-0.11-0.27-0.39V5.59z M94.5,7.66
				c0,0.72-0.78,0.98-1.28,0.98c-0.4,0-1.05-0.15-1.05-0.66c0-0.6,0.44-0.78,0.93-0.86c0.5-0.09,1.05-0.08,1.4-0.31V7.66z
				 M85.74,9.4h1.14V6.35c0-0.76,0.49-1.36,1.25-1.36c0.67,0,0.99,0.35,1.01,1.16V9.4h1.14V5.85c0-1.16-0.71-1.76-1.83-1.76
				c-0.68,0-1.27,0.35-1.61,0.92l-0.02-0.02V4.23h-1.08V9.4z M82.36,9.54c1.66,0,2.61-1.14,2.61-2.73c0-1.58-0.95-2.72-2.61-2.72
				c-1.66,0-2.61,1.14-2.61,2.72C79.75,8.41,80.7,9.54,82.36,9.54 M82.36,8.65c-1.02,0-1.47-0.93-1.47-1.83
				c0-0.89,0.45-1.82,1.47-1.82c1.02,0,1.47,0.93,1.47,1.82C83.83,7.71,83.38,8.65,82.36,8.65 M77.79,3.34h1.14V2.26h-1.14V3.34z
				 M77.79,9.4h1.14V4.23h-1.14V9.4z M74.09,5.08h0.86v3.05c0.02,0.86,0.24,1.32,1.43,1.32c0.25,0,0.49-0.04,0.74-0.06V8.52
				c-0.16,0.04-0.32,0.04-0.48,0.04c-0.51,0-0.55-0.24-0.55-0.71V5.08h1.03V4.23h-1.03V2.68h-1.14v1.55h-0.86V5.08z M73.56,5.59
				c0-1.09-1.06-1.5-2.07-1.5c-1.14,0-2.27,0.39-2.35,1.72h1.14c0.05-0.56,0.5-0.82,1.14-0.82c0.46,0,1.07,0.11,1.07,0.7
				c0,0.67-0.73,0.58-1.55,0.73c-0.96,0.11-1.99,0.32-1.99,1.61c0,1.01,0.84,1.51,1.77,1.51c0.61,0,1.34-0.19,1.79-0.63
				c0.09,0.47,0.42,0.63,0.88,0.63c0.19,0,0.55-0.07,0.72-0.13V8.63c-0.12,0.02-0.21,0.02-0.28,0.02c-0.21,0-0.27-0.11-0.27-0.39
				V5.59z M72.42,7.66c0,0.72-0.78,0.98-1.28,0.98c-0.4,0-1.05-0.15-1.05-0.66c0-0.6,0.44-0.78,0.93-0.86
				c0.5-0.09,1.05-0.08,1.4-0.31V7.66z M62.3,9.4h1.19V4.15h0.03l3.25,5.25h1.32V2.26H66.9v5.26h-0.02l-3.26-5.26H62.3V9.4z"/>
		</g>
	</g>
</g>
<g id="nde_x5F_white">
	<g>
		<g>
			<path class="st6" d="M172.5,5.21c0.12,0,0.47,0,1.05,0s1.25,0,2.02,0s1.55,0,2.33,0.01c0.78,0.01,1.43,0.01,1.95,0.03
				c2.98,0.07,5.41,0.6,7.29,1.6c1.88,1,3.26,2.39,4.14,4.18c0.88,1.79,1.32,3.91,1.32,6.36c0,2.55-0.46,4.75-1.39,6.6
				c-0.93,1.85-2.35,3.28-4.26,4.29s-4.33,1.51-7.27,1.51h-7.17V5.21z M177.49,9.23v16.56h2.28c1.41,0,2.68-0.27,3.83-0.82
				s2.07-1.43,2.76-2.67c0.69-1.23,1.04-2.88,1.04-4.95c0-1.92-0.31-3.47-0.92-4.67c-0.61-1.2-1.48-2.07-2.62-2.63
				s-2.48-0.83-4.03-0.83H177.49z"/>
			<path class="st6" d="M201.45,30.14c-1.12,0-2.13-0.21-3.03-0.63c-0.9-0.42-1.6-1.03-2.13-1.83c-0.52-0.8-0.78-1.77-0.78-2.92
				c0-1.93,0.72-3.39,2.16-4.39c1.44-1,3.71-1.52,6.82-1.56l2.19-0.03v-1.05c0-0.8-0.24-1.43-0.71-1.86
				c-0.47-0.44-1.2-0.65-2.18-0.64c-0.73,0.01-1.41,0.18-2.07,0.51c-0.65,0.33-1.1,0.9-1.33,1.72h-4.13
				c0.07-1.27,0.44-2.31,1.1-3.14c0.67-0.82,1.58-1.43,2.73-1.84c1.15-0.4,2.46-0.6,3.92-0.6c1.8,0,3.25,0.22,4.33,0.67
				c1.09,0.45,1.88,1.09,2.36,1.92c0.49,0.83,0.73,1.82,0.73,2.97V29.8h-4.15l-0.41-3.03c-0.6,1.27-1.35,2.15-2.25,2.64
				C203.73,29.89,202.67,30.14,201.45,30.14z M203.11,26.87c0.45,0,0.89-0.08,1.32-0.25c0.42-0.16,0.8-0.38,1.14-0.66
				c0.33-0.28,0.6-0.59,0.81-0.94c0.2-0.35,0.31-0.71,0.31-1.09v-2.6l-1.79,0.03c-0.83,0.01-1.6,0.11-2.31,0.3
				c-0.71,0.19-1.29,0.49-1.73,0.91c-0.44,0.42-0.65,0.99-0.65,1.7c0,0.82,0.28,1.45,0.85,1.91
				C201.62,26.64,202.31,26.87,203.11,26.87z"/>
			<path class="st6" d="M225.77,15.67h-3.91l0.03,9.37c0,0.43,0.05,0.75,0.16,0.96c0.11,0.21,0.28,0.35,0.51,0.41
				s0.53,0.09,0.89,0.09h2.36v3.06c-0.23,0.1-0.58,0.2-1.06,0.29c-0.48,0.09-1.15,0.14-2.01,0.14c-1.54,0-2.73-0.2-3.58-0.59
				c-0.84-0.4-1.43-0.95-1.76-1.67c-0.33-0.71-0.49-1.54-0.49-2.48v-9.57h-2.86v-3.45h3.03l1.24-5.3h3.54v5.29h3.91V15.67z"/>
			<path class="st6" d="M234.48,30.14c-1.12,0-2.13-0.21-3.03-0.63c-0.9-0.42-1.6-1.03-2.13-1.83c-0.52-0.8-0.78-1.77-0.78-2.92
				c0-1.93,0.72-3.39,2.16-4.39c1.44-1,3.71-1.52,6.82-1.56l2.19-0.03v-1.05c0-0.8-0.24-1.43-0.71-1.86
				c-0.47-0.44-1.2-0.65-2.18-0.64c-0.73,0.01-1.41,0.18-2.07,0.51c-0.65,0.33-1.1,0.9-1.33,1.72h-4.13
				c0.07-1.27,0.44-2.31,1.1-3.14c0.67-0.82,1.58-1.43,2.73-1.84c1.15-0.4,2.46-0.6,3.92-0.6c1.8,0,3.25,0.22,4.33,0.67
				c1.09,0.45,1.88,1.09,2.36,1.92c0.49,0.83,0.73,1.82,0.73,2.97V29.8h-4.15l-0.41-3.03c-0.6,1.27-1.35,2.15-2.25,2.64
				C236.76,29.89,235.7,30.14,234.48,30.14z M236.14,26.87c0.45,0,0.89-0.08,1.32-0.25c0.42-0.16,0.8-0.38,1.14-0.66
				c0.33-0.28,0.6-0.59,0.81-0.94c0.2-0.35,0.31-0.71,0.31-1.09v-2.6l-1.79,0.03c-0.83,0.01-1.6,0.11-2.31,0.3
				c-0.71,0.19-1.29,0.49-1.73,0.91c-0.44,0.42-0.65,0.99-0.65,1.7c0,0.82,0.28,1.45,0.85,1.91
				C234.65,26.64,235.34,26.87,236.14,26.87z"/>
			<path class="st6" d="M257.72,29.8V5.21h16.88l-0.02,4.18H262.7v5.97h10.32v4.1h-10.35v6.1l12.1,0.02v4.22H257.72z"/>
			<path class="st6" d="M286.09,11.88c1.47,0,2.75,0.3,3.82,0.9c1.07,0.6,1.92,1.41,2.53,2.43c0.62,1.02,0.97,2.16,1.06,3.42h-4.13
				c-0.08-0.46-0.24-0.93-0.49-1.39c-0.25-0.46-0.6-0.84-1.05-1.14c-0.45-0.3-1.02-0.45-1.7-0.45c-1.16,0-2.09,0.44-2.81,1.33
				c-0.72,0.89-1.08,2.24-1.08,4.05c0,1.71,0.35,3.07,1.05,4.07c0.7,1,1.68,1.5,2.94,1.5c0.67,0,1.23-0.16,1.67-0.49
				c0.45-0.33,0.8-0.72,1.04-1.18s0.41-0.89,0.48-1.28h4.03c-0.08,1.21-0.43,2.31-1.05,3.29s-1.47,1.76-2.54,2.33
				c-1.07,0.57-2.33,0.86-3.77,0.86c-1.63,0-3.09-0.36-4.37-1.09c-1.28-0.73-2.29-1.76-3.02-3.12s-1.1-2.97-1.1-4.85
				c0-1.81,0.35-3.41,1.05-4.79c0.7-1.38,1.69-2.46,2.97-3.24C282.9,12.27,284.39,11.88,286.09,11.88z"/>
			<path class="st6" d="M304.47,30.14c-1.72,0-3.22-0.37-4.5-1.1c-1.28-0.74-2.26-1.78-2.96-3.13c-0.7-1.35-1.05-2.95-1.05-4.79
				c0-1.85,0.35-3.46,1.05-4.85c0.7-1.38,1.68-2.46,2.96-3.23c1.27-0.77,2.78-1.16,4.51-1.16c1.73,0,3.24,0.38,4.5,1.13
				c1.27,0.75,2.25,1.82,2.94,3.2s1.04,3.01,1.04,4.9c0,1.77-0.34,3.33-1.01,4.68c-0.67,1.35-1.64,2.42-2.91,3.19
				C307.78,29.75,306.26,30.14,304.47,30.14z M304.48,26.45c0.87,0,1.58-0.25,2.11-0.77c0.53-0.51,0.92-1.18,1.17-2.01
				c0.24-0.83,0.37-1.74,0.37-2.73c0-0.93-0.11-1.81-0.33-2.64c-0.22-0.83-0.6-1.5-1.13-2.01c-0.53-0.51-1.26-0.77-2.18-0.77
				c-0.87,0-1.58,0.24-2.12,0.72c-0.54,0.48-0.93,1.13-1.18,1.96c-0.25,0.82-0.37,1.73-0.37,2.73c0,0.92,0.11,1.8,0.34,2.64
				c0.23,0.84,0.61,1.53,1.14,2.06C302.82,26.18,303.55,26.45,304.48,26.45z"/>
			<path class="st6" d="M323.17,30.14c-1.22,0-2.4-0.2-3.54-0.6c-1.13-0.4-2.09-1.04-2.87-1.9c-0.78-0.87-1.28-1.99-1.5-3.37h4.3
				c0.15,0.62,0.42,1.12,0.81,1.48c0.39,0.36,0.84,0.62,1.33,0.77c0.5,0.15,0.97,0.23,1.43,0.23c0.95,0,1.72-0.15,2.3-0.45
				c0.58-0.3,0.88-0.76,0.88-1.39c0-0.48-0.17-0.86-0.52-1.14s-0.92-0.5-1.71-0.65l-3.09-0.65c-1.55-0.33-2.8-0.89-3.74-1.67
				c-0.94-0.79-1.42-1.91-1.45-3.36c0-1.05,0.28-2,0.84-2.84c0.56-0.84,1.39-1.5,2.49-1.99s2.45-0.73,4.05-0.73
				c2.17,0,3.9,0.48,5.19,1.43c1.3,0.95,1.96,2.3,1.98,4.03h-4.15c-0.13-0.68-0.46-1.2-1.01-1.57c-0.55-0.37-1.24-0.55-2.07-0.55
				c-0.86,0-1.57,0.15-2.13,0.46s-0.83,0.77-0.83,1.39c0,0.46,0.23,0.83,0.68,1.1c0.45,0.27,1.16,0.5,2.11,0.69l2.86,0.65
				c0.99,0.24,1.79,0.56,2.41,0.98c0.62,0.41,1.1,0.86,1.44,1.35c0.34,0.49,0.58,0.98,0.71,1.47c0.13,0.49,0.2,0.94,0.2,1.33
				c0,1.17-0.31,2.16-0.93,2.98c-0.62,0.82-1.49,1.45-2.6,1.88C325.91,29.92,324.63,30.14,323.17,30.14z"/>
			<path class="st6" d="M336.65,35.41c-1.2,0-2.29-0.2-3.28-0.6v-3.16l1.73,0.07c0.76,0.04,1.37,0.01,1.84-0.11
				c0.46-0.12,0.82-0.28,1.06-0.47c0.24-0.19,0.42-0.39,0.52-0.6c0.1-0.21,0.17-0.38,0.22-0.5l0.32-0.97l-6.83-16.85h4.91
				l4.22,11.46l4.27-11.46h4.84l-7.12,17.68c-0.61,1.5-1.26,2.64-1.94,3.43c-0.68,0.79-1.41,1.34-2.2,1.63
				C338.42,35.26,337.56,35.41,336.65,35.41z"/>
			<path class="st6" d="M359.46,30.14c-1.22,0-2.4-0.2-3.54-0.6c-1.13-0.4-2.09-1.04-2.87-1.9c-0.78-0.87-1.28-1.99-1.5-3.37h4.3
				c0.15,0.62,0.42,1.12,0.81,1.48c0.39,0.36,0.84,0.62,1.33,0.77c0.5,0.15,0.97,0.23,1.43,0.23c0.95,0,1.72-0.15,2.3-0.45
				c0.58-0.3,0.88-0.76,0.88-1.39c0-0.48-0.17-0.86-0.52-1.14s-0.92-0.5-1.71-0.65l-3.09-0.65c-1.55-0.33-2.8-0.89-3.74-1.67
				c-0.94-0.79-1.42-1.91-1.45-3.36c0-1.05,0.28-2,0.84-2.84c0.56-0.84,1.39-1.5,2.49-1.99s2.45-0.73,4.05-0.73
				c2.17,0,3.9,0.48,5.19,1.43c1.3,0.95,1.96,2.3,1.98,4.03h-4.15c-0.13-0.68-0.46-1.2-1.01-1.57c-0.55-0.37-1.24-0.55-2.07-0.55
				c-0.86,0-1.57,0.15-2.13,0.46s-0.83,0.77-0.83,1.39c0,0.46,0.23,0.83,0.68,1.1c0.45,0.27,1.16,0.5,2.11,0.69l2.86,0.65
				c0.99,0.24,1.79,0.56,2.41,0.98c0.62,0.41,1.1,0.86,1.44,1.35c0.34,0.49,0.58,0.98,0.71,1.47c0.13,0.49,0.2,0.94,0.2,1.33
				c0,1.17-0.31,2.16-0.93,2.98c-0.62,0.82-1.49,1.45-2.6,1.88C362.21,29.92,360.92,30.14,359.46,30.14z"/>
			<path class="st6" d="M380.83,15.67h-3.91l0.03,9.37c0,0.43,0.05,0.75,0.16,0.96c0.11,0.21,0.28,0.35,0.51,0.41
				c0.23,0.06,0.53,0.09,0.89,0.09h2.36v3.06c-0.23,0.1-0.58,0.2-1.06,0.29s-1.15,0.14-2.01,0.14c-1.54,0-2.73-0.2-3.58-0.59
				c-0.84-0.4-1.43-0.95-1.76-1.67c-0.33-0.71-0.49-1.54-0.49-2.48v-9.57h-2.86v-3.45h3.03l1.24-5.3h3.54v5.29h3.91V15.67z"/>
			<path class="st6" d="M387.99,22.15c-0.01,0.9,0.13,1.67,0.42,2.34s0.72,1.17,1.28,1.53c0.56,0.36,1.24,0.54,2.03,0.54
				c0.85,0,1.59-0.18,2.24-0.54c0.64-0.36,1.08-0.96,1.33-1.79h4.47c-0.19,1.25-0.69,2.31-1.49,3.2c-0.8,0.88-1.76,1.56-2.9,2.02
				c-1.13,0.46-2.31,0.7-3.54,0.7c-1.73,0-3.26-0.37-4.58-1.1c-1.32-0.73-2.35-1.76-3.08-3.1c-0.74-1.34-1.11-2.91-1.11-4.73
				c0-1.76,0.33-3.34,1-4.75s1.64-2.53,2.92-3.35c1.27-0.82,2.81-1.23,4.6-1.23c1.79,0,3.3,0.38,4.51,1.13
				c1.22,0.75,2.14,1.8,2.75,3.15c0.62,1.34,0.93,2.89,0.93,4.65v1.34H387.99z M387.97,19.19h7.17c0-0.7-0.13-1.35-0.39-1.94
				s-0.65-1.05-1.18-1.39c-0.53-0.34-1.19-0.51-1.98-0.51c-0.77,0-1.42,0.18-1.96,0.55c-0.54,0.37-0.95,0.85-1.23,1.44
				C388.11,17.92,387.97,18.54,387.97,19.19z"/>
			<path class="st6" d="M403.23,29.8V12.22h4.86v2.48c0.53-0.77,1.25-1.43,2.15-1.99c0.9-0.56,2.04-0.83,3.41-0.83
				c0.6,0,1.21,0.11,1.84,0.32c0.62,0.22,1.21,0.53,1.76,0.94s0.99,0.93,1.33,1.56c0.57-0.8,1.31-1.48,2.24-2.01
				c0.92-0.54,1.95-0.81,3.08-0.81c0.66,0,1.32,0.11,2,0.32c0.67,0.22,1.29,0.57,1.86,1.05c0.57,0.49,1.02,1.14,1.37,1.95
				c0.35,0.81,0.52,1.81,0.52,3V29.8h-4.96V18.81c0-0.7-0.14-1.27-0.42-1.69c-0.28-0.43-0.63-0.73-1.05-0.92s-0.88-0.28-1.35-0.28
				c-0.44,0-0.89,0.09-1.34,0.26s-0.84,0.46-1.16,0.84c-0.32,0.39-0.48,0.89-0.48,1.51V29.8h-4.95V18.37c0-0.53-0.14-0.98-0.42-1.34
				c-0.28-0.36-0.64-0.64-1.06-0.82s-0.86-0.28-1.3-0.28c-0.45,0-0.91,0.09-1.36,0.28c-0.45,0.19-0.83,0.48-1.14,0.87
				s-0.46,0.88-0.46,1.47V29.8H403.23z"/>
		</g>
		<line class="st7" x1="160.23" y1="0" x2="160.23" y2="36"/>
		<g>
			<path class="st6" d="M40.25,10.17v16.09h-2.82h0v-7.26h-7.32v7.26h-2.82V10.17h2.82v6.4h7.32v-6.4h0H40.25z M24.47,26.26
				L24.47,26.26h-2.82V10.17h2.82V26.26z M18.88,26.26L18.88,26.26H15.9L8.58,14.43H8.51v11.83H5.83l0,0V10.17l0,0H8.8h0l7.35,11.86
				h0.05V10.17h2.68V26.26z M50.18,18.16L40.22,0.18H3.56c-1.83,0-3.31,1.49-3.31,3.32v29.37c0,1.83,1.48,3.31,3.31,3.31h36.63
				L50.18,18.16z"/>
			<path class="st8" d="M42.69,36.18l9.98-18.02L42.72,0.18h2.49c1.36,0,3.02,0.98,3.68,2.17l8.74,15.82l-8.78,15.85
				c-0.66,1.19-2.31,2.17-3.68,2.17H42.69z"/>
			<path class="st6" d="M42.69,36.18l9.98-18.02L42.72,0.18h2.49c1.36,0,3.02,0.98,3.68,2.17l8.74,15.82l-8.77,15.85
				c-0.66,1.19-2.32,2.17-3.68,2.17H42.69z"/>
			<path class="st6" d="M143.54,33.08c0.02,1.22,0.99,1.8,2.29,1.8c1.07,0,2.31-0.45,2.31-1.68c0-1.02-0.84-1.32-1.67-1.51
				c-0.84-0.19-1.68-0.27-1.68-0.83c0-0.45,0.61-0.53,0.94-0.53c0.5,0,0.95,0.15,1.05,0.69h1.19c-0.14-1.15-1.1-1.59-2.16-1.59
				c-0.94,0-2.16,0.35-2.16,1.48c0,1.05,0.82,1.35,1.66,1.53c0.83,0.19,1.66,0.26,1.69,0.86c0.03,0.59-0.72,0.68-1.15,0.68
				c-0.61,0-1.11-0.24-1.17-0.9H143.54z M139.33,31.7c0.03-0.77,0.57-1.37,1.36-1.37c0.77,0,1.26,0.65,1.3,1.37H139.33z
				 M143.13,32.45c0.19-1.55-0.81-3.02-2.44-3.02c-1.54,0-2.5,1.26-2.5,2.73c0,1.59,0.91,2.72,2.53,2.72c1.13,0,2.09-0.63,2.34-1.76
				h-1.08c-0.2,0.57-0.6,0.86-1.26,0.86c-0.95,0-1.39-0.72-1.39-1.53H143.13z M133.15,33.08c0.02,1.22,0.99,1.8,2.29,1.8
				c1.07,0,2.31-0.45,2.31-1.68c0-1.02-0.84-1.32-1.67-1.51c-0.84-0.19-1.68-0.27-1.68-0.83c0-0.45,0.61-0.53,0.94-0.53
				c0.5,0,0.95,0.15,1.05,0.69h1.19c-0.14-1.15-1.1-1.59-2.16-1.59c-0.94,0-2.16,0.35-2.16,1.48c0,1.05,0.82,1.35,1.66,1.53
				c0.83,0.19,1.66,0.26,1.69,0.86c0.03,0.59-0.72,0.68-1.15,0.68c-0.61,0-1.11-0.24-1.17-0.9H133.15z M132.38,30.93
				c0-1.09-1.06-1.5-2.07-1.5c-1.14,0-2.27,0.39-2.35,1.72h1.14c0.05-0.56,0.5-0.82,1.14-0.82c0.46,0,1.07,0.11,1.07,0.7
				c0,0.67-0.73,0.58-1.55,0.73c-0.96,0.11-1.99,0.32-1.99,1.61c0,1.01,0.84,1.51,1.77,1.51c0.61,0,1.34-0.19,1.79-0.63
				c0.09,0.47,0.42,0.63,0.88,0.63c0.19,0,0.55-0.07,0.72-0.13v-0.79c-0.12,0.02-0.21,0.02-0.28,0.02c-0.21,0-0.27-0.11-0.27-0.39
				V30.93z M131.24,33c0,0.72-0.78,0.98-1.28,0.98c-0.4,0-1.05-0.15-1.05-0.66c0-0.6,0.44-0.78,0.93-0.86
				c0.5-0.09,1.05-0.08,1.4-0.31V33z M123.56,31.7c0.03-0.77,0.57-1.37,1.36-1.37c0.77,0,1.26,0.65,1.3,1.37H123.56z M127.36,32.45
				c0.19-1.55-0.81-3.02-2.44-3.02c-1.54,0-2.5,1.26-2.5,2.73c0,1.59,0.91,2.72,2.53,2.72c1.13,0,2.09-0.63,2.34-1.76h-1.08
				c-0.2,0.57-0.6,0.86-1.26,0.86c-0.95,0-1.39-0.72-1.39-1.53H127.36z M117.38,33.08c0.02,1.22,0.99,1.8,2.29,1.8
				c1.07,0,2.31-0.45,2.31-1.68c0-1.02-0.84-1.32-1.67-1.51c-0.84-0.19-1.68-0.27-1.68-0.83c0-0.45,0.61-0.53,0.94-0.53
				c0.5,0,0.95,0.15,1.05,0.69h1.19c-0.14-1.15-1.1-1.59-2.16-1.59c-0.94,0-2.16,0.35-2.16,1.48c0,1.05,0.82,1.35,1.66,1.53
				c0.83,0.19,1.66,0.26,1.69,0.86c0.03,0.59-0.72,0.68-1.15,0.68c-0.61,0-1.11-0.24-1.17-0.9H117.38z M115.46,28.68h1.14V27.6
				h-1.14V28.68z M115.46,34.74h1.14v-5.17h-1.14V34.74z M108.55,34.74h2.96c2.2,0,3.15-1.6,3.15-3.57c0-1.97-0.95-3.57-3.15-3.57
				h-2.96V34.74z M109.8,28.62h1.23c1.96,0,2.38,1.12,2.38,2.55c0,1.43-0.42,2.55-2.38,2.55h-1.23V28.62z M100.5,33.08
				c0.02,1.22,0.99,1.8,2.29,1.8c1.07,0,2.31-0.45,2.31-1.68c0-1.02-0.84-1.32-1.67-1.51c-0.84-0.19-1.68-0.27-1.68-0.83
				c0-0.45,0.61-0.53,0.94-0.53c0.5,0,0.95,0.15,1.05,0.69h1.19c-0.14-1.15-1.1-1.59-2.16-1.59c-0.94,0-2.16,0.35-2.16,1.48
				c0,1.05,0.82,1.35,1.66,1.53c0.83,0.19,1.66,0.26,1.69,0.86c0.03,0.59-0.72,0.68-1.15,0.68c-0.61,0-1.11-0.24-1.17-0.9H100.5z
				 M99.76,29.57h-1.14v3c0,0.8-0.32,1.41-1.27,1.41c-0.62,0-0.99-0.33-0.99-1.24v-3.17h-1.14v3.28c0,1.35,0.58,2.03,1.93,2.03
				c0.57,0,1.19-0.34,1.47-0.86h0.02v0.72h1.12V29.57z M91.84,34.88c1.66,0,2.61-1.14,2.61-2.73c0-1.58-0.95-2.72-2.61-2.72
				c-1.66,0-2.61,1.14-2.61,2.72C89.23,33.74,90.17,34.88,91.84,34.88 M91.84,33.98c-1.02,0-1.47-0.93-1.47-1.83
				c0-0.89,0.45-1.82,1.47-1.82c1.02,0,1.47,0.93,1.47,1.82C93.31,33.05,92.85,33.98,91.84,33.98 M87.27,28.68h1.14V27.6h-1.14
				V28.68z M87.27,34.74h1.14v-5.17h-1.14V34.74z M83.56,30.42h0.86v3.05c0.02,0.86,0.24,1.32,1.43,1.32c0.25,0,0.49-0.04,0.74-0.06
				v-0.88c-0.16,0.04-0.32,0.04-0.48,0.04c-0.51,0-0.55-0.24-0.55-0.71v-2.76h1.03v-0.85h-1.03v-1.55h-1.14v1.55h-0.86V30.42z
				 M83.33,31.3c-0.11-1.27-1.13-1.87-2.33-1.87c-1.7,0-2.55,1.22-2.55,2.78c0,1.52,0.89,2.67,2.51,2.67c1.33,0,2.16-0.74,2.37-2.08
				h-1.14c-0.11,0.74-0.57,1.18-1.23,1.18c-0.99,0-1.37-0.91-1.37-1.77c0-1.57,0.83-1.88,1.42-1.88c0.63,0,1.09,0.34,1.18,0.97
				H83.33z M74.21,31.7c0.03-0.77,0.57-1.37,1.36-1.37c0.77,0,1.26,0.65,1.3,1.37H74.21z M78.01,32.45
				c0.19-1.55-0.81-3.02-2.44-3.02c-1.54,0-2.5,1.26-2.5,2.73c0,1.59,0.91,2.72,2.53,2.72c1.13,0,2.09-0.63,2.34-1.76h-1.08
				c-0.2,0.57-0.6,0.86-1.26,0.86c-0.95,0-1.39-0.72-1.39-1.53H78.01z M69.84,30.42h0.85v4.32h1.14v-4.32h0.97v-0.85h-0.97v-0.53
				c0-0.43,0.25-0.54,0.56-0.54c0.23,0,0.38,0.02,0.53,0.06v-0.89c-0.18-0.05-0.44-0.07-0.8-0.07c-0.74,0-1.43,0.22-1.43,1.54v0.43
				h-0.85V30.42z M64.79,34.74h1.14v-3.05c0-0.76,0.49-1.36,1.25-1.36c0.67,0,0.99,0.35,1.01,1.16v3.25h1.14v-3.55
				c0-1.16-0.71-1.76-1.83-1.76c-0.68,0-1.27,0.35-1.61,0.92l-0.02-0.02v-0.76h-1.08V34.74z M62.35,34.74h1.25V27.6h-1.25V34.74z"/>
			<path class="st6" d="M111.04,14.93h-1.14v2.64h-0.02c-0.35-0.57-1.07-0.81-1.72-0.81c-1.13,0-2.24,0.82-2.24,2.69
				c0,1.55,0.79,2.76,2.42,2.76c0.65,0,1.3-0.25,1.6-0.84h0.02v0.7h1.08V14.93z M107.06,19.54c0-0.93,0.38-1.88,1.45-1.88
				c0.88,0,1.43,0.68,1.43,1.82c0,0.9-0.43,1.83-1.45,1.83C107.5,21.31,107.06,20.43,107.06,19.54 M100.61,22.07h1.14v-3.05
				c0-0.76,0.49-1.36,1.25-1.36c0.67,0,0.99,0.35,1.01,1.16v3.25h1.14v-3.55c0-1.16-0.71-1.76-1.83-1.76
				c-0.68,0-1.27,0.35-1.61,0.92l-0.02-0.02V16.9h-1.08V22.07z M99.56,18.26c0-1.09-1.06-1.5-2.07-1.5c-1.14,0-2.27,0.39-2.35,1.72
				h1.14c0.05-0.56,0.5-0.82,1.14-0.82c0.46,0,1.07,0.11,1.07,0.7c0,0.67-0.73,0.58-1.55,0.73c-0.96,0.11-1.99,0.32-1.99,1.61
				c0,1.01,0.84,1.51,1.77,1.51c0.61,0,1.34-0.19,1.79-0.63c0.09,0.47,0.42,0.63,0.88,0.63c0.19,0,0.55-0.07,0.72-0.13v-0.79
				c-0.12,0.02-0.21,0.02-0.28,0.02c-0.21,0-0.27-0.11-0.27-0.39V18.26z M98.42,20.33c0,0.72-0.78,0.98-1.28,0.98
				c-0.4,0-1.05-0.15-1.05-0.66c0-0.6,0.44-0.78,0.93-0.86c0.5-0.09,1.05-0.08,1.4-0.31V20.33z M89.01,22.05l-0.13,0.4
				c-0.14,0.44-0.27,0.72-0.8,0.72c-0.18,0-0.36-0.04-0.54-0.07v0.96c0.26,0.04,0.52,0.06,0.79,0.06c1.19,0,1.46-0.84,1.83-1.77
				l2.01-5.45h-1.19l-1.31,3.86h-0.02l-1.35-3.86h-1.25L89.01,22.05z M86.64,16.9H85.5v0.71h-0.02c-0.29-0.58-0.88-0.85-1.53-0.85
				c-1.47,0-2.34,1.2-2.34,2.59c0,1.48,0.68,2.72,2.32,2.72c0.64,0,1.23-0.34,1.55-0.91h0.02v0.79c0,0.85-0.41,1.32-1.33,1.32
				c-0.58,0-1.1-0.11-1.24-0.76h-1.14c0.1,1.21,1.27,1.61,2.31,1.61c1.63,0,2.54-0.77,2.54-2.32V16.9z M84.11,21.17
				c-0.95,0-1.36-0.86-1.36-1.71c0-0.86,0.35-1.8,1.36-1.8c0.99,0,1.39,0.82,1.39,1.71C85.5,20.25,85.12,21.17,84.11,21.17
				 M78.52,22.07h1.14v-2.46c0-1.14,0.62-1.77,1.4-1.77c0.16,0,0.33,0.03,0.49,0.05v-1.1c-0.1-0.01-0.17-0.03-0.43-0.03
				c-0.7,0-1.38,0.59-1.51,1.14h-0.02v-1h-1.07V22.07z M74.03,19.03c0.03-0.77,0.57-1.37,1.36-1.37c0.77,0,1.26,0.65,1.3,1.37H74.03
				z M77.83,19.78c0.19-1.55-0.81-3.02-2.44-3.02c-1.54,0-2.5,1.26-2.5,2.73c0,1.59,0.91,2.72,2.53,2.72c1.13,0,2.09-0.63,2.34-1.76
				h-1.08c-0.2,0.57-0.6,0.86-1.26,0.86c-0.95,0-1.39-0.72-1.39-1.53H77.83z M70.94,22.07h1.14v-7.14h-1.14V22.07z M68.71,22.07
				h1.14v-7.14h-1.14V22.07z M61.52,22.07h1.29l0.67-1.89h2.85L67,22.07h1.34l-2.75-7.14h-1.33L61.52,22.07z M64.9,16.16h0.03
				L66,19.23h-2.18L64.9,16.16z"/>
			<path class="st6" d="M145.15,5.08H146V9.4h1.14V5.08h0.97V4.23h-0.97V3.7c0-0.43,0.25-0.54,0.56-0.54c0.23,0,0.38,0.02,0.53,0.06
				V2.33c-0.18-0.05-0.44-0.07-0.8-0.07c-0.74,0-1.43,0.22-1.43,1.54v0.43h-0.85V5.08z M142.28,9.54c1.66,0,2.61-1.14,2.61-2.73
				c0-1.58-0.95-2.72-2.61-2.72c-1.66,0-2.61,1.14-2.61,2.72C139.67,8.41,140.62,9.54,142.28,9.54 M142.28,8.65
				c-1.02,0-1.47-0.93-1.47-1.83c0-0.89,0.45-1.82,1.47-1.82c1.02,0,1.47,0.93,1.47,1.82C143.75,7.71,143.3,8.65,142.28,8.65
				 M132.82,6.36c0.03-0.77,0.57-1.37,1.36-1.37c0.77,0,1.26,0.65,1.3,1.37H132.82z M136.62,7.11c0.19-1.55-0.81-3.02-2.44-3.02
				c-1.54,0-2.5,1.26-2.5,2.73c0,1.59,0.91,2.72,2.53,2.72c1.13,0,2.09-0.63,2.34-1.76h-1.08c-0.2,0.57-0.6,0.86-1.26,0.86
				c-0.95,0-1.39-0.72-1.39-1.53H136.62z M128.26,5.08h0.86v3.05c0.02,0.86,0.24,1.32,1.43,1.32c0.25,0,0.49-0.04,0.74-0.06V8.52
				c-0.16,0.04-0.32,0.04-0.48,0.04c-0.51,0-0.55-0.24-0.55-0.71V5.08h1.03V4.23h-1.03V2.68h-1.14v1.55h-0.86V5.08z M127.76,4.23
				h-1.14v3c0,0.8-0.32,1.41-1.27,1.41c-0.62,0-0.99-0.33-0.99-1.24V4.23h-1.14v3.28c0,1.35,0.58,2.03,1.93,2.03
				c0.57,0,1.19-0.34,1.47-0.86h0.02V9.4h1.12V4.23z M119.55,5.08h0.86v3.05c0.02,0.86,0.24,1.32,1.43,1.32
				c0.25,0,0.49-0.04,0.74-0.06V8.52c-0.16,0.04-0.32,0.04-0.48,0.04c-0.51,0-0.55-0.24-0.55-0.71V5.08h1.03V4.23h-1.03V2.68h-1.14
				v1.55h-0.86V5.08z M117.87,3.34h1.14V2.26h-1.14V3.34z M117.87,9.4h1.14V4.23h-1.14V9.4z M114.17,5.08h0.86v3.05
				c0.02,0.86,0.24,1.32,1.43,1.32c0.25,0,0.49-0.04,0.74-0.06V8.52c-0.16,0.04-0.32,0.04-0.48,0.04c-0.51,0-0.55-0.24-0.55-0.71
				V5.08h1.03V4.23h-1.03V2.68h-1.14v1.55h-0.86V5.08z M109.4,7.75c0.02,1.22,0.99,1.8,2.29,1.8c1.07,0,2.31-0.45,2.31-1.68
				c0-1.02-0.84-1.32-1.67-1.51c-0.84-0.19-1.68-0.27-1.68-0.83c0-0.45,0.61-0.53,0.94-0.53c0.5,0,0.95,0.15,1.05,0.69h1.19
				c-0.14-1.15-1.1-1.59-2.16-1.59c-0.94,0-2.16,0.35-2.16,1.48c0,1.05,0.82,1.35,1.66,1.53c0.83,0.19,1.66,0.26,1.69,0.86
				c0.03,0.59-0.72,0.68-1.15,0.68c-0.61,0-1.11-0.24-1.17-0.9H109.4z M104.12,9.4h1.14V6.35c0-0.76,0.49-1.36,1.25-1.36
				c0.67,0,0.99,0.35,1.01,1.16V9.4h1.14V5.85c0-1.16-0.71-1.76-1.83-1.76c-0.68,0-1.27,0.35-1.61,0.92l-0.02-0.02V4.23h-1.08V9.4z
				 M101.68,9.4h1.25V2.26h-1.25V9.4z M96.72,9.4h1.14V2.26h-1.14V9.4z M95.63,5.59c0-1.09-1.06-1.5-2.07-1.5
				c-1.14,0-2.27,0.39-2.35,1.72h1.14c0.05-0.56,0.5-0.82,1.14-0.82c0.46,0,1.07,0.11,1.07,0.7c0,0.67-0.73,0.58-1.55,0.73
				c-0.96,0.11-1.99,0.32-1.99,1.61c0,1.01,0.84,1.51,1.77,1.51c0.61,0,1.34-0.19,1.79-0.63c0.09,0.47,0.42,0.63,0.88,0.63
				c0.19,0,0.55-0.07,0.72-0.13V8.63c-0.12,0.02-0.21,0.02-0.28,0.02c-0.21,0-0.27-0.11-0.27-0.39V5.59z M94.5,7.66
				c0,0.72-0.78,0.98-1.28,0.98c-0.4,0-1.05-0.15-1.05-0.66c0-0.6,0.44-0.78,0.93-0.86c0.5-0.09,1.05-0.08,1.4-0.31V7.66z
				 M85.74,9.4h1.14V6.35c0-0.76,0.49-1.36,1.25-1.36c0.67,0,0.99,0.35,1.01,1.16V9.4h1.14V5.85c0-1.16-0.71-1.76-1.83-1.76
				c-0.68,0-1.27,0.35-1.61,0.92l-0.02-0.02V4.23h-1.08V9.4z M82.36,9.54c1.66,0,2.61-1.14,2.61-2.73c0-1.58-0.95-2.72-2.61-2.72
				c-1.66,0-2.61,1.14-2.61,2.72C79.75,8.41,80.7,9.54,82.36,9.54 M82.36,8.65c-1.02,0-1.47-0.93-1.47-1.83
				c0-0.89,0.45-1.82,1.47-1.82c1.02,0,1.47,0.93,1.47,1.82C83.83,7.71,83.38,8.65,82.36,8.65 M77.79,3.34h1.14V2.26h-1.14V3.34z
				 M77.79,9.4h1.14V4.23h-1.14V9.4z M74.09,5.08h0.86v3.05c0.02,0.86,0.24,1.32,1.43,1.32c0.25,0,0.49-0.04,0.74-0.06V8.52
				c-0.16,0.04-0.32,0.04-0.48,0.04c-0.51,0-0.55-0.24-0.55-0.71V5.08h1.03V4.23h-1.03V2.68h-1.14v1.55h-0.86V5.08z M73.56,5.59
				c0-1.09-1.06-1.5-2.07-1.5c-1.14,0-2.27,0.39-2.35,1.72h1.14c0.05-0.56,0.5-0.82,1.14-0.82c0.46,0,1.07,0.11,1.07,0.7
				c0,0.67-0.73,0.58-1.55,0.73c-0.96,0.11-1.99,0.32-1.99,1.61c0,1.01,0.84,1.51,1.77,1.51c0.61,0,1.34-0.19,1.79-0.63
				c0.09,0.47,0.42,0.63,0.88,0.63c0.19,0,0.55-0.07,0.72-0.13V8.63c-0.12,0.02-0.21,0.02-0.28,0.02c-0.21,0-0.27-0.11-0.27-0.39
				V5.59z M72.42,7.66c0,0.72-0.78,0.98-1.28,0.98c-0.4,0-1.05-0.15-1.05-0.66c0-0.6,0.44-0.78,0.93-0.86
				c0.5-0.09,1.05-0.08,1.4-0.31V7.66z M62.3,9.4h1.19V4.15h0.03l3.25,5.25h1.32V2.26H66.9v5.26h-0.02l-3.26-5.26H62.3V9.4z"/>
		</g>
	</g>
</g>
<g id="nde_x5F_color_x5F_acronym" class="st0">
</g>
<g id="nde_x5F_color_x5F_acronym_copy" class="st0">
</g>
</svg>
