<?xml version="1.0" encoding="utf-8"?>
<!-- Generator: Adobe Illustrator 24.1.2, SVG Export Plug-In . SVG Version: 6.00 Build 0)  -->
<svg version="1.1" id="Layer_1" xmlns="http://www.w3.org/2000/svg" xmlns:xlink="http://www.w3.org/1999/xlink" x="0px" y="0px"
	 viewBox="0 0 138 19" enable-background="new 0 0 138 19" xml:space="preserve">
<path id="nde-mobile-vertical" fill="#FFFFFF" d="M0,0h86.4 M6.9,7.5h1.9v9.4H7l-4.5-6.5v6.5H0.7V7.5h1.9l4.3,6.2L6.9,7.5z
	 M10.8,7.5h1.9v9.4h-1.9V7.5z M14.1,16.9l3.4-9.4h2l3.4,9.4H21l-0.8-2.2h-3.3L16,16.9H14.1z M17.3,13h2.5l-1.2-3.7L17.3,13z
	 M24.3,7.5h1.9v9.4h-1.9V7.5z M28.2,7.5H31c1,0,1.9,0.2,2.8,0.6c0.7,0.3,1.2,0.9,1.6,1.6c0.4,0.8,0.5,1.6,0.5,2.4
	c0,0.9-0.2,1.7-0.5,2.5c-0.3,0.7-0.9,1.3-1.6,1.6c-0.9,0.4-1.8,0.6-2.8,0.6h-2.7V7.5z M30.1,9v6.3H31c0.5,0,1-0.1,1.4-0.3
	c0.5-0.2,0.8-0.6,1.1-1c0.3-0.6,0.4-1.2,0.4-1.9c0-0.6-0.1-1.2-0.3-1.8c-0.2-0.4-0.6-0.8-1-1C32.1,9.1,31.6,9,31,9H30.1z M40.3,7.5
	h2.9c1,0,1.9,0.2,2.8,0.6c0.7,0.4,1.2,0.9,1.5,1.6c0.4,0.8,0.5,1.6,0.5,2.4c0,0.9-0.2,1.7-0.5,2.5c-0.4,0.7-0.9,1.3-1.6,1.6
	c-0.9,0.4-1.8,0.6-2.8,0.6h-2.8V7.5z M42.2,9v6.3h0.9c0.5,0,1-0.1,1.4-0.3c0.5-0.2,0.8-0.6,1.1-1c0.3-0.6,0.4-1.2,0.4-1.9
	c0-0.6-0.1-1.2-0.3-1.8c-0.2-0.4-0.6-0.8-1-1c-0.5-0.2-1-0.3-1.5-0.3H42.2z M51.4,17c-0.4,0-0.8-0.1-1.2-0.2c-0.7-0.3-1.1-1-1.1-1.8
	c0-0.7,0.3-1.3,0.8-1.7c0.8-0.4,1.7-0.6,2.6-0.6h0.8v-0.4c0-0.3,0-0.5-0.2-0.7c-0.2-0.2-0.5-0.3-0.8-0.2c-0.3,0-0.5,0.1-0.8,0.2
	c-0.3,0.1-0.4,0.4-0.5,0.6h-1.6c0-0.4,0.2-0.9,0.4-1.2c0.3-0.3,0.6-0.6,1-0.7c0.5-0.2,1-0.2,1.4-0.2c0.6,0,1.1,0.1,1.7,0.3
	c0.4,0.1,0.7,0.4,0.9,0.7c0.2,0.3,0.3,0.7,0.3,1.1v4.7h-1.5l-0.1-1.2c-0.2,0.4-0.5,0.8-0.9,1C52.2,16.9,51.8,17,51.4,17z M52,15.7
	c0.2,0,0.3,0,0.5-0.1c0.2-0.1,0.3-0.2,0.4-0.3c0.1-0.1,0.2-0.2,0.3-0.4c0.1-0.1,0.1-0.3,0.1-0.4v-1h-0.7c-0.3,0-0.6,0-0.9,0.1
	c-0.2,0.1-0.5,0.2-0.7,0.3c-0.2,0.2-0.3,0.4-0.2,0.6c0,0.3,0.1,0.6,0.3,0.7C51.4,15.6,51.7,15.7,52,15.7z M60.6,11.5h-1.4v3.6
	c0,0.1,0,0.2,0,0.4c0,0.1,0.1,0.1,0.2,0.2c0.1,0,0.2,0,0.3,0h0.9v1.2c-0.1,0.1-0.3,0.1-0.4,0.1c-0.3,0-0.5,0-0.8,0
	c-0.5,0-0.9-0.1-1.4-0.2c-0.3-0.1-0.5-0.3-0.7-0.6c-0.1-0.3-0.2-0.6-0.2-1v-3.6h-1.1v-1.4h1.2l0.5-2h1.4v2h1.4L60.6,11.5z M64,17
	c-0.4,0-0.8-0.1-1.2-0.2c-0.3-0.1-0.6-0.4-0.8-0.7c-0.2-0.3-0.3-0.7-0.3-1.1c0-0.7,0.3-1.3,0.8-1.7c0.8-0.4,1.7-0.6,2.6-0.6h0.8
	v-0.4c0-0.3-0.1-0.5-0.3-0.7c-0.2-0.2-0.6-0.3-0.9-0.2c-0.3,0-0.5,0.1-0.8,0.2c-0.3,0.1-0.4,0.4-0.5,0.6h-1.6c0-0.4,0.1-0.9,0.4-1.2
	c0.3-0.3,0.6-0.6,1-0.7c0.5-0.1,1-0.2,1.4-0.2c0.6,0,1.1,0.1,1.7,0.3c0.4,0.1,0.7,0.4,0.9,0.7c0.2,0.3,0.3,0.7,0.3,1.1v4.7h-1.4
	l-0.2-1.2c-0.2,0.4-0.5,0.8-0.9,1C64.8,16.9,64.4,17,64,17z M64.6,15.7c0.2,0,0.3,0,0.5-0.1c0.2-0.1,0.3-0.2,0.4-0.3
	c0.1-0.1,0.2-0.2,0.3-0.4c0.1-0.1,0.1-0.3,0.1-0.4v-1h-0.7c-0.3,0-0.6,0-0.9,0.1c-0.2,0.1-0.5,0.2-0.7,0.3c-0.4,0.4-0.4,1,0,1.4
	c0,0,0,0,0,0C64,15.7,64.3,15.8,64.6,15.7z M72.4,16.9V7.5h6.4v1.6h-4.5v2.3h3.9V13h-3.9v2.3h4.6v1.6L72.4,16.9z M83.2,10
	c0.5,0,1,0.1,1.4,0.3c0.4,0.2,0.7,0.5,1,0.9c0.2,0.4,0.4,0.8,0.4,1.3h-1.6c0-0.2-0.1-0.4-0.2-0.5c-0.2-0.4-0.6-0.6-1.1-0.6
	c-0.4,0-0.8,0.2-1.1,0.5c-0.3,0.5-0.5,1-0.4,1.5c0,0.5,0.1,1.1,0.4,1.6c0.3,0.4,0.7,0.6,1.1,0.6c0.2,0,0.4-0.1,0.6-0.2
	c0.2-0.1,0.3-0.3,0.4-0.5c0.1-0.2,0.2-0.3,0.2-0.5H86c0,0.4-0.2,0.9-0.4,1.3c-0.2,0.4-0.6,0.7-1,0.9c-0.4,0.2-0.9,0.3-1.4,0.3
	c-0.6,0-1.2-0.1-1.7-0.4c-0.5-0.3-0.9-0.7-1.2-1.2c-0.3-0.6-0.4-1.2-0.4-1.8c0-0.6,0.1-1.3,0.4-1.8c0.3-0.5,0.6-0.9,1.1-1.2
	C82,10.2,82.6,10,83.2,10z M90.3,17c-0.6,0-1.2-0.1-1.7-0.4c-0.5-0.3-0.9-0.7-1.1-1.2c-0.3-0.6-0.4-1.2-0.4-1.8
	c0-0.6,0.1-1.3,0.4-1.9c0.2-0.5,0.6-0.9,1.1-1.2c1.1-0.6,2.4-0.6,3.4,0c0.5,0.3,0.9,0.7,1.1,1.2c0.3,0.6,0.4,1.2,0.4,1.9
	c0,0.6-0.1,1.2-0.4,1.8c-0.2,0.5-0.6,0.9-1.1,1.2C91.5,16.9,90.9,17,90.3,17z M90.3,15.5c0.3,0,0.6-0.1,0.8-0.3
	c0.2-0.2,0.4-0.5,0.4-0.8c0.1-0.3,0.1-0.7,0.1-1c0-0.3,0-0.7-0.1-1c-0.1-0.3-0.2-0.5-0.4-0.8c-0.5-0.4-1.2-0.4-1.6,0
	c-0.2,0.2-0.4,0.5-0.4,0.7c-0.1,0.3-0.1,0.7-0.1,1c0,0.3,0,0.7,0.1,1c0.1,0.3,0.2,0.6,0.4,0.8C89.6,15.5,90,15.6,90.3,15.5
	L90.3,15.5z M97.4,17c-0.5,0-0.9-0.1-1.4-0.2c-0.4-0.2-0.8-0.4-1.1-0.7c-0.3-0.4-0.5-0.8-0.6-1.3H96c0,0.2,0.1,0.4,0.3,0.6
	c0.1,0.1,0.3,0.2,0.5,0.3c0.2,0.1,0.4,0.1,0.5,0.1c0.3,0,0.6,0,0.9-0.2c0.2-0.1,0.3-0.3,0.3-0.5c0-0.2-0.1-0.3-0.2-0.4
	c-0.2-0.1-0.4-0.2-0.6-0.2l-1.2-0.2c-0.5-0.1-1-0.3-1.4-0.6c-0.4-0.3-0.6-0.8-0.5-1.3c0-0.4,0.1-0.8,0.3-1.1c0.2-0.3,0.6-0.6,1-0.7
	c0.5-0.2,1-0.3,1.5-0.3c0.7,0,1.5,0.1,2.1,0.5c0.5,0.4,0.8,0.9,0.7,1.5h-1.6c-0.1-0.2-0.2-0.4-0.4-0.6c-0.2-0.1-0.5-0.2-0.8-0.2
	c-0.3,0-0.6,0.1-0.9,0.2c-0.2,0.1-0.3,0.3-0.3,0.5c0,0.2,0.1,0.3,0.3,0.4c0.3,0.1,0.5,0.2,0.8,0.3l1.1,0.2c0.3,0.1,0.6,0.2,0.9,0.4
	c0.2,0.1,0.4,0.3,0.5,0.5c0.1,0.2,0.2,0.4,0.3,0.6c0.1,0.2,0.1,0.3,0.1,0.5c0,0.4-0.1,0.8-0.4,1.1c-0.3,0.3-0.6,0.6-1,0.7
	C98.3,16.9,97.9,17,97.4,17z M102.5,19c-0.4,0-0.9-0.1-1.3-0.2v-1.2h0.7c0.2,0,0.5,0,0.7,0c0.1,0,0.3-0.1,0.4-0.2
	c0.1-0.1,0.1-0.1,0.2-0.2c0-0.1,0.1-0.1,0.1-0.2l0.1-0.4l-2.6-6.5h1.9l1.6,4.3l1.6-4.3h1.9l-2.6,6.8c-0.2,0.5-0.4,0.9-0.7,1.3
	c-0.2,0.3-0.5,0.5-0.8,0.6C103.3,18.9,102.9,19,102.5,19z M111.2,17c-0.5,0-0.9-0.1-1.4-0.2c-0.4-0.2-0.8-0.4-1.1-0.7
	c-0.3-0.4-0.5-0.8-0.6-1.3h1.6c0,0.2,0.2,0.4,0.3,0.6c0.1,0.1,0.3,0.2,0.5,0.3c0.2,0.1,0.4,0.1,0.5,0.1c0.3,0,0.6,0,0.9-0.2
	c0.2-0.1,0.3-0.3,0.3-0.5c0-0.2-0.1-0.3-0.2-0.4c-0.2-0.1-0.4-0.2-0.6-0.2l-1.2-0.2c-0.5-0.1-1-0.3-1.4-0.6
	c-0.4-0.3-0.6-0.8-0.5-1.3c0-0.4,0.1-0.8,0.3-1.1c0.2-0.3,0.6-0.6,1-0.7c0.5-0.2,1-0.3,1.5-0.3c0.7,0,1.4,0.2,2,0.5
	c0.5,0.4,0.8,0.9,0.7,1.5h-1.6c0-0.2-0.2-0.4-0.4-0.6c-0.2-0.1-0.5-0.2-0.8-0.2c-0.3,0-0.6,0-0.8,0.2c-0.2,0.1-0.3,0.3-0.3,0.5
	c0,0.2,0.1,0.3,0.3,0.4c0.3,0.1,0.5,0.2,0.8,0.3l1.1,0.2c0.3,0.1,0.6,0.2,0.9,0.4c0.2,0.1,0.4,0.3,0.5,0.5c0.2,0.3,0.3,0.7,0.3,1.1
	c0,0.4-0.1,0.8-0.3,1.1c-0.3,0.3-0.6,0.6-1,0.7C112.2,16.9,111.7,17,111.2,17z M119.4,11.5h-1.4v3.6c0,0.1,0,0.2,0,0.4
	c0,0.1,0.1,0.1,0.2,0.2c0.1,0,0.2,0,0.3,0h0.9v1.2c-0.1,0.1-0.3,0.1-0.4,0.1c-0.3,0-0.5,0-0.8,0c-0.5,0-0.9-0.1-1.4-0.2
	c-0.3-0.1-0.5-0.3-0.7-0.6c-0.1-0.3-0.2-0.6-0.2-1v-3.6h-1.1v-1.4h1.2l0.5-2h1.4v2h1.4L119.4,11.5z M122.1,13.9c0,0.3,0,0.6,0.2,0.9
	c0.1,0.2,0.3,0.4,0.5,0.6c0.2,0.1,0.5,0.2,0.8,0.2c0.3,0,0.6-0.1,0.8-0.2c0.3-0.1,0.4-0.4,0.5-0.7h1.7c-0.1,0.5-0.3,0.9-0.6,1.2
	c-0.3,0.3-0.7,0.6-1.1,0.8c-0.4,0.2-0.9,0.3-1.4,0.3c-0.6,0-1.2-0.1-1.7-0.4c-0.5-0.3-0.9-0.7-1.2-1.2c-0.3-0.6-0.4-1.2-0.4-1.8
	c0-0.6,0.1-1.2,0.4-1.8c0.2-0.5,0.6-1,1.1-1.3c0.5-0.3,1.1-0.5,1.8-0.5c0.6,0,1.2,0.1,1.7,0.4c0.5,0.3,0.8,0.7,1.1,1.2
	c0.2,0.6,0.4,1.2,0.3,1.8v0.5H122.1z M122.1,12.8h2.7c0-0.3,0-0.5-0.1-0.7c-0.1-0.2-0.3-0.4-0.5-0.5c-0.2-0.1-0.5-0.2-0.8-0.2
	c-0.3,0-0.5,0.1-0.7,0.2c-0.2,0.1-0.4,0.3-0.5,0.5C122.2,12.3,122.1,12.6,122.1,12.8L122.1,12.8z M127.9,16.9v-6.8h1.9v1
	c0.2-0.3,0.5-0.6,0.8-0.8c0.4-0.2,0.8-0.3,1.3-0.3c0.2,0,0.5,0,0.7,0.1c0.2,0.1,0.5,0.2,0.7,0.4c0.2,0.2,0.4,0.4,0.5,0.6
	c0.2-0.3,0.5-0.6,0.8-0.8c0.4-0.2,0.8-0.3,1.2-0.3c0.3,0,0.5,0,0.7,0.1c0.3,0.1,0.5,0.2,0.7,0.4c0.2,0.2,0.4,0.5,0.5,0.7
	c0.1,0.4,0.2,0.8,0.2,1.2v4.4h-1.9v-4.1c0-0.2,0-0.5-0.2-0.6c-0.1-0.2-0.2-0.3-0.4-0.3c-0.2-0.1-0.3-0.1-0.5-0.1
	c-0.2,0-0.4,0-0.5,0.1c-0.2,0.1-0.3,0.2-0.4,0.3c-0.1,0.2-0.2,0.4-0.2,0.6v4.3H132v-4.3c0-0.2-0.1-0.4-0.2-0.5
	c-0.1-0.1-0.2-0.2-0.4-0.3c-0.2-0.1-0.3-0.2-0.5-0.2c-0.2,0-0.4,0-0.5,0.1c-0.2,0.1-0.3,0.2-0.4,0.3c-0.1,0.2-0.2,0.4-0.2,0.6v4.3
	L127.9,16.9z"/>
</svg>
