<?xml version="1.0" encoding="utf-8"?>
<!-- Generator: Adobe Illustrator 24.1.2, SVG Export Plug-In . SVG Version: 6.00 Build 0)  -->
<svg version="1.1" id="Layer_1" xmlns="http://www.w3.org/2000/svg" xmlns:xlink="http://www.w3.org/1999/xlink" x="0px" y="0px"
	 viewBox="0 0 292.5 28" enable-background="new 0 0 292.5 28" xml:space="preserve">
<path id="nde-mobile-preferred" fill="#FFFFFF" d="M18.8,2.8h4v19.6h-3.6L9.9,8.9v13.5H6V2.8h3.9l8.9,13V2.8z M27.1,2.8h3.9v19.6
	h-3.9V2.8z M34,22.4l7-19.6h4.2l7,19.6h-3.9l-1.6-4.5h-7L38,22.4H34z M40.5,14.4h5.2l-2.6-7.8L40.5,14.4z M55.1,2.8h3.9v19.6h-3.9
	V2.8z M63.4,2.8h4.3h1.5c2,0,4,0.4,5.8,1.3c1.4,0.7,2.6,1.9,3.3,3.4c0.7,1.6,1.1,3.3,1,5.1c0,1.8-0.3,3.6-1.1,5.2
	c-0.7,1.5-1.9,2.7-3.4,3.4c-1.8,0.9-3.8,1.3-5.8,1.2h-5.7V2.8z M67.4,6v13.2h1.9c1.1,0,2.1-0.2,3.1-0.6c0.9-0.5,1.7-1.2,2.2-2.1
	c0.6-1.2,0.9-2.6,0.8-3.9c0.1-1.3-0.2-2.6-0.7-3.7c-0.4-0.9-1.2-1.6-2.1-2.1c-1-0.5-2.1-0.7-3.2-0.7L67.4,6z M88.7,2.8h4.3h1.5
	c2,0,4,0.4,5.8,1.3c1.4,0.7,2.6,1.9,3.3,3.4c0.7,1.6,1.1,3.3,1.1,5.1c0,1.8-0.3,3.6-1.1,5.2c-0.7,1.5-1.9,2.7-3.4,3.4
	c-1.8,0.9-3.8,1.3-5.8,1.2h-5.7V2.8z M92.6,6v13.2h1.8c1.1,0,2.1-0.2,3.1-0.6c0.9-0.5,1.7-1.2,2.2-2.1c0.6-1.2,0.9-2.6,0.8-3.9
	c0.1-1.3-0.2-2.6-0.7-3.7c-0.4-0.9-1.2-1.6-2.1-2.1c-1-0.5-2.1-0.7-3.2-0.7L92.6,6z M111.7,22.6c-0.8,0-1.7-0.2-2.4-0.5
	c-0.7-0.3-1.3-0.8-1.7-1.5c-0.4-0.7-0.7-1.5-0.6-2.3c-0.1-1.4,0.6-2.7,1.7-3.5c1.2-0.8,3-1.2,5.4-1.2h1.7v-0.8
	c0-0.6-0.2-1.1-0.6-1.5c-0.5-0.4-1.1-0.6-1.7-0.5c-0.6,0-1.1,0.1-1.6,0.4c-0.5,0.3-0.9,0.8-1.1,1.4h-3.3c0-0.9,0.3-1.8,0.9-2.5
	c0.6-0.7,1.3-1.2,2.2-1.5c1-0.3,2.1-0.5,3.1-0.5c1.2,0,2.3,0.1,3.5,0.5c0.8,0.3,1.4,0.8,1.9,1.5c0.4,0.7,0.6,1.5,0.6,2.4v9.8h-3.3
	L116,20c-0.4,0.9-1,1.6-1.8,2.1C113.4,22.5,112.6,22.7,111.7,22.6z M113,20c0.4,0,0.7-0.1,1.1-0.2c0.3-0.1,0.7-0.3,0.9-0.5
	c0.3-0.2,0.5-0.5,0.6-0.8c0.2-0.3,0.2-0.6,0.2-0.9v-2.1h-1.4c-0.6,0-1.3,0.1-1.9,0.2c-0.5,0.1-1,0.4-1.4,0.7
	c-0.4,0.4-0.5,0.8-0.5,1.4c0,0.6,0.2,1.2,0.7,1.5C111.8,19.9,112.4,20.1,113,20z M131.1,11.1h-3.1v7.5c0,0.3,0,0.5,0.1,0.8
	c0.1,0.2,0.2,0.3,0.4,0.3c0.2,0.1,0.5,0.1,0.7,0.1h1.9v2.4c-0.3,0.1-0.6,0.2-0.8,0.2c-0.5,0.1-1.1,0.1-1.6,0.1c-1,0-1.9-0.1-2.8-0.5
	c-0.6-0.3-1.1-0.7-1.4-1.3c-0.3-0.6-0.4-1.3-0.4-2v-7.6h-2.3V8.4h2.4l1-4.2h2.8v4.2h3.1L131.1,11.1z M138,22.6
	c-0.8,0-1.7-0.2-2.4-0.5c-0.7-0.3-1.3-0.8-1.7-1.5c-0.4-0.7-0.6-1.5-0.6-2.3c-0.1-1.4,0.6-2.7,1.7-3.5c1.1-0.8,3-1.2,5.4-1.2h1.7
	v-0.8c0-0.6-0.2-1.1-0.6-1.5c-0.5-0.4-1.1-0.6-1.7-0.5c-0.6,0-1.1,0.2-1.6,0.4c-0.5,0.3-0.9,0.8-1.1,1.4h-3.3c0-0.9,0.3-1.8,0.9-2.5
	c0.6-0.7,1.3-1.2,2.2-1.5c1-0.3,2.1-0.5,3.1-0.5c1.2,0,2.3,0.1,3.5,0.5c0.8,0.3,1.4,0.8,1.9,1.5c0.4,0.7,0.6,1.5,0.6,2.4v9.9h-3.3
	l-0.3-2.4c-0.4,0.9-1,1.6-1.8,2.1C139.7,22.5,138.9,22.7,138,22.6z M139.3,20c0.4,0,0.7-0.1,1.1-0.2c0.3-0.1,0.7-0.3,0.9-0.5
	c0.3-0.2,0.5-0.5,0.6-0.8c0.2-0.3,0.2-0.6,0.2-0.9v-2.1h-1.4c-0.6,0-1.3,0.1-1.9,0.2c-0.5,0.1-1,0.4-1.4,0.7
	c-0.4,0.4-0.5,0.9-0.5,1.4c0,0.6,0.2,1.2,0.7,1.5C138.1,19.9,138.7,20.1,139.3,20z M155.7,22.4V2.8h13.4v3.3h-9.5v4.7h8.2v3.3h-8.2
	V19h9.6v3.4H155.7z M178.3,8.1c1.1,0,2.1,0.2,3,0.7c0.8,0.5,1.5,1.1,2,1.9c0.5,0.8,0.8,1.8,0.8,2.7h-3.3c-0.1-0.4-0.2-0.8-0.4-1.1
	c-0.2-0.4-0.5-0.7-0.8-0.9c-0.4-0.3-0.9-0.4-1.4-0.4c-0.9,0-1.7,0.4-2.2,1.1c-0.6,0.9-0.9,2.1-0.9,3.2c-0.1,1.1,0.2,2.3,0.8,3.2
	c0.5,0.8,1.4,1.2,2.3,1.2c0.5,0,0.9-0.1,1.3-0.4c0.3-0.2,0.6-0.6,0.8-0.9c0.2-0.3,0.3-0.7,0.4-1h3.2c-0.1,0.9-0.3,1.8-0.8,2.6
	c-0.5,0.8-1.2,1.4-2,1.9c-0.9,0.5-2,0.7-3,0.7c-1.2,0-2.4-0.3-3.5-0.9c-1-0.6-1.9-1.4-2.4-2.5c-0.6-1.2-0.9-2.5-0.9-3.9
	c0-1.3,0.3-2.6,0.8-3.8c0.5-1.1,1.3-2,2.4-2.6C175.8,8.4,177,8.1,178.3,8.1z M192.9,22.6c-1.3,0-2.5-0.3-3.6-0.9
	c-1-0.6-1.8-1.4-2.3-2.4c-0.6-1.2-0.9-2.5-0.8-3.8c0-1.3,0.3-2.7,0.8-3.9c0.5-1.1,1.3-2,2.4-2.6c2.2-1.2,4.9-1.2,7.2,0
	c1,0.6,1.8,1.5,2.3,2.5c0.6,1.2,0.9,2.6,0.8,3.9c0,1.3-0.2,2.6-0.8,3.7c-0.5,1.1-1.3,1.9-2.3,2.5C195.4,22.4,194.2,22.7,192.9,22.6z
	 M192.9,19.7c0.6,0,1.2-0.2,1.7-0.6c0.4-0.4,0.8-1,0.9-1.6c0.2-0.7,0.3-1.4,0.3-2.2c0-0.7-0.1-1.4-0.3-2.1c-0.2-0.6-0.5-1.2-0.9-1.6
	c-0.5-0.4-1.1-0.6-1.7-0.6c-0.6,0-1.2,0.2-1.7,0.6c-0.5,0.4-0.8,1-0.9,1.5c-0.2,0.7-0.3,1.4-0.3,2.2c0,0.7,0.1,1.4,0.3,2.1
	c0.2,0.6,0.5,1.2,0.9,1.6C191.6,19.5,192.2,19.7,192.9,19.7L192.9,19.7z M207.8,22.6c-1,0-1.9-0.2-2.8-0.5c-0.9-0.3-1.7-0.8-2.3-1.5
	c-0.7-0.8-1.1-1.7-1.2-2.7h3.4c0.1,0.4,0.3,0.9,0.6,1.2c0.3,0.3,0.7,0.5,1.1,0.6c0.4,0.1,0.7,0.2,1.1,0.2c0.6,0,1.3-0.1,1.9-0.4
	c0.4-0.2,0.7-0.6,0.7-1.1c0-0.4-0.1-0.7-0.4-0.9c-0.4-0.3-0.9-0.5-1.4-0.5l-2.5-0.5c-1.1-0.2-2.1-0.7-3-1.3
	c-0.8-0.7-1.2-1.6-1.2-2.6c0-0.8,0.2-1.6,0.7-2.3c0.5-0.7,1.2-1.3,2-1.6c1-0.4,2.1-0.6,3.2-0.6c1.5-0.1,2.9,0.3,4.1,1.1
	c1,0.7,1.6,1.9,1.6,3.2h-3.3c-0.1-0.5-0.4-1-0.8-1.3c-0.5-0.3-1.1-0.5-1.7-0.4c-0.6,0-1.2,0.1-1.7,0.4c-0.4,0.2-0.7,0.6-0.7,1.1
	c0,0.4,0.2,0.7,0.5,0.9c0.5,0.3,1.1,0.5,1.7,0.6l2.3,0.5c0.7,0.1,1.3,0.4,1.9,0.8c0.4,0.3,0.8,0.7,1.1,1.1c0.3,0.4,0.4,0.7,0.6,1.2
	c0.1,0.3,0.2,0.7,0.2,1.1c0,0.9-0.2,1.7-0.7,2.4c-0.5,0.7-1.3,1.2-2.1,1.5C209.8,22.5,208.8,22.7,207.8,22.6z M218.5,26.8
	c-0.9,0-1.8-0.2-2.6-0.5v-2.5l1.4,0.1c0.5,0,1,0,1.5-0.1c0.3-0.1,0.6-0.2,0.8-0.4c0.2-0.1,0.3-0.3,0.4-0.5c0.1-0.2,0.1-0.3,0.2-0.4
	l0.3-0.8L215,8.4h3.9l3.4,9.1l3.4-9.1h3.9l-5.7,14.1c-0.4,1-0.9,1.9-1.5,2.7c-0.5,0.6-1.1,1-1.8,1.3
	C219.9,26.7,219.2,26.9,218.5,26.8z M236.6,22.6c-1,0-1.9-0.2-2.8-0.5c-0.9-0.3-1.7-0.8-2.3-1.5c-0.7-0.8-1.1-1.7-1.2-2.7h3.4
	c0.1,0.4,0.3,0.9,0.6,1.2c0.3,0.3,0.7,0.5,1.1,0.6c1,0.3,2,0.2,3-0.2c0.4-0.2,0.7-0.6,0.7-1.1c0-0.4-0.1-0.7-0.4-0.9
	c-0.4-0.3-0.9-0.5-1.4-0.5l-2.5-0.5c-1.1-0.2-2.1-0.7-3-1.3c-0.8-0.7-1.2-1.6-1.2-2.7c0-0.8,0.2-1.6,0.7-2.2c0.5-0.7,1.2-1.3,2-1.6
	c1-0.4,2.1-0.6,3.2-0.6c1.5-0.1,2.9,0.3,4.1,1.1c1,0.7,1.6,1.9,1.6,3.2h-3.3c-0.1-0.5-0.4-1-0.8-1.3c-0.5-0.3-1.1-0.5-1.6-0.4
	c-0.6,0-1.2,0.1-1.7,0.4c-0.4,0.2-0.7,0.6-0.7,1.1c0,0.4,0.2,0.7,0.5,0.9c0.5,0.3,1.1,0.5,1.7,0.6l2.3,0.5c0.7,0.1,1.3,0.4,1.9,0.8
	c0.4,0.3,0.8,0.7,1.1,1.1c0.3,0.4,0.4,0.7,0.6,1.2c0.1,0.3,0.2,0.7,0.2,1.1c0,0.9-0.2,1.7-0.7,2.4c-0.5,0.7-1.3,1.2-2.1,1.5
	C238.8,22.5,237.7,22.7,236.6,22.6z M253.6,11.1h-3.1v7.5c0,0.3,0,0.5,0.1,0.8c0.1,0.2,0.2,0.3,0.4,0.3c0.2,0.1,0.5,0.1,0.7,0.1h1.9
	v2.4c-0.3,0.1-0.6,0.2-0.8,0.2c-0.5,0.1-1.1,0.1-1.6,0.1c-1,0-1.9-0.1-2.9-0.5c-0.6-0.3-1.1-0.7-1.4-1.3c-0.3-0.6-0.4-1.3-0.4-2
	v-7.6h-2.3V8.4h2.4l1-4.2h2.8v4.2h3.1L253.6,11.1z M259.3,16.3c0,0.6,0.1,1.3,0.3,1.9c0.2,0.5,0.6,0.9,1,1.2c0.5,0.3,1,0.4,1.6,0.4
	c0.6,0,1.2-0.1,1.8-0.4c0.5-0.3,0.9-0.8,1.1-1.4h3.6c-0.1,0.9-0.5,1.8-1.2,2.5c-0.6,0.7-1.4,1.3-2.3,1.6c-2.1,0.8-4.5,0.7-6.5-0.3
	c-1-0.6-1.9-1.4-2.5-2.5c-0.6-1.2-0.9-2.4-0.9-3.7c0-1.3,0.3-2.6,0.8-3.8c0.5-1.1,1.3-2,2.3-2.7c1.1-0.7,2.4-1,3.7-1
	c1.3,0,2.5,0.3,3.6,0.9c1,0.6,1.7,1.5,2.2,2.5c0.5,1.2,0.8,2.4,0.7,3.7v1.1L259.3,16.3z M259.3,13.9h5.7c0-0.5-0.1-1.1-0.3-1.5
	c-0.2-0.5-0.5-0.8-0.9-1.1c-0.5-0.3-1-0.4-1.6-0.4c-0.6,0-1.1,0.1-1.6,0.4c-0.4,0.3-0.8,0.7-1,1.1C259.5,12.9,259.3,13.4,259.3,13.9
	L259.3,13.9z M271.5,22.4v-14h3.9v2c0.5-0.6,1-1.2,1.7-1.6c0.8-0.5,1.8-0.7,2.7-0.7c0.5,0,1,0.1,1.4,0.3c0.5,0.2,1,0.4,1.4,0.7
	c0.4,0.3,0.8,0.8,1.1,1.2c0.5-0.7,1.1-1.2,1.8-1.6c0.7-0.4,1.6-0.7,2.5-0.6c0.5,0,1.1,0.1,1.6,0.3c1.2,0.4,2.1,1.2,2.6,2.4
	c0.3,0.8,0.4,1.6,0.4,2.4v9.2h-3.9v-8.8c0-0.5-0.1-0.9-0.3-1.3c-0.2-0.3-0.5-0.6-0.8-0.7c-0.3-0.1-0.7-0.2-1.1-0.2
	c-0.4,0-0.7,0.1-1.1,0.2c-0.4,0.1-0.7,0.4-0.9,0.7c-0.3,0.3-0.4,0.8-0.4,1.2v9H280v-9.1c0-0.4-0.1-0.8-0.3-1.1
	c-0.2-0.3-0.5-0.5-0.8-0.7c-0.3-0.1-0.7-0.2-1-0.2c-0.4,0-0.7,0.1-1.1,0.2c-0.4,0.1-0.7,0.4-0.9,0.7c-0.3,0.3-0.4,0.8-0.4,1.2v9
	H271.5z M0,0v28"/>
</svg>
