<?xml version="1.0" encoding="utf-8"?>
<!-- Generator: Adobe Illustrator 24.1.2, SVG Export Plug-In . SVG Version: 6.00 Build 0)  -->
<svg version="1.1" id="Layer_1" xmlns="http://www.w3.org/2000/svg" xmlns:xlink="http://www.w3.org/1999/xlink" x="0px" y="0px"
	 viewBox="0 0 35.5 28" enable-background="new 0 0 35.5 28" xml:space="preserve">
<path id="niaid-mobile-preferred" fill="#FFFFFF" d="M20.5,5.2v8.3h-1.4V9.7h-3.7v3.7h-1.5V5.2h1.4v3.3h3.7V5.2H20.5z M12.4,13.4H11
	V5.2h1.4L12.4,13.4z M9.5,13.4H8L4.3,7.3l0,0v6.1H2.9V5.2h1.5l3.8,6l0,0v-6h1.4L9.5,13.4z M25.6,9.3L20.5,0H1.7C0.8,0,0,0.8,0,1.7
	c0,0,0,0,0,0v15.1c0,0.9,0.8,1.7,1.7,1.7h18.8L25.6,9.3z M21.8,18.5l5.1-9.2L21.8,0h1.3c0.8,0,1.5,0.5,1.9,1.1l4.5,8.1l-4.5,8.1
	c-0.4,0.6-1.1,1.1-1.9,1.1H21.8z M0.9,21.2h1.2l3.1,5l0,0v-5h1.1V28H5.2l-3.1-5l0,0v5H0.9V21.2z M7.8,21.2H9V28H7.8V21.2z
	 M12.3,21.2h1.3l2.6,6.8h-1.2l-0.6-1.8h-2.7L10.9,28H9.7L12.3,21.2z M11.9,25.3H14l-1.1-2.9l0,0L11.9,25.3z M16.8,21.2H18V28h-1.2
	V21.2z M19.5,21.2h2.8c2.1,0,3,1.5,3,3.4c0,1.9-0.9,3.4-3,3.4h-2.8L19.5,21.2z M20.6,27h1.2c1.9,0,2.3-1.1,2.3-2.4s-0.4-2.4-2.3-2.4
	h-1.2V27z M35.7,0h-0.9v28h0.9V0z"/>
</svg>
