<?xml version="1.0" encoding="utf-8"?>
<!-- Generator: Adobe Illustrator 24.1.2, SVG Export Plug-In . SVG Version: 6.00 Build 0)  -->
<svg version="1.1" id="Layer_1" xmlns="http://www.w3.org/2000/svg" xmlns:xlink="http://www.w3.org/1999/xlink" x="0px" y="0px"
	 viewBox="0 0 137.9 54.9" style="enable-background:new 0 0 137.9 54.9;" xml:space="preserve">

<path id="niaid-nde-mobile-vertical" fill="#FFFFFF" d="M83,36H0v-1.4h83V36z M27.4,7.3V12H22V7.3h-2.1v11.8H22v-5.3h5.4v5.4h2.1V7.3H27.4z M17.9,7.3h-2.1v11.9h2.1
	V7.3z M13.7,7.3h-2V16l0,0L6.3,7.3H4.2v11.9h2v-8.7l0,0l5.4,8.7h2.2L13.7,7.3z M29.5,26.5h-27l0,0c-1.3,0-2.4-1.1-2.4-2.4V2.4
	C0.1,1,1.2,0,2.5,0h27l7.3,13.3L29.5,26.5z M33.1,26.5c1.1,0,2.2-0.6,2.8-1.6l6.6-11.6L36,1.6c-0.6-1-1.6-1.6-2.8-1.6h-1.9l7.3,13.3
	l-7.4,13.3L33.1,26.5z M47.7,17.4h1.7v-7.2l0,0l4.4,7.1h1.8V7.6H54v7.2l0,0l-4.4-7.2h-1.8L47.7,17.4L47.7,17.4z M57.6,17.3h1.7V7.6
	h-1.7V17.3z M60.3,17.3h1.8l0.9-2.6h3.9l0.9,2.6h1.8l-3.7-9.7H64L60.3,17.3z M65,9.4L65,9.4l1.4,4.2h-3L65,9.4z M70.6,17.3h1.7V7.6
	h-1.7V17.3z M74.3,17.4h4c3,0,4.3-2.2,4.3-4.9s-1.3-4.9-4.3-4.9h-4V17.4z M76.1,9h1.6c2.7,0,3.3,1.5,3.3,3.5S80.4,16,77.7,16H76
	L76.1,9z M0,35.9h86.4 M6.9,43.4h1.9v9.4H7l-4.5-6.5v6.5H0.7v-9.4h1.9l4.3,6.2V43.4z M10.8,43.4h1.9v9.4h-1.9V43.4z M14.1,52.8
	l3.4-9.4h2l3.4,9.4H21l-0.8-2.2h-3.3L16,52.8H14.1z M17.3,48.9h2.5l-1.2-3.7L17.3,48.9z M24.3,43.4h1.9v9.4h-1.9V43.4z M28.2,43.4
	H31c1,0,1.9,0.2,2.8,0.6c0.7,0.3,1.2,0.9,1.6,1.6c0.4,0.8,0.5,1.6,0.5,2.4c0,0.9-0.2,1.7-0.5,2.5c-0.3,0.7-0.9,1.3-1.6,1.6
	c-0.9,0.4-1.8,0.6-2.8,0.6h-2.7L28.2,43.4L28.2,43.4z M30.1,44.9v6.3H31c0.5,0,1-0.1,1.4-0.3c0.5-0.2,0.8-0.6,1.1-1
	c0.3-0.6,0.4-1.2,0.4-1.9c0-0.6-0.1-1.2-0.3-1.8c-0.2-0.4-0.6-0.8-1-1c-0.5-0.2-1-0.3-1.6-0.3H30.1z M40.3,43.4h2.9
	c1,0,1.9,0.2,2.8,0.6c0.7,0.4,1.2,0.9,1.5,1.6c0.4,0.8,0.5,1.6,0.5,2.4c0,0.9-0.2,1.7-0.5,2.5c-0.4,0.7-0.9,1.3-1.6,1.6
	c-0.9,0.4-1.8,0.6-2.8,0.6h-2.8C40.3,52.7,40.3,43.4,40.3,43.4z M42.2,44.9v6.3h0.9c0.5,0,1-0.1,1.4-0.3c0.5-0.2,0.8-0.6,1.1-1
	c0.3-0.6,0.4-1.2,0.4-1.9c0-0.6-0.1-1.2-0.3-1.8c-0.2-0.4-0.6-0.8-1-1c-0.5-0.2-1-0.3-1.5-0.3H42.2z M51.4,52.9
	c-0.4,0-0.8-0.1-1.2-0.2c-0.7-0.3-1.1-1-1.1-1.8c0-0.7,0.3-1.3,0.8-1.7c0.8-0.4,1.7-0.6,2.6-0.6h0.8v-0.4c0-0.3,0-0.5-0.2-0.7
	s-0.5-0.3-0.8-0.2c-0.3,0-0.5,0.1-0.8,0.2s-0.4,0.4-0.5,0.6h-1.6c0-0.4,0.2-0.9,0.4-1.2c0.3-0.3,0.6-0.6,1-0.7
	c0.5-0.2,1-0.2,1.4-0.2c0.6,0,1.1,0.1,1.7,0.3c0.4,0.1,0.7,0.4,0.9,0.7s0.3,0.7,0.3,1.1v4.7h-1.5l-0.1-1.2c-0.2,0.4-0.5,0.8-0.9,1
	C52.2,52.8,51.8,52.9,51.4,52.9z M52,51.6c0.2,0,0.3,0,0.5-0.1c0.2-0.1,0.3-0.2,0.4-0.3c0.1-0.1,0.2-0.2,0.3-0.4
	c0.1-0.1,0.1-0.3,0.1-0.4v-1h-0.7c-0.3,0-0.6,0-0.9,0.1c-0.2,0.1-0.5,0.2-0.7,0.3c-0.2,0.2-0.3,0.4-0.2,0.6c0,0.3,0.1,0.6,0.3,0.7
	C51.4,51.5,51.7,51.6,52,51.6z M60.6,47.4h-1.4V51c0,0.1,0,0.2,0,0.4c0,0.1,0.1,0.1,0.2,0.2c0.1,0,0.2,0,0.3,0h0.9v1.2
	c-0.1,0.1-0.3,0.1-0.4,0.1c-0.3,0-0.5,0-0.8,0c-0.5,0-0.9-0.1-1.4-0.2c-0.3-0.1-0.5-0.3-0.7-0.6c-0.1-0.3-0.2-0.6-0.2-1v-3.6H56
	v-1.4h1.2l0.5-2h1.4v2h1.4L60.6,47.4z M64,52.9c-0.4,0-0.8-0.1-1.2-0.2c-0.3-0.1-0.6-0.4-0.8-0.7c-0.2-0.3-0.3-0.7-0.3-1.1
	c0-0.7,0.3-1.3,0.8-1.7c0.8-0.4,1.7-0.6,2.6-0.6h0.8v-0.4c0-0.3-0.1-0.5-0.3-0.7c-0.2-0.2-0.6-0.3-0.9-0.2c-0.3,0-0.5,0.1-0.8,0.2
	c-0.3,0.1-0.4,0.4-0.5,0.6h-1.6c0-0.4,0.1-0.9,0.4-1.2c0.3-0.3,0.6-0.6,1-0.7c0.5-0.1,1-0.2,1.4-0.2c0.6,0,1.1,0.1,1.7,0.3
	c0.4,0.1,0.7,0.4,0.9,0.7c0.2,0.3,0.3,0.7,0.3,1.1v4.7h-1.4l-0.2-1.2c-0.2,0.4-0.5,0.8-0.9,1C64.8,52.8,64.4,52.9,64,52.9z
	 M64.6,51.6c0.2,0,0.3,0,0.5-0.1c0.2-0.1,0.3-0.2,0.4-0.3c0.1-0.1,0.2-0.2,0.3-0.4c0.1-0.1,0.1-0.3,0.1-0.4v-1h-0.7
	c-0.3,0-0.6,0-0.9,0.1c-0.2,0.1-0.5,0.2-0.7,0.3c-0.4,0.4-0.4,1,0,1.4l0,0C64,51.6,64.3,51.7,64.6,51.6z M72.4,52.8v-9.4h6.4V45
	h-4.5v2.3h3.9v1.6h-3.9v2.3h4.6v1.6H72.4z M83.2,45.9c0.5,0,1,0.1,1.4,0.3s0.7,0.5,1,0.9c0.2,0.4,0.4,0.8,0.4,1.3h-1.6
	c0-0.2-0.1-0.4-0.2-0.5c-0.2-0.4-0.6-0.6-1.1-0.6c-0.4,0-0.8,0.2-1.1,0.5c-0.3,0.5-0.5,1-0.4,1.5c0,0.5,0.1,1.1,0.4,1.6
	c0.3,0.4,0.7,0.6,1.1,0.6c0.2,0,0.4-0.1,0.6-0.2c0.2-0.1,0.3-0.3,0.4-0.5c0.1-0.2,0.2-0.3,0.2-0.5H86c0,0.4-0.2,0.9-0.4,1.3
	c-0.2,0.4-0.6,0.7-1,0.9c-0.4,0.2-0.9,0.3-1.4,0.3c-0.6,0-1.2-0.1-1.7-0.4s-0.9-0.7-1.2-1.2c-0.3-0.6-0.4-1.2-0.4-1.8
	c0-0.6,0.1-1.3,0.4-1.8s0.6-0.9,1.1-1.2C82,46.1,82.6,45.9,83.2,45.9z M90.3,52.9c-0.6,0-1.2-0.1-1.7-0.4s-0.9-0.7-1.1-1.2
	c-0.3-0.6-0.4-1.2-0.4-1.8c0-0.6,0.1-1.3,0.4-1.9c0.2-0.5,0.6-0.9,1.1-1.2c1.1-0.6,2.4-0.6,3.4,0c0.5,0.3,0.9,0.7,1.1,1.2
	c0.3,0.6,0.4,1.2,0.4,1.9c0,0.6-0.1,1.2-0.4,1.8c-0.2,0.5-0.6,0.9-1.1,1.2C91.5,52.8,90.9,52.9,90.3,52.9z M90.3,51.4
	c0.3,0,0.6-0.1,0.8-0.3c0.2-0.2,0.4-0.5,0.4-0.8c0.1-0.3,0.1-0.7,0.1-1s0-0.7-0.1-1s-0.2-0.5-0.4-0.8c-0.5-0.4-1.2-0.4-1.6,0
	c-0.2,0.2-0.4,0.5-0.4,0.7c-0.1,0.3-0.1,0.7-0.1,1c0,0.3,0,0.7,0.1,1c0.1,0.3,0.2,0.6,0.4,0.8C89.6,51.4,90,51.5,90.3,51.4
	L90.3,51.4z M97.4,52.9c-0.5,0-0.9-0.1-1.4-0.2c-0.4-0.2-0.8-0.4-1.1-0.7c-0.3-0.4-0.5-0.8-0.6-1.3H96c0,0.2,0.1,0.4,0.3,0.6
	c0.1,0.1,0.3,0.2,0.5,0.3c0.2,0.1,0.4,0.1,0.5,0.1c0.3,0,0.6,0,0.9-0.2c0.2-0.1,0.3-0.3,0.3-0.5s-0.1-0.3-0.2-0.4
	c-0.2-0.1-0.4-0.2-0.6-0.2l-1.2-0.2c-0.5-0.1-1-0.3-1.4-0.6c-0.4-0.3-0.6-0.8-0.5-1.3c0-0.4,0.1-0.8,0.3-1.1c0.2-0.3,0.6-0.6,1-0.7
	c0.5-0.2,1-0.3,1.5-0.3c0.7,0,1.5,0.1,2.1,0.5c0.5,0.4,0.8,0.9,0.7,1.5h-1.6c-0.1-0.2-0.2-0.4-0.4-0.6c-0.2-0.1-0.5-0.2-0.8-0.2
	s-0.6,0.1-0.9,0.2c-0.2,0.1-0.3,0.3-0.3,0.5s0.1,0.3,0.3,0.4c0.3,0.1,0.5,0.2,0.8,0.3l1.1,0.2c0.3,0.1,0.6,0.2,0.9,0.4
	c0.2,0.1,0.4,0.3,0.5,0.5s0.2,0.4,0.3,0.6c0.1,0.2,0.1,0.3,0.1,0.5c0,0.4-0.1,0.8-0.4,1.1s-0.6,0.6-1,0.7
	C98.3,52.8,97.9,52.9,97.4,52.9z M102.5,54.9c-0.4,0-0.9-0.1-1.3-0.2v-1.2h0.7c0.2,0,0.5,0,0.7,0c0.1,0,0.3-0.1,0.4-0.2
	c0.1-0.1,0.1-0.1,0.2-0.2c0-0.1,0.1-0.1,0.1-0.2l0.1-0.4l-2.6-6.5h1.9l1.6,4.3l1.6-4.3h1.9l-2.6,6.8c-0.2,0.5-0.4,0.9-0.7,1.3
	c-0.2,0.3-0.5,0.5-0.8,0.6C103.3,54.8,102.9,54.9,102.5,54.9z M111.2,52.9c-0.5,0-0.9-0.1-1.4-0.2c-0.4-0.2-0.8-0.4-1.1-0.7
	c-0.3-0.4-0.5-0.8-0.6-1.3h1.6c0,0.2,0.2,0.4,0.3,0.6c0.1,0.1,0.3,0.2,0.5,0.3c0.2,0.1,0.4,0.1,0.5,0.1c0.3,0,0.6,0,0.9-0.2
	c0.2-0.1,0.3-0.3,0.3-0.5s-0.1-0.3-0.2-0.4c-0.2-0.1-0.4-0.2-0.6-0.2l-1.2-0.2c-0.5-0.1-1-0.3-1.4-0.6c-0.4-0.3-0.6-0.8-0.5-1.3
	c0-0.4,0.1-0.8,0.3-1.1c0.2-0.3,0.6-0.6,1-0.7c0.5-0.2,1-0.3,1.5-0.3c0.7,0,1.4,0.2,2,0.5c0.5,0.4,0.8,0.9,0.7,1.5h-1.6
	c0-0.2-0.2-0.4-0.4-0.6c-0.2-0.1-0.5-0.2-0.8-0.2s-0.6,0-0.8,0.2c-0.2,0.1-0.3,0.3-0.3,0.5s0.1,0.3,0.3,0.4c0.3,0.1,0.5,0.2,0.8,0.3
	l1.1,0.2c0.3,0.1,0.6,0.2,0.9,0.4c0.2,0.1,0.4,0.3,0.5,0.5c0.2,0.3,0.3,0.7,0.3,1.1c0,0.4-0.1,0.8-0.3,1.1c-0.3,0.3-0.6,0.6-1,0.7
	C112.2,52.8,111.7,52.9,111.2,52.9z M119.4,47.4H118V51c0,0.1,0,0.2,0,0.4c0,0.1,0.1,0.1,0.2,0.2c0.1,0,0.2,0,0.3,0h0.9v1.2
	c-0.1,0.1-0.3,0.1-0.4,0.1c-0.3,0-0.5,0-0.8,0c-0.5,0-0.9-0.1-1.4-0.2c-0.3-0.1-0.5-0.3-0.7-0.6c-0.1-0.3-0.2-0.6-0.2-1v-3.6h-1.1
	v-1.4h1.2l0.5-2h1.4v2h1.4L119.4,47.4z M122.1,49.8c0,0.3,0,0.6,0.2,0.9c0.1,0.2,0.3,0.4,0.5,0.6c0.2,0.1,0.5,0.2,0.8,0.2
	s0.6-0.1,0.8-0.2c0.3-0.1,0.4-0.4,0.5-0.7h1.7c-0.1,0.5-0.3,0.9-0.6,1.2c-0.3,0.3-0.7,0.6-1.1,0.8c-0.4,0.2-0.9,0.3-1.4,0.3
	c-0.6,0-1.2-0.1-1.7-0.4s-0.9-0.7-1.2-1.2c-0.3-0.6-0.4-1.2-0.4-1.8c0-0.6,0.1-1.2,0.4-1.8c0.2-0.5,0.6-1,1.1-1.3s1.1-0.5,1.8-0.5
	c0.6,0,1.2,0.1,1.7,0.4s0.8,0.7,1.1,1.2c0.2,0.6,0.4,1.2,0.3,1.8v0.5C126.6,49.8,122.1,49.8,122.1,49.8z M122.1,48.7h2.7
	c0-0.3,0-0.5-0.1-0.7s-0.3-0.4-0.5-0.5c-0.2-0.1-0.5-0.2-0.8-0.2s-0.5,0.1-0.7,0.2c-0.2,0.1-0.4,0.3-0.5,0.5
	C122.2,48.2,122.1,48.5,122.1,48.7L122.1,48.7z M127.9,52.8V46h1.9v1c0.2-0.3,0.5-0.6,0.8-0.8c0.4-0.2,0.8-0.3,1.3-0.3
	c0.2,0,0.5,0,0.7,0.1c0.2,0.1,0.5,0.2,0.7,0.4c0.2,0.2,0.4,0.4,0.5,0.6c0.2-0.3,0.5-0.6,0.8-0.8c0.4-0.2,0.8-0.3,1.2-0.3
	c0.3,0,0.5,0,0.7,0.1c0.3,0.1,0.5,0.2,0.7,0.4c0.2,0.2,0.4,0.5,0.5,0.7c0.1,0.4,0.2,0.8,0.2,1.2v4.4H136v-4.1c0-0.2,0-0.5-0.2-0.6
	c-0.1-0.2-0.2-0.3-0.4-0.3c-0.2-0.1-0.3-0.1-0.5-0.1s-0.4,0-0.5,0.1c-0.2,0.1-0.3,0.2-0.4,0.3c-0.1,0.2-0.2,0.4-0.2,0.6v4.3H132
	v-4.3c0-0.2-0.1-0.4-0.2-0.5c-0.1-0.1-0.2-0.2-0.4-0.3c-0.2-0.1-0.3-0.2-0.5-0.2s-0.4,0-0.5,0.1c-0.2,0.1-0.3,0.2-0.4,0.3
	c-0.1,0.2-0.2,0.4-0.2,0.6v4.3L127.9,52.8z"/>
</svg>
