<?xml version="1.0" encoding="utf-8"?>
<!-- Generator: Adobe Illustrator 24.1.2, SVG Export Plug-In . SVG Version: 6.00 Build 0)  -->
<svg version="1.1" id="Layer_1" xmlns="http://www.w3.org/2000/svg" xmlns:xlink="http://www.w3.org/1999/xlink" x="0px" y="0px"
	 viewBox="0 0 595 40" style="enable-background:new 0 0 595 40;" xml:space="preserve">

<path id="niaid-nde-desktop" fill="#FFFFFF" d="M209.1,5.8h5.6v27.3h-5l-13-18.8v18.8h-5.6V5.8h5.5l12.5,18.1V5.8z M220.7,5.8h5.5v27.3h-5.5V5.8z M230.3,33.1
	l9.8-27.3h5.8l9.8,27.3h-5.5l-2.2-6.3h-9.8l-2.2,6.3H230.3z M239.4,22h7.3l-3.6-10.9L239.4,22z M259.8,5.8h5.5v27.3h-5.5V5.8z
	 M271.5,5.8h6h2.2c2.8,0,5.6,0.6,8.1,1.8c2,1,3.6,2.7,4.6,4.7c1,2.2,1.5,4.6,1.5,7.1c0.1,2.5-0.5,5-1.5,7.3c-1,2.1-2.7,3.7-4.7,4.8
	c-2.5,1.2-5.3,1.8-8.1,1.7h-8V5.8H271.5z M277,10.2v18.4h2.5c1.5,0,2.9-0.3,4.3-0.9c1.3-0.6,2.4-1.7,3.1-3c0.8-1.7,1.2-3.6,1.1-5.5
	c0.1-1.8-0.3-3.6-1-5.2c-0.6-1.3-1.6-2.3-2.9-2.9c-1.4-0.6-2.9-1-4.4-0.9L277,10.2z M308.4,5.8h6h2.2c2.8,0,5.6,0.6,8.1,1.8
	c2,1,3.6,2.6,4.6,4.6c1,2.2,1.5,4.6,1.5,7.1c0.1,2.5-0.5,5-1.6,7.3c-1,2.1-2.7,3.7-4.7,4.8c-2.5,1.2-5.3,1.8-8.1,1.7h-8V5.8z
	 M314,10.2v18.4h2.5c1.5,0,2.9-0.3,4.3-0.9c1.3-0.6,2.4-1.7,3.1-3c0.8-1.7,1.2-3.6,1.1-5.5c0.1-1.8-0.3-3.6-1-5.2
	c-0.6-1.3-1.6-2.3-2.9-2.9c-1.4-0.6-2.9-1-4.4-0.9L314,10.2z M340.6,33.5c-1.2,0-2.3-0.2-3.3-0.7c-1-0.4-1.8-1.1-2.4-2
	c-0.6-1-0.9-2.1-0.9-3.2c-0.1-1.9,0.8-3.8,2.4-4.9c1.6-1.1,4.1-1.7,7.6-1.7h2.4v-1.2c0-0.8-0.2-1.5-0.8-2.1
	c-0.7-0.5-1.6-0.8-2.4-0.7c-0.8,0-1.6,0.2-2.3,0.6c-0.7,0.4-1.3,1.1-1.5,1.9h-4.6c0-1.3,0.5-2.5,1.2-3.5c0.8-1,1.8-1.7,3-2
	c1.4-0.5,2.9-0.7,4.4-0.7c1.6-0.1,3.3,0.2,4.8,0.7c1.1,0.4,2,1.2,2.6,2.1c0.6,1,0.9,2.2,0.8,3.3v13.7H347l-0.5-3.3
	c-0.5,1.2-1.4,2.2-2.5,2.9C343,33.2,341.8,33.5,340.6,33.5z M342.4,29.9c0.5,0,1-0.1,1.5-0.3c0.5-0.2,0.9-0.4,1.3-0.7
	c0.4-0.3,0.7-0.6,0.9-1c0.2-0.4,0.3-0.8,0.3-1.2v-2.9h-2c-0.9,0-1.7,0.1-2.6,0.3c-0.7,0.2-1.4,0.5-1.9,1s-0.8,1.2-0.7,1.9
	c0,0.9,0.3,1.7,1,2.2C340.8,29.6,341.6,29.9,342.4,29.9z M367.6,17.4h-4.3v10.4c0,0.4,0,0.8,0.2,1.1c0.1,0.2,0.3,0.4,0.6,0.5
	s0.7,0.1,1,0.1h2.6v3.4c-0.4,0.1-0.8,0.3-1.2,0.3c-0.7,0.1-1.5,0.2-2.2,0.2c-1.4,0.1-2.7-0.2-4-0.7c-0.9-0.4-1.6-1-2-1.8
	c-0.4-0.9-0.6-1.8-0.6-2.8V17.4h-3.1v-3.8h3.3l1.4-5.9h3.9v5.9h4.3v3.8H367.6z M377.3,33.5c-1.2,0-2.3-0.2-3.3-0.7
	c-1-0.4-1.8-1.1-2.4-2c-0.6-1-0.9-2.1-0.9-3.2c-0.1-1.9,0.8-3.8,2.4-4.9s4.1-1.7,7.6-1.7h2.4v-1.2c0-0.8-0.2-1.5-0.8-2.1
	c-0.7-0.5-1.6-0.8-2.4-0.7c-0.8,0-1.6,0.2-2.3,0.6s-1.3,1.1-1.5,1.9h-4.6c0-1.3,0.5-2.5,1.2-3.5c0.8-0.9,1.8-1.7,3-2
	c1.4-0.5,2.9-0.7,4.4-0.7c1.6-0.1,3.3,0.2,4.8,0.7c1.1,0.4,2,1.2,2.6,2.1c0.6,1,0.9,2.2,0.8,3.3v13.7h-4.6l-0.5-3.3
	c-0.5,1.2-1.4,2.2-2.5,2.9C379.7,33.2,378.5,33.5,377.3,33.5z M379.2,29.9c0.5,0,1-0.1,1.5-0.3c0.5-0.2,0.9-0.4,1.3-0.7
	c0.4-0.3,0.7-0.6,0.9-1s0.3-0.8,0.3-1.2v-2.9h-2c-0.9,0-1.7,0.1-2.6,0.3c-0.7,0.2-1.4,0.5-1.9,1s-0.8,1.2-0.7,1.9
	c-0.1,0.8,0.3,1.7,0.9,2.2C377.5,29.6,378.4,29.9,379.2,29.9z M403.8,33.1V5.8h18.7v4.6h-13.2v6.7h11.5v4.5h-11.5v6.8h13.5v4.7
	H403.8z M435.3,13.2c1.5,0,2.9,0.3,4.2,1c1.2,0.6,2.1,1.6,2.8,2.7c0.7,1.2,1.1,2.5,1.2,3.8h-4.6c-0.1-0.5-0.3-1.1-0.5-1.5
	c-0.3-0.5-0.7-1-1.2-1.3c-0.6-0.4-1.2-0.5-1.9-0.5c-1.2,0-2.4,0.5-3.1,1.5c-0.9,1.3-1.3,2.9-1.2,4.5c-0.1,1.6,0.3,3.2,1.2,4.5
	c0.7,1.1,2,1.7,3.3,1.7c0.7,0,1.3-0.2,1.9-0.5c0.5-0.4,0.8-0.8,1.1-1.3c0.2-0.4,0.4-0.9,0.5-1.4h4.4c-0.1,1.3-0.4,2.5-1.1,3.6
	s-1.7,1.9-2.8,2.5c-1.3,0.7-2.7,1-4.2,1c-1.7,0-3.4-0.4-4.9-1.2c-1.4-0.8-2.6-2-3.3-3.5c-0.8-1.7-1.3-3.5-1.2-5.4
	c-0.1-1.8,0.3-3.7,1.1-5.3c0.7-1.5,1.9-2.7,3.3-3.6C431.8,13.6,433.6,13.1,435.3,13.2z M455.7,33.5c-1.7,0-3.5-0.4-5-1.2
	c-1.4-0.8-2.6-2-3.3-3.5c-0.8-1.7-1.2-3.5-1.1-5.3c-0.1-1.9,0.3-3.7,1.1-5.4c0.7-1.5,1.9-2.7,3.3-3.6c3.1-1.7,6.9-1.7,10,0
	c1.4,0.8,2.6,2.1,3.3,3.6c0.8,1.7,1.2,3.6,1.1,5.4c0,1.8-0.3,3.6-1.1,5.2c-0.7,1.5-1.8,2.7-3.2,3.5
	C459.3,33.1,457.5,33.5,455.7,33.5z M455.7,29.4c0.9,0,1.7-0.3,2.3-0.8c0.6-0.6,1.1-1.4,1.3-2.2c0.3-1,0.4-2,0.4-3s-0.1-2-0.4-2.9
	c-0.2-0.8-0.6-1.6-1.3-2.2c-1.4-1.1-3.4-1.1-4.8,0c-0.6,0.6-1.1,1.4-1.3,2.2c-0.3,1-0.4,2-0.4,3s0.1,2,0.4,2.9
	c0.2,0.9,0.7,1.7,1.3,2.3C454,29.2,454.9,29.5,455.7,29.4L455.7,29.4z M476.5,33.5c-1.3,0-2.7-0.2-3.9-0.7c-1.2-0.4-2.3-1.2-3.2-2.1
	c-0.9-1.1-1.5-2.4-1.7-3.8h4.8c0.1,0.6,0.4,1.2,0.9,1.6c0.4,0.4,0.9,0.7,1.5,0.9c0.5,0.2,1.1,0.3,1.6,0.3c0.9,0,1.8-0.1,2.6-0.5
	c0.6-0.3,1-0.9,1-1.5c0-0.5-0.2-1-0.6-1.3c-0.6-0.4-1.2-0.6-1.9-0.7l-3.4-0.7c-1.5-0.3-2.9-0.9-4.2-1.9c-1.1-0.9-1.7-2.3-1.6-3.7
	c0-1.1,0.3-2.2,0.9-3.1c0.7-1,1.7-1.8,2.8-2.2c1.4-0.6,2.9-0.9,4.4-0.8c2-0.1,4.1,0.4,5.8,1.6c1.4,1,2.3,2.7,2.2,4.4h-4.6
	c-0.1-0.7-0.5-1.3-1.1-1.7c-0.7-0.4-1.5-0.6-2.3-0.6s-1.6,0.1-2.4,0.5c-0.6,0.3-1,0.9-0.9,1.5c0,0.5,0.3,1,0.8,1.2
	c0.7,0.4,1.5,0.6,2.3,0.8l3.2,0.7c0.9,0.2,1.9,0.6,2.7,1.1c0.6,0.4,1.2,0.9,1.6,1.5c0.4,0.5,0.6,1,0.8,1.6c0.1,0.5,0.2,1,0.2,1.5
	c0,1.2-0.3,2.4-1,3.3c-0.8,1-1.8,1.7-2.9,2.1C479.4,33.3,478,33.5,476.5,33.5z M491.5,39.3c-1.2,0-2.5-0.2-3.6-0.7v-3.5l1.9,0.1
	c0.7,0.1,1.4,0,2-0.1c0.4-0.1,0.8-0.3,1.2-0.5c0.2-0.2,0.4-0.4,0.6-0.7c0.1-0.2,0.2-0.4,0.2-0.6l0.4-1.1l-7.6-18.7h5.5l4.7,12.7
	l4.7-12.7h5.4L499,33.1c-0.5,1.4-1.2,2.7-2.2,3.8c-0.6,0.8-1.5,1.4-2.4,1.8C493.5,39.2,492.5,39.3,491.5,39.3z M516.9,33.5
	c-1.3,0-2.7-0.2-3.9-0.7c-1.2-0.4-2.3-1.2-3.2-2.1c-0.9-1.1-1.5-2.4-1.7-3.8h4.8c0.1,0.6,0.4,1.2,0.9,1.6c0.4,0.4,0.9,0.7,1.5,0.9
	c0.5,0.2,1.1,0.3,1.6,0.3c0.9,0,1.8-0.1,2.6-0.5c0.6-0.3,1-0.9,1-1.5c0-0.5-0.2-1-0.6-1.3c-0.6-0.4-1.2-0.6-1.9-0.7l-3.4-0.7
	c-1.5-0.3-2.9-0.9-4.1-1.8c-1.1-0.9-1.7-2.3-1.6-3.7c0-1.1,0.3-2.2,0.9-3.1c0.7-1,1.7-1.8,2.8-2.2c1.4-0.6,3-0.9,4.5-0.8
	c2-0.1,4.1,0.4,5.8,1.6c1.4,1,2.3,2.7,2.2,4.4h-4.6c-0.1-0.7-0.5-1.3-1.1-1.7c-0.7-0.4-1.5-0.6-2.3-0.6c-0.8,0-1.6,0.1-2.4,0.5
	c-0.6,0.3-0.9,0.9-0.9,1.5c0,0.5,0.3,1,0.8,1.2c0.7,0.4,1.5,0.6,2.3,0.8l3.2,0.7c1,0.2,1.9,0.6,2.7,1.1c0.6,0.4,1.2,0.9,1.6,1.5
	c0.4,0.5,0.6,1,0.8,1.6c0.1,0.5,0.2,1,0.2,1.5c0,1.2-0.3,2.4-1,3.3c-0.7,1-1.8,1.7-2.9,2.1C519.8,33.3,518.4,33.5,516.9,33.5z
	 M540.7,17.4h-4.3v10.4c0,0.4,0,0.8,0.2,1.1c0.1,0.2,0.3,0.4,0.6,0.5c0.3,0.1,0.7,0.1,1,0.1h2.6v3.4c-0.4,0.1-0.8,0.3-1.2,0.3
	c-0.7,0.1-1.5,0.2-2.2,0.2c-1.4,0.1-2.7-0.2-4-0.7c-0.9-0.4-1.6-1-2-1.8c-0.4-0.9-0.6-1.8-0.6-2.8V17.4h-3.2v-3.8h3.3l1.4-5.9h3.9
	v5.9h4.3L540.7,17.4z M548.6,24.6c0,0.9,0.1,1.8,0.5,2.6c0.3,0.7,0.8,1.3,1.4,1.7c0.7,0.4,1.4,0.6,2.2,0.6c0.9,0,1.7-0.2,2.5-0.6
	s1.3-1.1,1.5-2h5c-0.2,1.3-0.8,2.6-1.7,3.5c-0.9,1-2,1.7-3.2,2.2s-2.6,0.8-3.9,0.8c-1.8,0-3.5-0.4-5.1-1.2c-1.4-0.8-2.6-2-3.4-3.4
	c-0.8-1.6-1.3-3.4-1.2-5.2c0-1.8,0.4-3.6,1.1-5.3c0.7-1.5,1.8-2.8,3.2-3.7c3.1-1.8,7-1.8,10.1-0.1c1.4,0.8,2.4,2,3.1,3.5
	c0.7,1.6,1.1,3.4,1,5.2v1.5L548.6,24.6z M548.6,21.3h8c0-0.7-0.1-1.5-0.4-2.2c-0.3-0.6-0.8-1.1-1.3-1.5c-0.7-0.4-1.4-0.6-2.2-0.6
	s-1.6,0.2-2.2,0.6s-1.1,1-1.4,1.6C548.7,19.9,548.6,20.6,548.6,21.3L548.6,21.3z M565.6,33.1V13.6h5.4v2.8c0.6-0.9,1.4-1.7,2.4-2.2
	c1.2-0.7,2.5-1,3.8-0.9c0.7,0,1.4,0.1,2,0.4c0.7,0.2,1.4,0.6,2,1c0.6,0.5,1.1,1.1,1.5,1.7c0.7-0.9,1.5-1.7,2.5-2.2
	c1-0.6,2.2-0.9,3.4-0.9c0.8,0,1.5,0.1,2.2,0.4c0.8,0.2,1.5,0.6,2.1,1.1c0.7,0.6,1.2,1.4,1.5,2.2c0.4,1.1,0.6,2.2,0.6,3.3v12.9h-5.6
	V20.9c0-0.7-0.1-1.3-0.5-1.9c-0.3-0.4-0.6-0.8-1.1-1s-1-0.3-1.5-0.3s-1,0.2-1.4,0.4c-0.5,0.2-0.9,0.5-1.3,0.9
	c-0.4,0.5-0.6,1.1-0.5,1.7v12.5h-5.6V20.4c0-0.5-0.2-1.1-0.5-1.5s-0.7-0.7-1.2-0.9c-0.5-0.2-0.9-0.3-1.4-0.3s-1,0.1-1.5,0.3
	c-0.5,0.2-0.9,0.5-1.3,1c-0.4,0.5-0.5,1-0.5,1.6v12.5H565.6z M177.5,0v40 M177.5,39.8h-1.1V0h1.1V39.8z M41.1,11.3v7.1H33v-7.1h-3.1
	V29H33v-8h8.1v8h3.1V11.3H41.1z M26.8,11.3h-3.1V29h3.1V11.3z M20.6,11.3h-3v13.1l0,0L9.5,11.3H6.2V29h3V16h0.1l8,13h3.3L20.6,11.3z
	 M44.2,40H3.7l0,0c-2,0-3.7-1.6-3.7-3.7V3.9l0,0c0-2,1.6-3.7,3.7-3.7h40.6l11,19.9L44.2,40z M49.7,40c1.7-0.1,3.2-1,4.1-2.4
	l9.7-17.5L53.8,2.6c-0.9-1.4-2.4-2.3-4.1-2.4H47l11,19.9L46.9,40H49.7z M159.7,36.6c0.1,0.7,0.6,1,1.3,1c0.4,0,1.3-0.1,1.3-0.8
	s-1-0.8-1.9-1s-1.8-0.4-1.8-1.7c0-1.2,1.2-1.6,2.4-1.6s2.2,0.5,2.4,1.8h-1.3c-0.1-0.6-0.6-0.8-1.2-0.8c-0.4,0-1,0-1,0.6
	s0.9,0.7,1.9,0.9s1.8,0.6,1.8,1.7c0,1.4-1.4,1.9-2.6,1.9c-1.4,0-2.5-0.6-2.5-2L159.7,36.6z M156.8,35c0-0.8-0.7-1.5-1.5-1.5
	s-1.5,0.7-1.5,1.5H156.8z M153.8,35.9c0,0.1,0,0.1,0,0.2c0,0.8,0.7,1.5,1.5,1.5c0.6,0.1,1.2-0.3,1.4-1h1.2c-0.3,1.2-1.4,2-2.6,1.9
	c-0.1,0-0.3,0-0.4,0c-1.5-0.2-2.6-1.5-2.4-3c0-0.3,0-0.5,0-0.8c0.3-1.5,1.8-2.5,3.3-2.2s2.5,1.8,2.2,3.3L153.8,35.9z M148.2,36.6
	c0.1,0.7,0.6,1,1.3,1c0.5,0,1.3-0.1,1.3-0.8s-0.9-0.8-1.9-1c-0.9-0.2-1.8-0.4-1.8-1.7c0-1.2,1.2-1.6,2.4-1.6s2.2,0.5,2.4,1.8h-1.3
	c-0.1-0.6-0.6-0.8-1.1-0.8c-0.4,0-1,0-1,0.6s0.9,0.7,1.9,0.9s1.8,0.6,1.8,1.7c0,1.4-1.4,1.9-2.6,1.9c-1.4,0-2.5-0.6-2.5-2
	L148.2,36.6z M146.1,37.1c0,0.3,0.1,0.4,0.3,0.4c0.1,0,0.2,0,0.3,0v0.9c-0.3,0.1-0.5,0.1-0.8,0.1c-0.5,0-0.9-0.2-1-0.7
	c-0.6,0.5-1.3,0.7-2,0.7c-0.1,0-0.1,0-0.2,0c-1,0-1.8-0.7-1.8-1.7c0-1.4,1.3-1.6,2.2-1.8s1.7-0.2,1.7-0.8s-0.7-0.8-1.2-0.8
	c-0.7,0-1.2,0.3-1.3,0.9H141c0.1-1.5,1.5-1.9,2.6-1.9s2.3,0.5,2.3,1.7L146.1,37.1z M144.9,35.6c-0.5,0.2-1,0.3-1.5,0.3
	c-0.5,0.1-1,0.4-1,1s0.6,0.7,1.2,0.7c0.6,0,1.4-0.3,1.4-1.1L144.9,35.6z M139.3,35.1c0-0.8-0.7-1.5-1.5-1.5s-1.5,0.7-1.5,1.5H139.3z
	 M136.4,35.9c0,0.1,0,0.1,0,0.2c0,0.8,0.7,1.5,1.5,1.5c0.6,0.1,1.2-0.3,1.4-1h1.1c-0.3,1.2-1.3,2-2.5,2c-0.1,0-0.3,0-0.4,0
	c-1.5-0.2-2.6-1.5-2.4-3c0-0.3,0-0.5,0-0.8c0.3-1.5,1.8-2.5,3.3-2.2s2.5,1.8,2.2,3.3H136.4z M130.8,36.6c0.1,0.7,0.6,1,1.3,1
	c0.5,0,1.3-0.1,1.3-0.8s-0.9-0.8-1.9-1s-1.8-0.4-1.8-1.7s1.2-1.6,2.4-1.6s2.2,0.5,2.4,1.8h-1.3c-0.1-0.6-0.6-0.8-1.2-0.8
	c-0.4,0-1,0-1,0.6s0.9,0.7,1.9,0.9s1.8,0.6,1.8,1.7c0,1.4-1.4,1.9-2.6,1.9c-1.4,0-2.5-0.6-2.5-2L130.8,36.6z M127.4,30.5h1.3v1.2
	h-1.3C127.4,31.7,127.4,30.5,127.4,30.5z M127.4,32.7h1.3v5.8h-1.3C127.4,38.5,127.4,32.7,127.4,32.7z M119.8,30.6h3.3
	c2.4,0,3.5,1.8,3.5,3.9c0,2.2-1.1,3.9-3.5,3.9h-3.3V30.6z M121.2,37.3h1.4c2.2,0,2.6-1.2,2.6-2.8s-0.4-2.8-2.6-2.8h-1.4V37.3z
	 M112.1,36.6c0.1,0.7,0.6,1,1.3,1c0.5,0,1.3-0.1,1.3-0.8s-0.9-0.8-1.9-1s-1.8-0.4-1.8-1.7s1.2-1.6,2.4-1.6c1.2,0,2.2,0.5,2.4,1.8
	h-1.3c0-0.6-0.6-0.8-1.1-0.8c-0.4,0-1,0-1,0.6s0.9,0.7,1.9,0.9s1.8,0.6,1.8,1.7c0,1.4-1.4,1.9-2.6,1.9c-1.4,0-2.5-0.6-2.5-2
	L112.1,36.6z M110,38.4h-1.2v-0.8l0,0c-0.3,0.6-0.9,0.9-1.6,0.9c-1.5,0-2.1-0.7-2.1-2.2v-3.6h1.2v3.5c0,1,0.4,1.4,1.1,1.4
	c1.1,0,1.4-0.7,1.4-1.6v-3.3h1.2V38.4z M101.3,38.6c-0.1,0-0.3,0-0.4,0c-1.5-0.1-2.6-1.5-2.5-3c0-0.1,0-0.2,0-0.4
	c0.1-1.6,1.5-2.8,3.1-2.7s2.8,1.5,2.7,3.1c0,0.1,0,0.3,0,0.4C104.1,37.5,102.8,38.7,101.3,38.6 M101.3,37.6c1.1,0,1.6-1.1,1.6-2
	s-0.5-2-1.6-2s-1.6,1-1.6,2S100.2,37.6,101.3,37.6 M96.2,30.5h1.2v1.2h-1.2V30.5z M96.2,32.7h1.2v5.7h-1.2V32.7z M92.1,32.7h1V31
	h1.2v1.7h1.1v0.9h-1.1v3c0,0.5,0,0.8,0.6,0.8c0.2,0,0.4,0,0.5,0v1c-0.3,0.1-0.5,0.1-0.8,0.1C93.3,38.5,93,38,93,37v-3.3h-1
	L92.1,32.7z M90.6,34.7L90.6,34.7c-0.1-0.7-0.6-1.2-1.3-1.1c-0.7,0-1.6,0.3-1.6,2.1c0,1,0.4,2,1.5,2l0,0c0.8,0,1.4-0.6,1.4-1.4h1.2
	c-0.1,1.4-1.3,2.4-2.6,2.3c-0.1,0-0.2,0-0.4,0c-1.5-0.1-2.6-1.5-2.4-2.9c0-0.1,0-0.3,0-0.4c0-1.5,1.3-2.7,2.8-2.7l0,0
	c1.3-0.1,2.4,0.8,2.5,2.1L90.6,34.7z M84.7,35c0-0.8-0.7-1.5-1.5-1.5s-1.5,0.7-1.5,1.5H84.7z M81.8,35.9L81.8,35.9
	c0,0.9,0.7,1.6,1.5,1.7c0.6,0.1,1.2-0.3,1.4-1h1.2c-0.3,1.2-1.4,2-2.6,1.9c-0.1,0-0.3,0-0.4,0c-1.5-0.2-2.6-1.5-2.4-3
	c0-0.3,0-0.5,0-0.8c0.3-1.5,1.8-2.5,3.3-2.2s2.5,1.8,2.2,3.3h-4.2V35.9z M76.9,32.7h0.9v-0.5c0-1.4,0.8-1.7,1.6-1.7
	c0.3,0,0.6,0,0.9,0.1v1c-0.2,0-0.4-0.1-0.6-0.1c-0.3,0-0.6,0.1-0.6,0.6v0.6h1.1v0.9h-1.1v4.8h-1.3v-4.8h-0.9V32.7z M71.4,32.7h1.2
	v0.8l0,0c0.4-0.6,1-1,1.8-1c0.1,0,0.3,0,0.4,0c1,0.1,1.7,1,1.6,2v3.9h-1.3v-3.6c0-0.9-0.4-1.3-1.1-1.3h-0.1
	c-0.8,0.1-1.3,0.7-1.3,1.5v3.4h-1.3L71.4,32.7z M68.7,30.5h1.4v7.9h-1.4V30.5z M122.5,24.4h-1.2v-0.8l0,0c-0.4,0.6-1.1,1-1.8,0.9
	c-1.8,0-2.7-1.3-2.7-3c0-2.1,1.2-3,2.5-3c0.7,0,1.5,0.3,1.9,0.9l0,0v-2.9h1.3C122.5,16.5,122.5,24.4,122.5,24.4z M118.1,21.6
	c0,1,0.5,2,1.6,2s1.6-1,1.6-2c0-1.2-0.6-2-1.6-2C118.5,19.5,118.1,20.6,118.1,21.6 M111,18.7h1.2v0.9c0.4-0.6,1.1-1,1.8-1
	c0.1,0,0.2,0,0.4,0c1,0.1,1.7,1,1.6,1.9v3.9h-1.3v-3.6c0-0.9-0.4-1.3-1.1-1.3h-0.1c-0.8,0.1-1.3,0.7-1.3,1.5v3.4H111V18.7z
	 M109.8,23.1c0,0.3,0.1,0.4,0.3,0.4c0.1,0,0.2,0,0.3,0v0.9c-0.3,0.1-0.5,0.1-0.8,0.1c-0.5,0.1-0.9-0.2-1-0.7c-0.6,0.5-1.3,0.7-2,0.7
	c-0.1,0-0.1,0-0.2,0c-1,0-1.7-0.7-1.8-1.7c0-1.4,1.3-1.6,2.2-1.8c0.9-0.2,1.7-0.2,1.7-0.8c0-0.6-0.7-0.8-1.2-0.8
	c-0.7,0-1.3,0.3-1.3,0.9h-1c0.1-1.5,1.5-1.9,2.6-1.9s2.3,0.5,2.3,1.7L109.8,23.1z M108.6,21.6c-0.5,0.2-1,0.3-1.5,0.4
	c-0.6,0.1-1,0.4-1,0.9s0.6,0.7,1.2,0.7s1.4-0.3,1.4-1.1L108.6,21.6z M96,18.7h1.3l1.5,4.3l0,0l1.4-4.3h1.3l-2.2,6c-0.4,1-0.7,2-2,2
	c-0.3,0-0.6,0-0.9-0.1v-1.1c0.2,0,0.4,0.1,0.6,0.1c0.6,0,0.7-0.3,0.9-0.8l0.1-0.4L96,18.7z M95.6,24.1c0,1.7-1,2.6-2.8,2.6
	c-1.2,0-2.4-0.4-2.6-1.8h1.3c0.2,0.7,0.7,0.8,1.4,0.8c0.1,0,0.2,0,0.4,0c0.7-0.1,1.2-0.8,1.1-1.5v-0.9l0,0c-0.3,0.6-1,1-1.7,1
	c-1.8,0-2.6-1.4-2.6-3c0-0.1,0-0.1,0-0.2c0-1.5,1.1-2.6,2.6-2.7c0.7,0,1.4,0.3,1.7,0.9l0,0v-0.8h1.3v5.6H95.6z M92.8,23.4
	c1.1,0,1.5-1,1.5-2s-0.4-1.9-1.5-1.9s-1.5,1-1.5,2C91.2,22.4,91.6,23.4,92.8,23.4 M86.6,18.7h1.2v1.1l0,0c0.2-0.7,0.9-1.2,1.7-1.3
	c0.2,0,0.3,0,0.5,0v1.2c-0.2,0-0.4,0-0.5-0.1c-0.9,0-1.5,0.7-1.5,1.9v2.7h-1.3L86.6,18.7z M84.5,21.1c0-0.8-0.7-1.5-1.5-1.5
	s-1.5,0.7-1.5,1.5H84.5z M81.6,21.9c0,0.1,0,0.1,0,0.2c0,0.8,0.7,1.5,1.5,1.5c0.6,0.1,1.2-0.3,1.4-1h1.2c-0.3,1.2-1.4,2-2.6,1.9
	c-0.1,0-0.3,0-0.4,0c-1.5-0.2-2.6-1.5-2.4-3c0-0.3,0-0.5,0-0.8c0.3-1.5,1.8-2.5,3.3-2.2s2.5,1.8,2.2,3.3L81.6,21.9z M78.2,16.5h1.3
	v7.9h-1.3V16.5z M75.7,16.5H77v7.9h-1.3V16.5z M70.8,16.5h1.5l3,7.9h-1.5l-0.7-2.1h-3.2l-0.7,2.1h-1.4L70.8,16.5z M70.3,21.3h2.4
	l-1.2-3.4l0,0L70.3,21.3z M160.3,4.7h0.9V4.2c0-1.5,0.8-1.7,1.6-1.7c0.3,0,0.6,0,0.9,0.1v1c-0.2,0-0.4-0.1-0.6-0.1
	c-0.3,0-0.6,0.1-0.6,0.6v0.6h1.1v0.9h-1.1v4.8h-1.3V5.6h-0.9L160.3,4.7L160.3,4.7z M157.1,10.6c-0.1,0-0.3,0-0.4,0
	c-1.5-0.1-2.6-1.5-2.5-3c0-1.6,1.3-2.9,2.9-2.9S160,6,160,7.6c0,0.1,0,0.3,0,0.4C159.9,9.5,158.6,10.6,157.1,10.6 M157.1,9.6
	c1.1,0,1.6-1,1.6-2s-0.5-2-1.6-2s-1.6,1-1.6,2S156,9.6,157.1,9.6 M149.5,7.1c0-0.8-0.7-1.5-1.5-1.5s-1.5,0.7-1.5,1.5H149.5z
	 M146.7,7.9c0,0.1,0,0.1,0,0.2c0,0.8,0.7,1.5,1.5,1.5c0.6,0.1,1.2-0.3,1.4-1h1.2c-0.3,1.2-1.4,2-2.6,1.9c-0.2,0-0.3,0-0.5,0
	c-1.5-0.2-2.6-1.5-2.4-3c0-0.3,0-0.5,0-0.8c0.3-1.5,1.8-2.5,3.3-2.2s2.5,1.8,2.2,3.3L146.7,7.9z M141.6,4.7h0.9V3h1.3v1.7h1.1v0.9
	h-1.1v3c0,0.5,0,0.8,0.6,0.8c0.2,0,0.4,0,0.5,0v1c-0.3,0-0.5,0-0.8,0c-1.3,0-1.6-0.5-1.6-1.4V5.7h-1L141.6,4.7z M141,10.4h-1.2V9.6
	l0,0c-0.3,0.6-1,0.9-1.6,1c-1.5,0-2.1-0.7-2.1-2.2V4.7h1.2v3.6c0,1,0.4,1.4,1.1,1.4c1.1,0,1.4-0.7,1.4-1.6V4.7h1.3L141,10.4z
	 M131.9,4.7h1V3h1.3v1.7h1.1v0.9h-1.1v3c0,0.5,0,0.8,0.6,0.8c0.2,0,0.4,0,0.5,0v1c-0.3,0-0.5,0-0.8,0c-1.3,0-1.6-0.5-1.6-1.4V5.7h-1
	V4.7z M130.1,2.5h1.3v1.2h-1.3V2.5z M130.1,4.7h1.3v5.8h-1.3V4.7z M126,4.7h1V3h1.3v1.7h1.1v0.9h-1.1v3c0,0.5,0,0.8,0.6,0.8
	c0.2,0,0.4,0,0.5,0v1c-0.3,0-0.5,0-0.8,0c-1.3,0-1.6-0.5-1.6-1.4V5.7h-1L126,4.7z M121.9,8.6c0.1,0.7,0.6,1,1.3,1
	c0.5,0,1.3-0.1,1.3-0.8s-0.9-0.8-1.9-1c-0.9-0.2-1.8-0.4-1.8-1.7s1.2-1.6,2.4-1.6s2.2,0.5,2.4,1.8h-1.3c0-0.6-0.6-0.8-1.1-0.8
	c-0.4,0-1.1,0-1.1,0.6S123,6.8,124,7c0.9,0.2,1.8,0.6,1.8,1.7c0,1.4-1.4,1.9-2.6,1.9c-1.4,0-2.5-0.6-2.5-2L121.9,8.6z M114.9,4.7
	h1.2v0.9l0,0c0.4-0.6,1-1,1.7-1c0.1,0,0.3,0,0.4,0c1,0.1,1.7,1,1.6,2v3.9h-1.3V6.8c0-0.9-0.4-1.3-1.1-1.3h-0.1
	C116.5,5.6,116,6.2,116,7v3.4h-1.2L114.9,4.7z M112.2,2.5h1.4v7.9h-1.4V2.5z M106.7,2.5h1.2v7.9h-1.3L106.7,2.5z M105.5,9.1
	c0,0.3,0.1,0.4,0.3,0.4c0.1,0,0.2,0,0.3,0v0.9c-0.3,0.1-0.5,0.1-0.8,0.1c-0.5,0.1-0.9-0.2-1-0.7c-0.6,0.5-1.3,0.7-2,0.7
	c-0.1,0-0.1,0-0.2,0c-1,0-1.8-0.7-1.8-1.7c0-1.4,1.3-1.6,2.2-1.8c0.9-0.2,1.7-0.2,1.7-0.8s-0.7-0.8-1.2-0.8c-0.7,0-1.2,0.3-1.3,0.9
	h-1.2c0-1.5,1.4-1.9,2.6-1.9s2.3,0.5,2.3,1.7L105.5,9.1z M104.3,7.6c-0.5,0.2-1,0.3-1.6,0.3c-0.5,0.1-1,0.4-1,1s0.6,0.7,1.1,0.7
	c0.6,0,1.4-0.3,1.4-1.1L104.3,7.6z M94.6,4.7h1.2v0.9l0,0c0.4-0.6,1-1,1.8-1c0.1,0,0.2,0,0.4,0c1,0.1,1.7,1,1.6,2v3.9h-1.2V6.8
	c0-0.9-0.4-1.3-1.1-1.3h-0.1c-0.8,0.1-1.3,0.7-1.3,1.5v3.4h-1.3V4.7z M90.8,10.6c-0.1,0-0.3,0-0.4,0c-1.5-0.1-2.6-1.5-2.5-3
	c0-1.6,1.3-2.9,2.9-2.9s2.9,1.3,2.9,2.9c0,0.1,0,0.3,0,0.4C93.6,9.5,92.3,10.6,90.8,10.6 M90.8,9.6c1.1,0,1.6-1,1.6-2s-0.5-2-1.6-2
	s-1.6,1-1.6,2S89.7,9.6,90.8,9.6 M85.8,2.5H87v1.2h-1.3V2.5H85.8z M85.8,4.7H87v5.7h-1.3V4.7H85.8z M81.7,4.7h1V3H84v1.7h1v0.9h-1.1
	v3c0,0.5,0,0.8,0.6,0.8c0.2,0,0.4,0,0.5,0v1c-0.3,0-0.5,0-0.8,0c-1.3,0-1.6-0.5-1.6-1.4V5.6h-1L81.7,4.7z M81,9.1
	c0,0.3,0.1,0.4,0.3,0.4c0.1,0,0.2,0,0.3,0v0.9c-0.3,0.1-0.5,0.1-0.8,0.1c-0.5,0-0.9-0.2-1-0.7c-0.6,0.5-1.3,0.7-2,0.7
	c-0.1,0-0.1,0-0.2,0c-1,0-1.8-0.7-1.8-1.7c0-1.4,1.3-1.6,2.2-1.8c0.9-0.2,1.7-0.2,1.7-0.8S79,5.4,78.5,5.4c-0.7,0-1.3,0.3-1.3,0.9
	H76c0.1-1.5,1.5-1.9,2.6-1.9s2.3,0.5,2.3,1.7L81,9.1z M79.9,7.6c-0.5,0.2-1,0.3-1.5,0.3c-0.5,0.1-1,0.4-1,1s0.6,0.7,1.1,0.7
	c0.6,0,1.4-0.3,1.4-1.1V7.6z M68.6,2.5h1.5l3.6,5.8l0,0V2.5H75v7.9h-1.5l-3.6-5.8l0,0v5.8h-1.3V2.5z"/>
</svg>
