<?xml version="1.0" encoding="utf-8"?>
<!-- Generator: Adobe Illustrator 24.1.2, SVG Export Plug-In . SVG Version: 6.00 Build 0)  -->
<svg version="1.1" id="Layer_1" xmlns="http://www.w3.org/2000/svg" xmlns:xlink="http://www.w3.org/1999/xlink" x="0px" y="0px"
	 viewBox="0 0 83 36" enable-background="new 0 0 83 36" xml:space="preserve">
<path id="niaid-mobile-vertical" fill="#FFFFFF" d="M83,36.2H0v-1.4h83V36.2z M27.4,7.5v4.7H22V7.5h-2.1v11.8H22V14h5.4v5.4h2.1V7.5
	H27.4z M17.9,7.5h-2.1v11.9h2.1V7.5z M13.7,7.5h-2v8.7l0,0L6.3,7.5H4.2v11.9h2v-8.7l0,0l5.4,8.7h2.2L13.7,7.5z M29.5,26.7h-27
	c0,0,0,0,0,0c-1.3,0-2.4-1.1-2.4-2.4V2.6c0-1.4,1.1-2.4,2.4-2.4h27l7.3,13.3L29.5,26.7z M33.1,26.7c1.1,0,2.2-0.6,2.8-1.6l6.6-11.6
	L36,1.8c-0.6-1-1.6-1.6-2.8-1.6h-1.9l7.3,13.3l-7.4,13.3L33.1,26.7z M47.7,17.6h1.7v-7.2l0,0l4.4,7.1h1.8V7.8H54V15l0,0l-4.4-7.2
	h-1.8V17.6z M57.6,17.5h1.7V7.8h-1.7V17.5z M60.3,17.5h1.8l0.9-2.6h3.9l0.9,2.6h1.8l-3.7-9.7H64L60.3,17.5z M65,9.6L65,9.6l1.4,4.2
	h-3L65,9.6z M70.6,17.5h1.7V7.8h-1.7V17.5z M74.3,17.6h4c3,0,4.3-2.2,4.3-4.9s-1.3-4.9-4.3-4.9h-4V17.6z M76.1,9.2h1.6
	c2.7,0,3.3,1.5,3.3,3.5s-0.6,3.5-3.3,3.5H76L76.1,9.2z"/>
</svg>
