<?xml version="1.0" encoding="utf-8"?>
<!-- Generator: Adobe Illustrator 24.1.2, SVG Export Plug-In . SVG Version: 6.00 Build 0)  -->
<svg version="1.1" xmlns="http://www.w3.org/2000/svg" xmlns:xlink="http://www.w3.org/1999/xlink" x="0px" y="0px"
	 viewBox="0 0 177.5 40" enable-background="new 0 0 177.5 40" xml:space="preserve">
<g id="Layer_2">
</g>
<g id="Layer_1">
	<path id="niaid-desktop" fill="#FFFFFF" d="M177.5,39.8h-1.1V0h1.1V39.8z M41.1,11.3v7.1H33v-7.1h-3.1V29H33v-8h8.1v8h3.1V11.3
		H41.1z M26.8,11.3h-3.1V29h3.1V11.3z M20.6,11.3h-3v13.1l0,0L9.5,11.3H6.2V29h3V16h0.1L17.3,29h3.3L20.6,11.3z M44.2,40H3.7
		c0,0,0,0,0,0c-2,0-3.7-1.6-3.7-3.7V3.9c0,0,0,0,0,0c0-2,1.6-3.7,3.7-3.7h40.6l11,19.9L44.2,40z M49.7,40c1.7-0.1,3.2-1,4.1-2.4
		l9.7-17.5L53.8,2.6c-0.9-1.4-2.4-2.3-4.1-2.4H47l11,19.9L46.9,40L49.7,40z M159.7,36.6c0.1,0.7,0.6,1,1.3,1c0.4,0,1.3-0.1,1.3-0.8
		c0-0.7-1-0.8-1.9-1c-0.9-0.2-1.8-0.4-1.8-1.7c0-1.2,1.2-1.6,2.4-1.6c1.2,0,2.2,0.5,2.4,1.8h-1.3c-0.1-0.6-0.6-0.8-1.2-0.8
		c-0.4,0-1,0-1,0.6c0,0.6,0.9,0.7,1.9,0.9s1.8,0.6,1.8,1.7c0,1.4-1.4,1.9-2.6,1.9c-1.4,0-2.5-0.6-2.5-2L159.7,36.6z M156.8,35
		c0-0.8-0.7-1.5-1.5-1.5c-0.8,0-1.5,0.7-1.5,1.5H156.8z M153.8,35.9c0,0.1,0,0.1,0,0.2c0,0.8,0.7,1.5,1.5,1.5c0.6,0.1,1.2-0.3,1.4-1
		h1.2c-0.3,1.2-1.4,2-2.6,1.9c-0.1,0-0.3,0-0.4,0c-1.5-0.2-2.6-1.5-2.4-3c0-0.3,0-0.5,0-0.8c0.3-1.5,1.8-2.5,3.3-2.2
		c1.5,0.3,2.5,1.8,2.2,3.3L153.8,35.9z M148.2,36.6c0.1,0.7,0.6,1,1.3,1c0.5,0,1.3-0.1,1.3-0.8c0-0.7-0.9-0.8-1.9-1
		c-0.9-0.2-1.8-0.4-1.8-1.7c0-1.2,1.2-1.6,2.4-1.6c1.2,0,2.2,0.5,2.4,1.8h-1.3c-0.1-0.6-0.6-0.8-1.1-0.8c-0.4,0-1,0-1,0.6
		c0,0.6,0.9,0.7,1.9,0.9s1.8,0.6,1.8,1.7c0,1.4-1.4,1.9-2.6,1.9c-1.4,0-2.5-0.6-2.5-2L148.2,36.6z M146.1,37.1
		c0,0.3,0.1,0.4,0.3,0.4c0.1,0,0.2,0,0.3,0v0.9c-0.3,0.1-0.5,0.1-0.8,0.1c-0.5,0-0.9-0.2-1-0.7c-0.6,0.5-1.3,0.7-2,0.7
		c-0.1,0-0.1,0-0.2,0c-1,0-1.8-0.7-1.8-1.7c0-1.4,1.3-1.6,2.2-1.8c0.9-0.2,1.7-0.2,1.7-0.8s-0.7-0.8-1.2-0.8c-0.7,0-1.2,0.3-1.3,0.9
		h-1.3c0.1-1.5,1.5-1.9,2.6-1.9c1.1,0,2.3,0.5,2.3,1.7L146.1,37.1z M144.9,35.6c-0.5,0.2-1,0.3-1.5,0.3c-0.5,0.1-1,0.4-1,1
		s0.6,0.7,1.2,0.7c0.6,0,1.4-0.3,1.4-1.1L144.9,35.6z M139.3,35.1c0-0.8-0.7-1.5-1.5-1.5c-0.8,0-1.5,0.7-1.5,1.5H139.3z M136.4,35.9
		c0,0.1,0,0.1,0,0.2c0,0.8,0.7,1.5,1.5,1.5c0.6,0.1,1.2-0.3,1.4-1h1.1c-0.3,1.2-1.3,2-2.5,2c-0.1,0-0.3,0-0.4,0
		c-1.5-0.2-2.6-1.5-2.4-3c0-0.3,0-0.5,0-0.8c0.3-1.5,1.8-2.5,3.3-2.2c1.5,0.3,2.5,1.8,2.2,3.3L136.4,35.9z M130.8,36.6
		c0.1,0.7,0.6,1,1.3,1c0.5,0,1.3-0.1,1.3-0.8c0-0.7-0.9-0.8-1.9-1s-1.8-0.4-1.8-1.7s1.2-1.6,2.4-1.6s2.2,0.5,2.4,1.8h-1.3
		c-0.1-0.6-0.6-0.8-1.2-0.8c-0.4,0-1,0-1,0.6c0,0.6,0.9,0.7,1.9,0.9s1.8,0.6,1.8,1.7c0,1.4-1.4,1.9-2.6,1.9c-1.4,0-2.5-0.6-2.5-2
		L130.8,36.6z M127.4,30.5h1.3v1.2h-1.3V30.5z M127.4,32.7h1.3v5.8h-1.3V32.7z M119.8,30.6h3.3c2.4,0,3.5,1.8,3.5,3.9
		c0,2.2-1.1,3.9-3.5,3.9h-3.3V30.6z M121.2,37.3h1.4c2.2,0,2.6-1.2,2.6-2.8s-0.4-2.8-2.6-2.8h-1.4V37.3z M112.1,36.6
		c0.1,0.7,0.6,1,1.3,1c0.5,0,1.3-0.1,1.3-0.8c0-0.7-0.9-0.8-1.9-1s-1.8-0.4-1.8-1.7s1.2-1.6,2.4-1.6c1.2,0,2.2,0.5,2.4,1.8h-1.3
		c0-0.6-0.6-0.8-1.1-0.8c-0.4,0-1,0-1,0.6c0,0.6,0.9,0.7,1.9,0.9s1.8,0.6,1.8,1.7c0,1.4-1.4,1.9-2.6,1.9c-1.4,0-2.5-0.6-2.5-2
		L112.1,36.6z M110,38.4h-1.2v-0.8l0,0c-0.3,0.6-0.9,0.9-1.6,0.9c-1.5,0-2.1-0.7-2.1-2.2v-3.6h1.2v3.5c0,1,0.4,1.4,1.1,1.4
		c1.1,0,1.4-0.7,1.4-1.6v-3.3h1.2L110,38.4z M101.3,38.6c-0.1,0-0.3,0-0.4,0c-1.5-0.1-2.6-1.5-2.5-3c0-0.1,0-0.2,0-0.4
		c0.1-1.6,1.5-2.8,3.1-2.7c1.6,0.1,2.8,1.5,2.7,3.1c0,0.1,0,0.3,0,0.4C104.1,37.5,102.8,38.7,101.3,38.6 M101.3,37.6
		c1.1,0,1.6-1.1,1.6-2s-0.5-2-1.6-2s-1.6,1-1.6,2S100.2,37.6,101.3,37.6 M96.2,30.5h1.2v1.2h-1.2V30.5z M96.2,32.7h1.2v5.7h-1.2
		V32.7z M92.1,32.7h1V31h1.2v1.7h1.1v0.9h-1.1v3c0,0.5,0,0.8,0.6,0.8c0.2,0,0.4,0,0.5,0v1c-0.3,0.1-0.5,0.1-0.8,0.1
		c-1.3,0-1.6-0.5-1.6-1.5v-3.3h-1L92.1,32.7z M90.6,34.7C90.6,34.7,90.6,34.7,90.6,34.7c-0.1-0.7-0.6-1.2-1.3-1.1
		c-0.7,0-1.6,0.3-1.6,2.1c0,1,0.4,2,1.5,2h0c0.8,0,1.4-0.6,1.4-1.4h1.2c-0.1,1.4-1.3,2.4-2.6,2.3c-0.1,0-0.2,0-0.4,0
		c-1.5-0.1-2.6-1.5-2.4-2.9c0-0.1,0-0.3,0-0.4c0-1.5,1.3-2.7,2.8-2.7c0,0,0,0,0,0c1.3-0.1,2.4,0.8,2.5,2.1L90.6,34.7z M84.7,35
		c0-0.8-0.7-1.5-1.5-1.5s-1.5,0.7-1.5,1.5H84.7z M81.8,35.9c0,0,0,0.1,0,0.1c0,0.8,0.7,1.5,1.5,1.6c0.6,0.1,1.2-0.3,1.4-1h1.2
		c-0.3,1.2-1.4,2-2.6,1.9c-0.1,0-0.3,0-0.4,0c-1.5-0.2-2.6-1.5-2.4-3c0-0.3,0-0.5,0-0.8c0.3-1.5,1.8-2.5,3.3-2.2
		c1.5,0.3,2.5,1.8,2.2,3.3H81.8z M76.9,32.7h0.9v-0.5c0-1.4,0.8-1.7,1.6-1.7c0.3,0,0.6,0,0.9,0.1v1c-0.2,0-0.4-0.1-0.6-0.1
		c-0.3,0-0.6,0.1-0.6,0.6v0.6h1.1v0.9h-1.1v4.8h-1.3v-4.8h-0.9L76.9,32.7z M71.4,32.7h1.2v0.8l0,0c0.4-0.6,1-1,1.8-1
		c0.1,0,0.3,0,0.4,0c1,0.1,1.7,1,1.6,2v3.9h-1.3v-3.6c0-0.9-0.4-1.3-1.1-1.3c0,0-0.1,0-0.1,0c-0.8,0.1-1.3,0.7-1.3,1.5v3.4h-1.3
		L71.4,32.7z M68.7,30.5h1.4v7.9h-1.4L68.7,30.5z M122.5,24.4h-1.2v-0.8l0,0c-0.4,0.6-1.1,1-1.8,0.9c-1.8,0-2.7-1.3-2.7-3
		c0-2.1,1.2-3,2.5-3c0.7,0,1.5,0.3,1.9,0.9l0,0v-2.9h1.3V24.4z M118.1,21.6c0,1,0.5,2,1.6,2s1.6-1,1.6-2c0-1.2-0.6-2-1.6-2
		C118.5,19.5,118.1,20.6,118.1,21.6 M111,18.7h1.2v0.9c0.4-0.6,1.1-1,1.8-1c0.1,0,0.2,0,0.4,0c1,0.1,1.7,1,1.6,1.9v3.9h-1.3v-3.6
		c0-0.9-0.4-1.3-1.1-1.3c0,0-0.1,0-0.1,0c-0.8,0.1-1.3,0.7-1.3,1.5v3.4H111L111,18.7z M109.8,23.1c0,0.3,0.1,0.4,0.3,0.4
		c0.1,0,0.2,0,0.3,0v0.9c-0.3,0.1-0.5,0.1-0.8,0.1c-0.5,0.1-0.9-0.2-1-0.7c-0.6,0.5-1.3,0.7-2,0.7c-0.1,0-0.1,0-0.2,0
		c-1,0-1.7-0.7-1.8-1.7c0-1.4,1.3-1.6,2.2-1.8c0.9-0.2,1.7-0.2,1.7-0.8c0-0.6-0.7-0.8-1.2-0.8c-0.7,0-1.3,0.3-1.3,0.9H105
		c0.1-1.5,1.5-1.9,2.6-1.9s2.3,0.5,2.3,1.7L109.8,23.1z M108.6,21.6c-0.5,0.2-1,0.3-1.5,0.4c-0.6,0.1-1,0.4-1,0.9s0.6,0.7,1.2,0.7
		c0.6,0,1.4-0.3,1.4-1.1L108.6,21.6z M96,18.7h1.3l1.5,4.3l0,0l1.4-4.3h1.3l-2.2,6c-0.4,1-0.7,2-2,2c-0.3,0-0.6,0-0.9-0.1v-1.1
		c0.2,0,0.4,0.1,0.6,0.1c0.6,0,0.7-0.3,0.9-0.8l0.1-0.4L96,18.7z M95.6,24.1c0,1.7-1,2.6-2.8,2.6c-1.2,0-2.4-0.4-2.6-1.8h1.3
		c0.2,0.7,0.7,0.8,1.4,0.8c0.1,0,0.2,0,0.4,0c0.7-0.1,1.2-0.8,1.1-1.5v-0.9l0,0c-0.3,0.6-1,1-1.7,1c-1.8,0-2.6-1.4-2.6-3
		c0-0.1,0-0.1,0-0.2c0-1.5,1.1-2.6,2.6-2.7c0.7,0,1.4,0.3,1.7,0.9l0,0v-0.8h1.3V24.1z M92.8,23.4c1.1,0,1.5-1,1.5-2
		s-0.4-1.9-1.5-1.9c-1.1,0-1.5,1-1.5,2C91.2,22.4,91.6,23.4,92.8,23.4 M86.6,18.7h1.2v1.1l0,0c0.2-0.7,0.9-1.2,1.7-1.3
		c0.2,0,0.3,0,0.5,0v1.2c-0.2,0-0.4,0-0.5-0.1c-0.9,0-1.5,0.7-1.5,1.9v2.7h-1.3L86.6,18.7z M84.5,21.1c0-0.8-0.7-1.5-1.5-1.5
		s-1.5,0.7-1.5,1.5H84.5z M81.6,21.9c0,0.1,0,0.1,0,0.2c0,0.8,0.7,1.5,1.5,1.5c0.6,0.1,1.2-0.3,1.4-1h1.2c-0.3,1.2-1.4,2-2.6,1.9
		c-0.1,0-0.3,0-0.4,0c-1.5-0.2-2.6-1.5-2.4-3c0-0.3,0-0.5,0-0.8c0.3-1.5,1.8-2.5,3.3-2.2c1.5,0.3,2.5,1.8,2.2,3.3L81.6,21.9z
		 M78.2,16.5h1.3v7.9h-1.3L78.2,16.5z M75.7,16.5H77v7.9h-1.3L75.7,16.5z M70.8,16.5h1.5l3,7.9h-1.5l-0.7-2.1h-3.2l-0.7,2.1h-1.4
		L70.8,16.5z M70.3,21.3h2.4l-1.2-3.4l0,0L70.3,21.3z M160.3,4.7h0.9V4.2c0-1.5,0.8-1.7,1.6-1.7c0.3,0,0.6,0,0.9,0.1v1
		c-0.2,0-0.4-0.1-0.6-0.1c-0.3,0-0.6,0.1-0.6,0.6v0.6h1.1v0.9h-1.1v4.8h-1.3V5.6h-0.9V4.7z M157.1,10.6c-0.1,0-0.3,0-0.4,0
		c-1.5-0.1-2.6-1.5-2.5-3c0-1.6,1.3-2.9,2.9-2.9s2.9,1.3,2.9,2.9c0,0.1,0,0.3,0,0.4C159.9,9.5,158.6,10.6,157.1,10.6 M157.1,9.6
		c1.1,0,1.6-1,1.6-2s-0.5-2-1.6-2c-1.1,0-1.6,1-1.6,2S156,9.6,157.1,9.6 M149.5,7.1c0-0.8-0.7-1.5-1.5-1.5c-0.8,0-1.5,0.7-1.5,1.5
		H149.5z M146.7,7.9c0,0.1,0,0.1,0,0.2c0,0.8,0.7,1.5,1.5,1.5c0.6,0.1,1.2-0.3,1.4-1h1.2c-0.3,1.2-1.4,2-2.6,1.9c-0.2,0-0.3,0-0.5,0
		c-1.5-0.2-2.6-1.5-2.4-3c0-0.3,0-0.5,0-0.8c0.3-1.5,1.8-2.5,3.3-2.2c1.5,0.3,2.5,1.8,2.2,3.3L146.7,7.9z M141.6,4.7h0.9V3h1.3v1.7
		h1.1v0.9h-1.1v3c0,0.5,0,0.8,0.6,0.8c0.2,0,0.4,0,0.5,0v1c-0.3,0-0.5,0-0.8,0c-1.3,0-1.6-0.5-1.6-1.4V5.7h-1L141.6,4.7z M141,10.4
		h-1.2V9.6l0,0c-0.3,0.6-1,0.9-1.6,1c-1.5,0-2.1-0.7-2.1-2.2V4.7h1.2v3.6c0,1,0.4,1.4,1.1,1.4c1.1,0,1.4-0.7,1.4-1.6V4.7h1.3
		L141,10.4z M131.9,4.7h1V3h1.3v1.7h1.1v0.9h-1.1v3c0,0.5,0,0.8,0.6,0.8c0.2,0,0.4,0,0.5,0v1c-0.3,0-0.5,0-0.8,0
		c-1.3,0-1.6-0.5-1.6-1.4V5.7h-1L131.9,4.7z M130.1,2.5h1.3v1.2h-1.3V2.5z M130.1,4.7h1.3v5.8h-1.3V4.7z M126,4.7h1V3h1.3v1.7h1.1
		v0.9h-1.1v3c0,0.5,0,0.8,0.6,0.8c0.2,0,0.4,0,0.5,0v1c-0.3,0-0.5,0-0.8,0c-1.3,0-1.6-0.5-1.6-1.4V5.7h-1L126,4.7z M121.9,8.6
		c0.1,0.7,0.6,1,1.3,1c0.5,0,1.3-0.1,1.3-0.8c0-0.7-0.9-0.8-1.9-1c-0.9-0.2-1.8-0.4-1.8-1.7s1.2-1.6,2.4-1.6s2.2,0.5,2.4,1.8h-1.3
		c0-0.6-0.6-0.8-1.1-0.8c-0.4,0-1.1,0-1.1,0.6s0.9,0.7,1.9,0.9c0.9,0.2,1.8,0.6,1.8,1.7c0,1.4-1.4,1.9-2.6,1.9c-1.4,0-2.5-0.6-2.5-2
		L121.9,8.6z M114.9,4.7h1.2v0.9l0,0c0.4-0.6,1-1,1.7-1c0.1,0,0.3,0,0.4,0c1,0.1,1.7,1,1.6,2v3.9h-1.3V6.8c0-0.9-0.4-1.3-1.1-1.3
		c0,0-0.1,0-0.1,0c-0.8,0.1-1.3,0.7-1.3,1.5v3.4h-1.2L114.9,4.7z M112.2,2.5h1.4v7.9h-1.4V2.5z M106.7,2.5h1.2v7.9h-1.3L106.7,2.5z
		 M105.5,9.1c0,0.3,0.1,0.4,0.3,0.4c0.1,0,0.2,0,0.3,0v0.9c-0.3,0.1-0.5,0.1-0.8,0.1c-0.5,0.1-0.9-0.2-1-0.7c-0.6,0.5-1.3,0.7-2,0.7
		c-0.1,0-0.1,0-0.2,0c-1,0-1.8-0.7-1.8-1.7c0-1.4,1.3-1.6,2.2-1.8c0.9-0.2,1.7-0.2,1.7-0.8s-0.7-0.8-1.2-0.8c-0.7,0-1.2,0.3-1.3,0.9
		h-1.2c0-1.5,1.4-1.9,2.6-1.9c1.2,0,2.3,0.5,2.3,1.7L105.5,9.1z M104.3,7.6c-0.5,0.2-1,0.3-1.6,0.3c-0.5,0.1-1,0.4-1,1
		s0.6,0.7,1.1,0.7c0.6,0,1.4-0.3,1.4-1.1L104.3,7.6z M94.6,4.7h1.2v0.9l0,0c0.4-0.6,1-1,1.8-1c0.1,0,0.2,0,0.4,0c1,0.1,1.7,1,1.6,2
		v3.9h-1.2V6.8c0-0.9-0.4-1.3-1.1-1.3c0,0-0.1,0-0.1,0c-0.8,0.1-1.3,0.7-1.3,1.5v3.4h-1.3V4.7z M90.8,10.6c-0.1,0-0.3,0-0.4,0
		c-1.5-0.1-2.6-1.5-2.5-3c0-1.6,1.3-2.9,2.9-2.9c1.6,0,2.9,1.3,2.9,2.9c0,0.1,0,0.3,0,0.4C93.6,9.5,92.3,10.6,90.8,10.6 M90.8,9.6
		c1.1,0,1.6-1,1.6-2s-0.5-2-1.6-2c-1.1,0-1.6,1-1.6,2S89.7,9.6,90.8,9.6 M85.8,2.5H87v1.2h-1.3V2.5z M85.8,4.7H87v5.7h-1.3V4.7z
		 M81.7,4.7h1V3h1.3v1.7H85v0.9h-1.1v3c0,0.5,0,0.8,0.6,0.8c0.2,0,0.4,0,0.5,0v1c-0.3,0-0.5,0-0.8,0c-1.3,0-1.6-0.5-1.6-1.4V5.6h-1
		L81.7,4.7z M81,9.1c0,0.3,0.1,0.4,0.3,0.4c0.1,0,0.2,0,0.3,0v0.9c-0.3,0.1-0.5,0.1-0.8,0.1c-0.5,0-0.9-0.2-1-0.7
		c-0.6,0.5-1.3,0.7-2,0.7c-0.1,0-0.1,0-0.2,0c-1,0-1.8-0.7-1.8-1.7c0-1.4,1.3-1.6,2.2-1.8c0.9-0.2,1.7-0.2,1.7-0.8s-0.7-0.8-1.2-0.8
		c-0.7,0-1.3,0.3-1.3,0.9h-1.2c0.1-1.5,1.5-1.9,2.6-1.9s2.3,0.5,2.3,1.7L81,9.1z M79.9,7.6c-0.5,0.2-1,0.3-1.5,0.3
		c-0.5,0.1-1,0.4-1,1s0.6,0.7,1.1,0.7c0.6,0,1.4-0.3,1.4-1.1L79.9,7.6z M68.6,2.5h1.5l3.6,5.8l0,0V2.5H75v7.9h-1.5l-3.6-5.8l0,0v5.8
		h-1.3V2.5z"/>
</g>
</svg>
