<?xml version="1.0" encoding="utf-8"?>
<!-- Generator: Adobe Illustrator 24.1.2, SVG Export Plug-In . SVG Version: 6.00 Build 0)  -->
<svg version="1.1" id="Layer_1" xmlns="http://www.w3.org/2000/svg" xmlns:xlink="http://www.w3.org/1999/xlink" x="0px" y="0px"
	 viewBox="0 0 328 28" style="enable-background:new 0 0 328 28;" xml:space="preserve">
<path id="niaid-nde-mobile-preferred" fill="#FFFFFF" d="M20.5,5.2v8.3h-1.4V9.7h-3.7v3.7h-1.5V5.2h1.4v3.3H19V5.2H20.5z M12.4,13.4H11V5.2h1.4V13.4z M9.5,13.4H8
	L4.3,7.3l0,0v6.1H2.9V5.2h1.5l3.8,6l0,0v-6h1.4L9.5,13.4z M25.6,9.3L20.5,0H1.7C0.8,0,0,0.8,0,1.7l0,0v15.1c0,0.9,0.8,1.7,1.7,1.7
	h18.8L25.6,9.3z M21.8,18.5l5.1-9.2L21.8,0h1.3c0.8,0,1.5,0.5,1.9,1.1l4.5,8.1L25,17.3c-0.4,0.6-1.1,1.1-1.9,1.1L21.8,18.5
	L21.8,18.5z M0.9,21.2h1.2l3.1,5l0,0v-5h1.1V28H5.2l-3.1-5l0,0v5H0.9V21.2z M7.8,21.2H9V28H7.8V21.2z M12.3,21.2h1.3l2.6,6.8H15
	l-0.6-1.8h-2.7L10.9,28H9.7L12.3,21.2z M11.9,25.3H14l-1.1-2.9l0,0L11.9,25.3z M16.8,21.2H18V28h-1.2V21.2z M19.5,21.2h2.8
	c2.1,0,3,1.5,3,3.4s-0.9,3.4-3,3.4h-2.8V21.2z M20.6,27h1.2c1.9,0,2.3-1.1,2.3-2.4s-0.4-2.4-2.3-2.4h-1.2V27z M35.7,0h-0.9v28h0.9V0
	z M54.2,2.8h4v19.6h-3.6L45.3,8.9v13.5h-3.9V2.8h3.9l8.9,13V2.8z M62.5,2.8h3.9v19.6h-3.9V2.8z M69.4,22.4l7-19.6h4.2l7,19.6h-3.9
	l-1.6-4.5h-7l-1.7,4.5H69.4z M75.9,14.4h5.2l-2.6-7.8L75.9,14.4z M90.5,2.8h3.9v19.6h-3.9V2.8z M98.8,2.8h4.3h1.5c2,0,4,0.4,5.8,1.3
	c1.4,0.7,2.6,1.9,3.3,3.4c0.7,1.6,1.1,3.3,1,5.1c0,1.8-0.3,3.6-1.1,5.2c-0.7,1.5-1.9,2.7-3.4,3.4c-1.8,0.9-3.8,1.3-5.8,1.2h-5.7
	L98.8,2.8L98.8,2.8z M102.8,6v13.2h1.9c1.1,0,2.1-0.2,3.1-0.6c0.9-0.5,1.7-1.2,2.2-2.1c0.6-1.2,0.9-2.6,0.8-3.9
	c0.1-1.3-0.2-2.6-0.7-3.7c-0.4-0.9-1.2-1.6-2.1-2.1c-1-0.5-2.1-0.7-3.2-0.7L102.8,6z M124.1,2.8h4.3h1.5c2,0,4,0.4,5.8,1.3
	c1.4,0.7,2.6,1.9,3.3,3.4c0.7,1.6,1.1,3.3,1.1,5.1s-0.3,3.6-1.1,5.2c-0.7,1.5-1.9,2.7-3.4,3.4c-1.8,0.9-3.8,1.3-5.8,1.2h-5.7
	C124.1,22.4,124.1,2.8,124.1,2.8z M128,6v13.2h1.8c1.1,0,2.1-0.2,3.1-0.6c0.9-0.5,1.7-1.2,2.2-2.1c0.6-1.2,0.9-2.6,0.8-3.9
	c0.1-1.3-0.2-2.6-0.7-3.7c-0.4-0.9-1.2-1.6-2.1-2.1c-1-0.5-2.1-0.7-3.2-0.7L128,6z M147.1,22.6c-0.8,0-1.7-0.2-2.4-0.5
	c-0.7-0.3-1.3-0.8-1.7-1.5c-0.4-0.7-0.7-1.5-0.6-2.3c-0.1-1.4,0.6-2.7,1.7-3.5c1.2-0.8,3-1.2,5.4-1.2h1.7v-0.8
	c0-0.6-0.2-1.1-0.6-1.5c-0.5-0.4-1.1-0.6-1.7-0.5c-0.6,0-1.1,0.1-1.6,0.4c-0.5,0.3-0.9,0.8-1.1,1.4h-3.3c0-0.9,0.3-1.8,0.9-2.5
	c0.6-0.7,1.3-1.2,2.2-1.5c1-0.3,2.1-0.5,3.1-0.5c1.2,0,2.3,0.1,3.5,0.5c0.8,0.3,1.4,0.8,1.9,1.5c0.4,0.7,0.6,1.5,0.6,2.4v9.8h-3.3
	l-0.4-2.3c-0.4,0.9-1,1.6-1.8,2.1C148.8,22.5,148,22.7,147.1,22.6z M148.4,20c0.4,0,0.7-0.1,1.1-0.2c0.3-0.1,0.7-0.3,0.9-0.5
	c0.3-0.2,0.5-0.5,0.6-0.8c0.2-0.3,0.2-0.6,0.2-0.9v-2.1h-1.4c-0.6,0-1.3,0.1-1.9,0.2c-0.5,0.1-1,0.4-1.4,0.7
	c-0.4,0.4-0.5,0.8-0.5,1.4s0.2,1.2,0.7,1.5C147.2,19.9,147.8,20.1,148.4,20z M166.5,11.1h-3.1v7.5c0,0.3,0,0.5,0.1,0.8
	c0.1,0.2,0.2,0.3,0.4,0.3c0.2,0.1,0.5,0.1,0.7,0.1h1.9v2.4c-0.3,0.1-0.6,0.2-0.8,0.2c-0.5,0.1-1.1,0.1-1.6,0.1c-1,0-1.9-0.1-2.8-0.5
	c-0.6-0.3-1.1-0.7-1.4-1.3c-0.3-0.6-0.4-1.3-0.4-2v-7.6h-2.3V8.4h2.4l1-4.2h2.8v4.2h3.1L166.5,11.1z M173.4,22.6
	c-0.8,0-1.7-0.2-2.4-0.5s-1.3-0.8-1.7-1.5s-0.6-1.5-0.6-2.3c-0.1-1.4,0.6-2.7,1.7-3.5c1.1-0.8,3-1.2,5.4-1.2h1.7v-0.8
	c0-0.6-0.2-1.1-0.6-1.5c-0.5-0.4-1.1-0.6-1.7-0.5c-0.6,0-1.1,0.2-1.6,0.4c-0.5,0.3-0.9,0.8-1.1,1.4h-3.3c0-0.9,0.3-1.8,0.9-2.5
	c0.6-0.7,1.3-1.2,2.2-1.5c1-0.3,2.1-0.5,3.1-0.5c1.2,0,2.3,0.1,3.5,0.5c0.8,0.3,1.4,0.8,1.9,1.5c0.4,0.7,0.6,1.5,0.6,2.4v9.9h-3.3
	l-0.3-2.4c-0.4,0.9-1,1.6-1.8,2.1C175.1,22.5,174.3,22.7,173.4,22.6z M174.7,20c0.4,0,0.7-0.1,1.1-0.2c0.3-0.1,0.7-0.3,0.9-0.5
	c0.3-0.2,0.5-0.5,0.6-0.8c0.2-0.3,0.2-0.6,0.2-0.9v-2.1h-1.4c-0.6,0-1.3,0.1-1.9,0.2c-0.5,0.1-1,0.4-1.4,0.7
	c-0.4,0.4-0.5,0.9-0.5,1.4c0,0.6,0.2,1.2,0.7,1.5C173.5,19.9,174.1,20.1,174.7,20z M191.1,22.4V2.8h13.4v3.3H195v4.7h8.2v3.3H195V19
	h9.6v3.4H191.1z M213.7,8.1c1.1,0,2.1,0.2,3,0.7c0.8,0.5,1.5,1.1,2,1.9c0.5,0.8,0.8,1.8,0.8,2.7h-3.3c-0.1-0.4-0.2-0.8-0.4-1.1
	c-0.2-0.4-0.5-0.7-0.8-0.9c-0.4-0.3-0.9-0.4-1.4-0.4c-0.9,0-1.7,0.4-2.2,1.1c-0.6,0.9-0.9,2.1-0.9,3.2c-0.1,1.1,0.2,2.3,0.8,3.2
	c0.5,0.8,1.4,1.2,2.3,1.2c0.5,0,0.9-0.1,1.3-0.4c0.3-0.2,0.6-0.6,0.8-0.9s0.3-0.7,0.4-1h3.2c-0.1,0.9-0.3,1.8-0.8,2.6
	c-0.5,0.8-1.2,1.4-2,1.9c-0.9,0.5-2,0.7-3,0.7c-1.2,0-2.4-0.3-3.5-0.9c-1-0.6-1.9-1.4-2.4-2.5c-0.6-1.2-0.9-2.5-0.9-3.9
	c0-1.3,0.3-2.6,0.8-3.8c0.5-1.1,1.3-2,2.4-2.6C211.2,8.4,212.4,8.1,213.7,8.1z M228.3,22.6c-1.3,0-2.5-0.3-3.6-0.9
	c-1-0.6-1.8-1.4-2.3-2.4c-0.6-1.2-0.9-2.5-0.8-3.8c0-1.3,0.3-2.7,0.8-3.9c0.5-1.1,1.3-2,2.4-2.6c2.2-1.2,4.9-1.2,7.2,0
	c1,0.6,1.8,1.5,2.3,2.5c0.6,1.2,0.9,2.6,0.8,3.9c0,1.3-0.2,2.6-0.8,3.7c-0.5,1.1-1.3,1.9-2.3,2.5C230.8,22.4,229.6,22.7,228.3,22.6z
	 M228.3,19.7c0.6,0,1.2-0.2,1.7-0.6c0.4-0.4,0.8-1,0.9-1.6c0.2-0.7,0.3-1.4,0.3-2.2c0-0.7-0.1-1.4-0.3-2.1c-0.2-0.6-0.5-1.2-0.9-1.6
	c-0.5-0.4-1.1-0.6-1.7-0.6c-0.6,0-1.2,0.2-1.7,0.6c-0.5,0.4-0.8,1-0.9,1.5c-0.2,0.7-0.3,1.4-0.3,2.2c0,0.7,0.1,1.4,0.3,2.1
	c0.2,0.6,0.5,1.2,0.9,1.6C227,19.5,227.6,19.7,228.3,19.7L228.3,19.7z M243.2,22.6c-1,0-1.9-0.2-2.8-0.5c-0.9-0.3-1.7-0.8-2.3-1.5
	c-0.7-0.8-1.1-1.7-1.2-2.7h3.4c0.1,0.4,0.3,0.9,0.6,1.2c0.3,0.3,0.7,0.5,1.1,0.6c0.4,0.1,0.7,0.2,1.1,0.2c0.6,0,1.3-0.1,1.9-0.4
	c0.4-0.2,0.7-0.6,0.7-1.1c0-0.4-0.1-0.7-0.4-0.9c-0.4-0.3-0.9-0.5-1.4-0.5l-2.5-0.5c-1.1-0.2-2.1-0.7-3-1.3
	c-0.8-0.7-1.2-1.6-1.2-2.6c0-0.8,0.2-1.6,0.7-2.3s1.2-1.3,2-1.6c1-0.4,2.1-0.6,3.2-0.6c1.5-0.1,2.9,0.3,4.1,1.1
	c1,0.7,1.6,1.9,1.6,3.2h-3.3c-0.1-0.5-0.4-1-0.8-1.3c-0.5-0.3-1.1-0.5-1.7-0.4c-0.6,0-1.2,0.1-1.7,0.4c-0.4,0.2-0.7,0.6-0.7,1.1
	c0,0.4,0.2,0.7,0.5,0.9c0.5,0.3,1.1,0.5,1.7,0.6l2.3,0.5c0.7,0.1,1.3,0.4,1.9,0.8c0.4,0.3,0.8,0.7,1.1,1.1c0.3,0.4,0.4,0.7,0.6,1.2
	c0.1,0.3,0.2,0.7,0.2,1.1c0,0.9-0.2,1.7-0.7,2.4c-0.5,0.7-1.3,1.2-2.1,1.5C245.2,22.5,244.2,22.7,243.2,22.6z M253.9,26.8
	c-0.9,0-1.8-0.2-2.6-0.5v-2.5l1.4,0.1c0.5,0,1,0,1.5-0.1c0.3-0.1,0.6-0.2,0.8-0.4c0.2-0.1,0.3-0.3,0.4-0.5c0.1-0.2,0.1-0.3,0.2-0.4
	l0.3-0.8l-5.5-13.3h3.9l3.4,9.1l3.4-9.1h3.9l-5.7,14.1c-0.4,1-0.9,1.9-1.5,2.7c-0.5,0.6-1.1,1-1.8,1.3
	C255.3,26.7,254.6,26.9,253.9,26.8z M272,22.6c-1,0-1.9-0.2-2.8-0.5c-0.9-0.3-1.7-0.8-2.3-1.5c-0.7-0.8-1.1-1.7-1.2-2.7h3.4
	c0.1,0.4,0.3,0.9,0.6,1.2c0.3,0.3,0.7,0.5,1.1,0.6c1,0.3,2,0.2,3-0.2c0.4-0.2,0.7-0.6,0.7-1.1c0-0.4-0.1-0.7-0.4-0.9
	c-0.4-0.3-0.9-0.5-1.4-0.5l-2.5-0.5c-1.1-0.2-2.1-0.7-3-1.3c-0.8-0.7-1.2-1.6-1.2-2.7c0-0.8,0.2-1.6,0.7-2.2c0.5-0.7,1.2-1.3,2-1.6
	c1-0.4,2.1-0.6,3.2-0.6c1.5-0.1,2.9,0.3,4.1,1.1c1,0.7,1.6,1.9,1.6,3.2h-3.3c-0.1-0.5-0.4-1-0.8-1.3c-0.5-0.3-1.1-0.5-1.6-0.4
	c-0.6,0-1.2,0.1-1.7,0.4c-0.4,0.2-0.7,0.6-0.7,1.1c0,0.4,0.2,0.7,0.5,0.9c0.5,0.3,1.1,0.5,1.7,0.6l2.3,0.5c0.7,0.1,1.3,0.4,1.9,0.8
	c0.4,0.3,0.8,0.7,1.1,1.1c0.3,0.4,0.4,0.7,0.6,1.2c0.1,0.3,0.2,0.7,0.2,1.1c0,0.9-0.2,1.7-0.7,2.4c-0.5,0.7-1.3,1.2-2.1,1.5
	C274.2,22.5,273.1,22.7,272,22.6z M289,11.1h-3.1v7.5c0,0.3,0,0.5,0.1,0.8c0.1,0.2,0.2,0.3,0.4,0.3c0.2,0.1,0.5,0.1,0.7,0.1h1.9v2.4
	c-0.3,0.1-0.6,0.2-0.8,0.2c-0.5,0.1-1.1,0.1-1.6,0.1c-1,0-1.9-0.1-2.9-0.5c-0.6-0.3-1.1-0.7-1.4-1.3c-0.3-0.6-0.4-1.3-0.4-2v-7.6
	h-2.3V8.4h2.4l1-4.2h2.8v4.2h3.1L289,11.1z M294.7,16.3c0,0.6,0.1,1.3,0.3,1.9c0.2,0.5,0.6,0.9,1,1.2c0.5,0.3,1,0.4,1.6,0.4
	s1.2-0.1,1.8-0.4c0.5-0.3,0.9-0.8,1.1-1.4h3.6c-0.1,0.9-0.5,1.8-1.2,2.5c-0.6,0.7-1.4,1.3-2.3,1.6c-2.1,0.8-4.5,0.7-6.5-0.3
	c-1-0.6-1.9-1.4-2.5-2.5c-0.6-1.2-0.9-2.4-0.9-3.7s0.3-2.6,0.8-3.8c0.5-1.1,1.3-2,2.3-2.7c1.1-0.7,2.4-1,3.7-1
	c1.3,0,2.5,0.3,3.6,0.9c1,0.6,1.7,1.5,2.2,2.5c0.5,1.2,0.8,2.4,0.7,3.7v1.1L294.7,16.3z M294.7,13.9h5.7c0-0.5-0.1-1.1-0.3-1.5
	c-0.2-0.5-0.5-0.8-0.9-1.1c-0.5-0.3-1-0.4-1.6-0.4s-1.1,0.1-1.6,0.4c-0.4,0.3-0.8,0.7-1,1.1C294.9,12.9,294.7,13.4,294.7,13.9
	L294.7,13.9z M306.9,22.4v-14h3.9v2c0.5-0.6,1-1.2,1.7-1.6c0.8-0.5,1.8-0.7,2.7-0.7c0.5,0,1,0.1,1.4,0.3c0.5,0.2,1,0.4,1.4,0.7
	s0.8,0.8,1.1,1.2c0.5-0.7,1.1-1.2,1.8-1.6c0.7-0.4,1.6-0.7,2.5-0.6c0.5,0,1.1,0.1,1.6,0.3c1.2,0.4,2.1,1.2,2.6,2.4
	c0.3,0.8,0.4,1.6,0.4,2.4v9.2h-3.9v-8.8c0-0.5-0.1-0.9-0.3-1.3c-0.2-0.3-0.5-0.6-0.8-0.7c-0.3-0.1-0.7-0.2-1.1-0.2s-0.7,0.1-1.1,0.2
	c-0.4,0.1-0.7,0.4-0.9,0.7c-0.3,0.3-0.4,0.8-0.4,1.2v9h-4.1v-9.1c0-0.4-0.1-0.8-0.3-1.1c-0.2-0.3-0.5-0.5-0.8-0.7
	c-0.3-0.1-0.7-0.2-1-0.2c-0.4,0-0.7,0.1-1.1,0.2c-0.4,0.1-0.7,0.4-0.9,0.7c-0.3,0.3-0.4,0.8-0.4,1.2v9L306.9,22.4L306.9,22.4z
	 M35.4,0v28"/>
</svg>
