<?xml version="1.0" encoding="utf-8"?>
<!-- Generator: Adobe Illustrator 24.1.2, SVG Export Plug-In . SVG Version: 6.00 Build 0)  -->
<svg version="1.1" id="Layer_1" xmlns="http://www.w3.org/2000/svg" xmlns:xlink="http://www.w3.org/1999/xlink" x="0px" y="0px"
	 viewBox="0 0 207.8 50.6" enable-background="new 0 0 207.8 50.6" xml:space="preserve">
<g>
	<g>
		<path fill="#FFFFFF" d="M56.2,14v22.6h-4h0V26.4H41.9v10.2h-4V14h4v9h10.3v-9h0H56.2z M34,36.6L34,36.6h-4V14h4V36.6z M26.2,36.6
			L26.2,36.6H22L11.7,20h-0.1v16.6H7.8l0,0V14l0,0H12h0l10.3,16.6h0.1V14h3.8V36.6z M70.1,25.3L56.1,0H4.7C2.1,0,0,2.1,0,4.7v41.2
			c0,2.6,2.1,4.7,4.7,4.7h51.4L70.1,25.3z"/>
		<path fill="#FFFFFF" d="M59.6,50.6l14-25.3L59.6,0h3.5c1.9,0,4.2,1.4,5.2,3l12.3,22.2L68.3,47.5c-0.9,1.7-3.2,3-5.2,3H59.6z"/>
		<path fill="#FFFFFF" d="M59.6,50.6l14-25.3L59.6,0h3.5c1.9,0,4.2,1.4,5.2,3l12.3,22.2L68.3,47.5c-0.9,1.7-3.3,3-5.2,3H59.6z"/>
		<path fill="#FFFFFF" d="M201.2,46.2c0,1.7,1.4,2.5,3.2,2.5c1.5,0,3.2-0.6,3.2-2.4c0-1.4-1.2-1.9-2.3-2.1c-1.2-0.3-2.4-0.4-2.4-1.2
			c0-0.6,0.9-0.7,1.3-0.7c0.7,0,1.3,0.2,1.5,1h1.7c-0.2-1.6-1.5-2.2-3-2.2c-1.3,0-3,0.5-3,2.1c0,1.5,1.1,1.9,2.3,2.2
			c1.2,0.3,2.3,0.4,2.4,1.2c0,0.8-1,1-1.6,1c-0.9,0-1.6-0.3-1.6-1.3H201.2z M195.3,44.3c0-1.1,0.8-1.9,1.9-1.9
			c1.1,0,1.8,0.9,1.8,1.9H195.3z M200.6,45.3c0.3-2.2-1.1-4.2-3.4-4.2c-2.2,0-3.5,1.8-3.5,3.8c0,2.2,1.3,3.8,3.6,3.8
			c1.6,0,2.9-0.9,3.3-2.5H199c-0.3,0.8-0.8,1.2-1.8,1.2c-1.3,0-2-1-2-2.1H200.6z M186.6,46.2c0,1.7,1.4,2.5,3.2,2.5
			c1.5,0,3.2-0.6,3.2-2.4c0-1.4-1.2-1.9-2.3-2.1c-1.2-0.3-2.4-0.4-2.4-1.2c0-0.6,0.9-0.7,1.3-0.7c0.7,0,1.3,0.2,1.5,1h1.7
			c-0.2-1.6-1.5-2.2-3-2.2c-1.3,0-3,0.5-3,2.1c0,1.5,1.1,1.9,2.3,2.2c1.2,0.3,2.3,0.4,2.4,1.2c0,0.8-1,1-1.6,1
			c-0.9,0-1.6-0.3-1.6-1.3H186.6z M185.6,43.2c0-1.5-1.5-2.1-2.9-2.1c-1.6,0-3.2,0.5-3.3,2.4h1.6c0.1-0.8,0.7-1.2,1.6-1.2
			c0.6,0,1.5,0.2,1.5,1c0,0.9-1,0.8-2.2,1c-1.3,0.2-2.8,0.5-2.8,2.3c0,1.4,1.2,2.1,2.5,2.1c0.9,0,1.9-0.3,2.5-0.9
			c0.1,0.7,0.6,0.9,1.2,0.9c0.3,0,0.8-0.1,1-0.2v-1.1c-0.2,0-0.3,0-0.4,0c-0.3,0-0.4-0.2-0.4-0.5V43.2z M184,46.1
			c0,1-1.1,1.4-1.8,1.4c-0.6,0-1.5-0.2-1.5-0.9c0-0.8,0.6-1.1,1.3-1.2c0.7-0.1,1.5-0.1,2-0.4V46.1z M173.2,44.3
			c0-1.1,0.8-1.9,1.9-1.9c1.1,0,1.8,0.9,1.8,1.9H173.2z M178.5,45.3c0.3-2.2-1.1-4.2-3.4-4.2c-2.2,0-3.5,1.8-3.5,3.8
			c0,2.2,1.3,3.8,3.6,3.8c1.6,0,2.9-0.9,3.3-2.5h-1.5c-0.3,0.8-0.8,1.2-1.8,1.2c-1.3,0-2-1-2-2.1H178.5z M164.5,46.2
			c0,1.7,1.4,2.5,3.2,2.5c1.5,0,3.2-0.6,3.2-2.4c0-1.4-1.2-1.9-2.3-2.1c-1.2-0.3-2.4-0.4-2.4-1.2c0-0.6,0.9-0.7,1.3-0.7
			c0.7,0,1.3,0.2,1.5,1h1.7c-0.2-1.6-1.5-2.2-3-2.2c-1.3,0-3,0.5-3,2.1c0,1.5,1.2,1.9,2.3,2.2c1.2,0.3,2.3,0.4,2.4,1.2
			c0,0.8-1,1-1.6,1c-0.9,0-1.6-0.3-1.6-1.3H164.5z M161.8,40h1.6v-1.5h-1.6V40z M161.8,48.5h1.6v-7.3h-1.6V48.5z M152.1,48.5h4.2
			c3.1,0,4.4-2.2,4.4-5c0-2.8-1.3-5-4.4-5h-4.2V48.5z M153.8,39.9h1.7c2.8,0,3.3,1.6,3.3,3.6c0,2-0.6,3.6-3.3,3.6h-1.7V39.9z
			 M140.8,46.2c0,1.7,1.4,2.5,3.2,2.5c1.5,0,3.2-0.6,3.2-2.4c0-1.4-1.2-1.9-2.3-2.1c-1.2-0.3-2.4-0.4-2.4-1.2c0-0.6,0.9-0.7,1.3-0.7
			c0.7,0,1.3,0.2,1.5,1h1.7c-0.2-1.6-1.5-2.2-3-2.2c-1.3,0-3,0.5-3,2.1c0,1.5,1.2,1.9,2.3,2.2c1.2,0.3,2.3,0.4,2.4,1.2
			c0,0.8-1,1-1.6,1c-0.9,0-1.6-0.3-1.6-1.3H140.8z M139.7,41.3h-1.6v4.2c0,1.1-0.4,2-1.8,2c-0.9,0-1.4-0.5-1.4-1.7v-4.5h-1.6v4.6
			c0,1.9,0.8,2.9,2.7,2.9c0.8,0,1.7-0.5,2.1-1.2h0v1h1.6V41.3z M128.6,48.7c2.3,0,3.7-1.6,3.7-3.8c0-2.2-1.3-3.8-3.7-3.8
			c-2.3,0-3.7,1.6-3.7,3.8C124.9,47.1,126.3,48.7,128.6,48.7 M128.6,47.5c-1.4,0-2.1-1.3-2.1-2.6c0-1.2,0.6-2.6,2.1-2.6
			c1.4,0,2.1,1.3,2.1,2.6C130.7,46.2,130,47.5,128.6,47.5 M122.2,40h1.6v-1.5h-1.6V40z M122.2,48.5h1.6v-7.3h-1.6V48.5z M117,42.5
			h1.2v4.3c0,1.2,0.3,1.9,2,1.9c0.4,0,0.7-0.1,1-0.1v-1.2c-0.2,0.1-0.5,0.1-0.7,0.1c-0.7,0-0.8-0.3-0.8-1v-3.9h1.4v-1.2h-1.4v-2.2
			h-1.6v2.2H117V42.5z M116.7,43.7c-0.2-1.8-1.6-2.6-3.3-2.6c-2.4,0-3.6,1.7-3.6,3.9c0,2.1,1.2,3.8,3.5,3.8c1.9,0,3-1,3.3-2.9h-1.6
			c-0.2,1-0.8,1.7-1.7,1.7c-1.4,0-1.9-1.3-1.9-2.5c0-2.2,1.2-2.6,2-2.6c0.9,0,1.5,0.5,1.7,1.4H116.7z M103.9,44.3
			c0-1.1,0.8-1.9,1.9-1.9c1.1,0,1.8,0.9,1.8,1.9H103.9z M109.2,45.3c0.3-2.2-1.1-4.2-3.4-4.2c-2.2,0-3.5,1.8-3.5,3.8
			c0,2.2,1.3,3.8,3.6,3.8c1.6,0,2.9-0.9,3.3-2.5h-1.5c-0.3,0.8-0.8,1.2-1.8,1.2c-1.3,0-2-1-2-2.1H109.2z M97.7,42.5h1.2v6.1h1.6
			v-6.1h1.4v-1.2h-1.4v-0.7c0-0.6,0.4-0.8,0.8-0.8c0.3,0,0.5,0,0.7,0.1v-1.2c-0.3-0.1-0.6-0.1-1.1-0.1c-1,0-2,0.3-2,2.2v0.6h-1.2
			V42.5z M90.6,48.5h1.6v-4.3c0-1.1,0.7-1.9,1.8-1.9c0.9,0,1.4,0.5,1.4,1.6v4.6H97v-5c0-1.6-1-2.5-2.6-2.5c-1,0-1.8,0.5-2.3,1.3l0,0
			v-1.1h-1.5V48.5z M87.2,48.5H89v-10h-1.8V48.5z"/>
		<path fill="#FFFFFF" d="M155.6,20.7H154v3.7h0c-0.5-0.8-1.5-1.1-2.4-1.1c-1.6,0-3.1,1.1-3.1,3.8c0,2.2,1.1,3.9,3.4,3.9
			c0.9,0,1.8-0.4,2.2-1.2h0v1h1.5V20.7z M150,27.2c0-1.3,0.5-2.6,2-2.6c1.2,0,2,1,2,2.6c0,1.3-0.6,2.6-2,2.6
			C150.6,29.7,150,28.4,150,27.2 M140.9,30.7h1.6v-4.3c0-1.1,0.7-1.9,1.8-1.9c0.9,0,1.4,0.5,1.4,1.6v4.6h1.6v-5c0-1.6-1-2.5-2.6-2.5
			c-1,0-1.8,0.5-2.3,1.3l0,0v-1.1h-1.5V30.7z M139.5,25.4c0-1.5-1.5-2.1-2.9-2.1c-1.6,0-3.2,0.5-3.3,2.4h1.6
			c0.1-0.8,0.7-1.1,1.6-1.1c0.6,0,1.5,0.2,1.5,1c0,0.9-1,0.8-2.2,1c-1.3,0.2-2.8,0.4-2.8,2.3c0,1.4,1.2,2.1,2.5,2.1
			c0.9,0,1.9-0.3,2.5-0.9c0.1,0.7,0.6,0.9,1.2,0.9c0.3,0,0.8-0.1,1-0.2v-1.1c-0.2,0-0.3,0-0.4,0c-0.3,0-0.4-0.2-0.4-0.5V25.4z
			 M137.9,28.3c0,1-1.1,1.4-1.8,1.4c-0.6,0-1.5-0.2-1.5-0.9c0-0.8,0.6-1.1,1.3-1.2c0.7-0.1,1.5-0.1,2-0.4V28.3z M124.6,30.7
			l-0.2,0.6c-0.2,0.6-0.4,1-1.1,1c-0.3,0-0.5-0.1-0.8-0.1v1.3c0.4,0.1,0.7,0.1,1.1,0.1c1.7,0,2.1-1.2,2.6-2.5l2.8-7.7h-1.7l-1.8,5.4
			h0l-1.9-5.4h-1.8L124.6,30.7z M121.3,23.5h-1.6v1h0c-0.4-0.8-1.2-1.2-2.1-1.2c-2.1,0-3.3,1.7-3.3,3.6c0,2.1,1,3.8,3.3,3.8
			c0.9,0,1.7-0.5,2.2-1.3h0v1.1c0,1.2-0.6,1.9-1.9,1.9c-0.8,0-1.5-0.2-1.7-1.1h-1.6c0.1,1.7,1.8,2.3,3.2,2.3c2.3,0,3.6-1.1,3.6-3.3
			V23.5z M117.8,29.5c-1.3,0-1.9-1.2-1.9-2.4c0-1.2,0.5-2.5,1.9-2.5c1.4,0,2,1.1,2,2.4C119.7,28.2,119.2,29.5,117.8,29.5
			 M109.9,30.7h1.6v-3.5c0-1.6,0.9-2.5,2-2.5c0.2,0,0.5,0,0.7,0.1v-1.5c-0.1,0-0.2,0-0.6,0c-1,0-1.9,0.8-2.1,1.6h0v-1.4h-1.5V30.7z
			 M103.6,26.5c0-1.1,0.8-1.9,1.9-1.9c1.1,0,1.8,0.9,1.8,1.9H103.6z M108.9,27.5c0.3-2.2-1.1-4.2-3.4-4.2c-2.2,0-3.5,1.8-3.5,3.8
			c0,2.2,1.3,3.8,3.6,3.8c1.6,0,2.9-0.9,3.3-2.5h-1.5c-0.3,0.8-0.8,1.2-1.8,1.2c-1.3,0-2-1-2-2.1H108.9z M99.3,30.7h1.6v-10h-1.6
			V30.7z M96.1,30.7h1.6v-10h-1.6V30.7z M86,30.7h1.8l0.9-2.7h4l0.9,2.7h1.9l-3.9-10h-1.9L86,30.7z M90.8,22.4L90.8,22.4l1.5,4.3
			h-3.1L90.8,22.4z"/>
		<path fill="#FFFFFF" d="M203.5,6.9h1.2V13h1.6V6.9h1.4V5.7h-1.4V5c0-0.6,0.4-0.8,0.8-0.8c0.3,0,0.5,0,0.7,0.1V3
			c-0.3-0.1-0.6-0.1-1.1-0.1c-1,0-2,0.3-2,2.2v0.6h-1.2V6.9z M199.5,13.2c2.3,0,3.7-1.6,3.7-3.8c0-2.2-1.3-3.8-3.7-3.8
			c-2.3,0-3.7,1.6-3.7,3.8C195.8,11.6,197.1,13.2,199.5,13.2 M199.5,11.9c-1.4,0-2.1-1.3-2.1-2.6c0-1.3,0.6-2.6,2.1-2.6
			c1.4,0,2.1,1.3,2.1,2.6C201.5,10.6,200.9,11.9,199.5,11.9 M186.2,8.7c0-1.1,0.8-1.9,1.9-1.9c1.1,0,1.8,0.9,1.8,1.9H186.2z
			 M191.5,9.7c0.3-2.2-1.1-4.2-3.4-4.2c-2.2,0-3.5,1.8-3.5,3.8c0,2.2,1.3,3.8,3.6,3.8c1.6,0,2.9-0.9,3.3-2.5h-1.5
			c-0.3,0.8-0.8,1.2-1.8,1.2c-1.3,0-2-1-2-2.2H191.5z M179.8,6.9h1.2v4.3c0,1.2,0.3,1.9,2,1.9c0.4,0,0.7-0.1,1-0.1v-1.2
			c-0.2,0.1-0.5,0.1-0.7,0.1c-0.7,0-0.8-0.3-0.8-1V6.9h1.4V5.7h-1.4V3.5H181v2.2h-1.2V6.9z M179.1,5.7h-1.6v4.2c0,1.1-0.5,2-1.8,2
			c-0.9,0-1.4-0.5-1.4-1.7V5.7h-1.6v4.6c0,1.9,0.8,2.8,2.7,2.8c0.8,0,1.7-0.5,2.1-1.2h0v1h1.6V5.7z M167.5,6.9h1.2v4.3
			c0,1.2,0.3,1.9,2,1.9c0.4,0,0.7-0.1,1-0.1v-1.2c-0.2,0.1-0.4,0.1-0.7,0.1c-0.7,0-0.8-0.3-0.8-1V6.9h1.4V5.7h-1.4V3.5h-1.6v2.2
			h-1.2V6.9z M165.2,4.4h1.6V2.9h-1.6V4.4z M165.2,13h1.6V5.7h-1.6V13z M160,6.9h1.2v4.3c0,1.2,0.3,1.9,2,1.9c0.4,0,0.7-0.1,1-0.1
			v-1.2c-0.2,0.1-0.4,0.1-0.7,0.1c-0.7,0-0.8-0.3-0.8-1V6.9h1.4V5.7h-1.4V3.5h-1.6v2.2H160V6.9z M153.3,10.6c0,1.7,1.4,2.5,3.2,2.5
			c1.5,0,3.2-0.6,3.2-2.4c0-1.4-1.2-1.9-2.3-2.1c-1.2-0.3-2.4-0.4-2.4-1.2c0-0.6,0.9-0.7,1.3-0.7c0.7,0,1.3,0.2,1.5,1h1.7
			c-0.2-1.6-1.5-2.2-3-2.2c-1.3,0-3,0.5-3,2.1c0,1.5,1.2,1.9,2.3,2.1c1.2,0.3,2.3,0.4,2.4,1.2c0,0.8-1,1-1.6,1
			c-0.9,0-1.6-0.3-1.6-1.3H153.3z M145.9,13h1.6V8.7c0-1.1,0.7-1.9,1.8-1.9c0.9,0,1.4,0.5,1.4,1.6V13h1.6V8c0-1.6-1-2.5-2.6-2.5
			c-1,0-1.8,0.5-2.3,1.3l0,0V5.7h-1.5V13z M142.4,13h1.8v-10h-1.8V13z M135.5,13h1.6v-10h-1.6V13z M133.9,7.6c0-1.5-1.5-2.1-2.9-2.1
			c-1.6,0-3.2,0.5-3.3,2.4h1.6c0.1-0.8,0.7-1.2,1.6-1.2c0.6,0,1.5,0.2,1.5,1c0,0.9-1,0.8-2.2,1c-1.4,0.2-2.8,0.5-2.8,2.3
			c0,1.4,1.2,2.1,2.5,2.1c0.9,0,1.9-0.3,2.5-0.9c0.1,0.7,0.6,0.9,1.2,0.9c0.3,0,0.8-0.1,1-0.2v-1.1c-0.2,0-0.3,0-0.4,0
			c-0.3,0-0.4-0.2-0.4-0.5V7.6z M132.3,10.5c0,1-1.1,1.4-1.8,1.4c-0.6,0-1.5-0.2-1.5-0.9c0-0.8,0.6-1.1,1.3-1.2
			c0.7-0.1,1.5-0.1,2-0.4V10.5z M120.1,13h1.6V8.7c0-1.1,0.7-1.9,1.8-1.9c0.9,0,1.4,0.5,1.4,1.6V13h1.6V8c0-1.6-1-2.5-2.6-2.5
			c-1,0-1.8,0.5-2.3,1.3l0,0V5.7h-1.5V13z M115.3,13.2c2.3,0,3.7-1.6,3.7-3.8c0-2.2-1.3-3.8-3.7-3.8c-2.3,0-3.7,1.6-3.7,3.8
			C111.6,11.6,113,13.2,115.3,13.2 M115.3,11.9c-1.4,0-2.1-1.3-2.1-2.6c0-1.3,0.6-2.6,2.1-2.6c1.4,0,2.1,1.3,2.1,2.6
			C117.4,10.6,116.7,11.9,115.3,11.9 M108.9,4.4h1.6V2.9h-1.6V4.4z M108.9,13h1.6V5.7h-1.6V13z M103.7,6.9h1.2v4.3
			c0,1.2,0.3,1.9,2,1.9c0.3,0,0.7-0.1,1-0.1v-1.2c-0.2,0.1-0.5,0.1-0.7,0.1c-0.7,0-0.8-0.3-0.8-1V6.9h1.4V5.7h-1.4V3.5h-1.6v2.2
			h-1.2V6.9z M103,7.6c0-1.5-1.5-2.1-2.9-2.1c-1.6,0-3.2,0.5-3.3,2.4h1.6c0.1-0.8,0.7-1.2,1.6-1.2c0.6,0,1.5,0.2,1.5,1
			c0,0.9-1,0.8-2.2,1c-1.3,0.2-2.8,0.5-2.8,2.3c0,1.4,1.2,2.1,2.5,2.1c0.9,0,1.9-0.3,2.5-0.9c0.1,0.7,0.6,0.9,1.2,0.9
			c0.3,0,0.8-0.1,1-0.2v-1.1c-0.2,0-0.3,0-0.4,0c-0.3,0-0.4-0.2-0.4-0.5V7.6z M101.4,10.5c0,1-1.1,1.4-1.8,1.4
			c-0.6,0-1.5-0.2-1.5-0.9c0-0.8,0.6-1.1,1.3-1.2c0.7-0.1,1.5-0.1,2-0.4V10.5z M87.1,13h1.7V5.6h0l4.6,7.4h1.9v-10h-1.7v7.4h0
			L89,2.9h-1.9V13z"/>
	</g>
</g>
</svg>
