<?xml version="1.0" encoding="utf-8"?>
<!-- Generator: Adobe Illustrator 24.1.2, SVG Export Plug-In . SVG Version: 6.00 Build 0)  -->
<svg version="1.1" id="Layer_1" xmlns="http://www.w3.org/2000/svg" xmlns:xlink="http://www.w3.org/1999/xlink" x="0px" y="0px"
	 viewBox="0 0 136.6 115.2" enable-background="new 0 0 136.6 115.2" xml:space="preserve">
<g>
	<path fill="#FFFFFF" d="M81.9,37.3v22.6h-4h0V49.7H67.7v10.2h-4V37.3h4v9H78v-9h0H81.9z M59.8,59.9L59.8,59.9h-4V37.3h4V59.9z
		 M51.9,59.9L51.9,59.9h-4.2L37.4,43.2h-0.1v16.6h-3.8l0,0V37.3l0,0h4.2h0l10.3,16.6h0.1V37.3h3.8V59.9z M95.9,48.5l-14-25.3H30.4
		c-2.6,0-4.7,2.1-4.7,4.7v41.2c0,2.6,2.1,4.7,4.7,4.7h51.4L95.9,48.5z"/>
	<path fill="#636569" d="M85.3,73.8l14-25.3l-14-25.3h3.5c1.9,0,4.2,1.4,5.2,3l12.3,22.2L94,70.7c-0.9,1.7-3.2,3-5.2,3H85.3z"/>
	<path fill="#FFFFFF" d="M85.3,73.8l14-25.3l-14-25.3h3.5c1.9,0,4.2,1.4,5.2,3l12.3,22.2L94,70.7c-0.9,1.7-3.3,3-5.2,3H85.3z"/>
	<g>
		<path fill="#FFFFFF" d="M28.3,81.1h3.4l8.5,13.7h0.1V81.1h3.1v18.6h-3.4L31.4,86h-0.1v13.7h-3.1V81.1z"/>
		<path fill="#FFFFFF" d="M47.2,81.1h3.3v18.6h-3.3V81.1z"/>
		<path fill="#FFFFFF" d="M59.4,81.1h3.5L70,99.7h-3.5l-1.7-4.9h-7.4l-1.7,4.9h-3.4L59.4,81.1z M58.2,92.3h5.7l-2.8-8H61L58.2,92.3z
			"/>
		<path fill="#FFFFFF" d="M71.7,81.1H75v18.6h-3.3V81.1z"/>
		<path fill="#FFFFFF" d="M79,81.1h7.7c5.7,0,8.2,4.2,8.2,9.3c0,5.1-2.5,9.3-8.2,9.3H79V81.1z M82.2,97h3.2c5.1,0,6.2-2.9,6.2-6.6
			c0-3.7-1.1-6.6-6.2-6.6h-3.2V97z"/>
	</g>
</g>
</svg>
